<?xml version="1.0" encoding="UTF-8" standalone="no"?>
<!-- Created with Inkscape (http://www.inkscape.org/) -->

<svg
   xmlns:dc="http://purl.org/dc/elements/1.1/"
   xmlns:cc="http://creativecommons.org/ns#"
   xmlns:rdf="http://www.w3.org/1999/02/22-rdf-syntax-ns#"
   xmlns:svg="http://www.w3.org/2000/svg"
   xmlns="http://www.w3.org/2000/svg"
   xmlns:sodipodi="http://sodipodi.sourceforge.net/DTD/sodipodi-0.dtd"
   xmlns:inkscape="http://www.inkscape.org/namespaces/inkscape"
   width="56.692913"
   height="22.189369"
   id="svg2"
   version="1.1"
   inkscape:version="0.92.1 r15371"
   sodipodi:docname="ghost_silk_n39.svg">
  <sodipodi:namedview
     id="base"
     pagecolor="#ffffff"
     bordercolor="#666666"
     borderopacity="1.0"
     inkscape:pageopacity="0.0"
     inkscape:pageshadow="2"
     inkscape:zoom="43.519999"
     inkscape:cx="16.197096"
     inkscape:cy="11.425391"
     inkscape:document-units="px"
     inkscape:current-layer="layer1"
     showgrid="false"
     units="cm"
     inkscape:window-width="1366"
     inkscape:window-height="705"
     inkscape:window-x="0"
     inkscape:window-y="0"
     inkscape:window-maximized="1" />
  <defs
     id="defs4" />
  <metadata
     id="metadata7">
    <rdf:RDF>
      <cc:Work
         rdf:about="">
        <dc:format>image/svg+xml</dc:format>
        <dc:type
           rdf:resource="http://purl.org/dc/dcmitype/StillImage" />
        <dc:title />
      </cc:Work>
    </rdf:RDF>
  </metadata>
  <g
     transform="translate(-4.0000004,-863.44802)"
     id="layer1"
     inkscape:groupmode="layer"
     inkscape:label="SilkS">
    <path
       d="m 9.5042569,869.66165 v 0.90995 h 4.1319261 c -0.833164,0.83448 -1.667512,1.66777 -2.503231,2.49969 h 1.101138 c 1.758674,0 3.183035,1.4279 3.183035,3.18657 0,1.75868 -1.424361,3.18304 -3.183035,3.18304 -1.758673,0 -3.1865753,-1.42436 -3.1865753,-3.18304 H 8.1375701 c 0,2.26115 1.8353702,4.09298 4.0965199,4.09298 2.26115,0 4.092979,-1.83183 4.092979,-4.09298 0,-1.92309 -1.324965,-3.53973 -3.112222,-3.97968 l 2.620073,-2.61653 z"
       id="path4996-4-0-4-8-9-7-2-6-0-9-9-2"
       style="color:#000000;display:inline;overflow:visible;visibility:visible;fill:#000000;fill-opacity:1;stroke:none;stroke-width:0.15655832;marker:none;enable-background:accumulate"
       inkscape:connector-curvature="0"
       sodipodi:nodetypes="ccccsssccssccc" />
    <path
       inkscape:connector-curvature="0"
       style="color:#000000;display:inline;overflow:visible;visibility:visible;fill:#000000;fill-opacity:1;stroke:none;stroke-width:0.15655832;marker:none;enable-background:accumulate"
       id="path4996-4-0-4-2-1-9-8-5-8-9"
       d="m 12.23055,878.80927 c 1.381814,0 2.503232,-1.12142 2.503232,-2.50323 0,-1.06076 -0.661096,-1.96636 -1.593288,-2.32974 v 1.02678 c 0.413063,0.28698 0.683343,0.7617 0.683343,1.30296 0,0.87933 -0.713951,1.59329 -1.593287,1.59329 -0.879336,0 -1.589747,-0.71396 -1.589747,-1.59329 0,-0.54038 0.268902,-1.01583 0.679802,-1.30296 v -1.02678 c -0.931222,0.36338 -1.5897462,1.26898 -1.5897462,2.32974 0,1.38181 1.1178772,2.50323 2.4996912,2.50323 z" />
    <path
       inkscape:connector-curvature="0"
       style="color:#000000;display:inline;overflow:visible;visibility:visible;fill:#000000;fill-opacity:1;stroke:none;stroke-width:0.15655832;marker:none;enable-background:accumulate"
       id="rect5023-1-6-7-7-5-2-9-1-8-8"
       d="m 12.23055,876.76278 c 0.251239,0 0.456742,-0.2055 0.456742,-0.45674 v -2.7263 h -0.909944 v 2.7263 c 0,0.25124 0.201963,0.45674 0.453202,0.45674 z" />
    <path
       d="M17.962845 868.57821C17.9545736139 868.578292651 17.9463280513 868.578392955 17.93810927 868.578510575C17.9294196212 868.578634933 17.9207599103 868.578778649 17.9121312697 868.578941327C17.9033485462 868.579106909 17.8945980125 868.579292136 17.8858808625 868.579496589C17.8772999179 868.579697848 17.868751322 868.579917736 17.8602362135 868.580155857C17.8516989303 868.580394598 17.8431953092 868.580651665 17.8347264979 868.580926657C17.8259615302 868.581211266 17.8172338496 868.581515075 17.8085447284 868.581837639C17.8000227058 868.582153999 17.7915377738 868.582488401 17.7830911328 868.582840422C17.7747764707 868.583186944 17.7664989124 868.583550539 17.7582596029 868.583930807C17.7498241194 868.584320129 17.7414287278 868.584726928 17.7330746569 868.585150773C17.724720586 868.585574618 17.7164078358 868.586015509 17.7081376351 868.586473016C17.6996454726 868.586942802 17.6911981742 868.587430108 17.6827970702 868.587934468C17.6739146529 868.588467724 17.6650838749 868.589020044 17.6563063084 868.589590878C17.647930394 868.590135591 17.6396029328 868.590697162 17.6313252911 868.591275113C17.6225561644 868.59188738 17.6138429488 868.592518029 17.6051872688 868.593166492C17.5969222966 868.593785685 17.588709783 868.594421119 17.5805511422 868.595072301C17.5722905183 868.595731622 17.5640851225 868.596407086 17.5559364226 868.597098179C17.5471086644 868.597846864 17.5383474451 868.598613891 17.5296546311 868.599398607C17.5210976422 868.600171061 17.5126069377 868.600960657 17.5041842976 868.60176677C17.4955611185 868.602592076 17.4870092835 868.603434695 17.4785307032 868.604293959C17.4700521228 868.605153223 17.461646797 868.606029131 17.4533166361 868.606921015C17.4447718756 868.607835875 17.4363062027 868.608767545 17.4279216792 868.609715302C17.4192950754 868.610690423 17.4107543746 868.611682574 17.4023018225 868.612690969C17.3935394112 868.61373633 17.3848717299 868.614799147 17.3763012803 868.615878545C17.3677263669 868.616958505 17.3592487866 868.618055063 17.350871045 868.619167341C17.3423239006 868.620302111 17.3338806733 868.621453243 17.325544024 868.622619806C17.3171031666 868.623800951 17.3087715682 868.624997915 17.3005519907 868.626209732C17.2922039822 868.627440483 17.2839715227 868.628686555 17.2758575053 868.629946934C17.2675744459 868.63123357 17.2594148152 868.632535116 17.2513816911 868.633850494C17.2425452546 868.63529741 17.2338618911 868.636761063 17.2253356974 868.638240017C17.2168095036 868.639718972 17.2084404796 868.641213229 17.2002327221 868.642721354C17.1918574067 868.644260267 17.1836500094 868.645813619 17.1756148829 868.647379888C17.1673147089 868.648997822 17.1591983582 868.650629538 17.1512706288 868.652273356C17.1425005782 868.65409183 17.1339613603 868.655925115 17.1256594705 868.657770937C17.1168819516 868.659722509 17.1083697337 868.661688095 17.1001304938 868.663665007C17.0917441247 868.665677222 17.0836405699 868.667701171 17.0758279252 868.669734021C17.067282845 868.67195745 17.0590857773 868.674191526 17.051247315 868.676432541C17.0426495016 868.678890654 17.0344831387 868.681357116 17.0267622055 868.683827031C17.0182431951 868.68655225 17.0102664575 868.689281674 17.0028507704 868.692008728C16.9945596203 868.695057727 16.9869698102 868.698103763 16.9801075843 868.70113765C16.9712847224 868.705038361 16.9636646017 868.708918987 16.957303 868.71276C16.953503436 868.715053484 16.9497593975 868.717408299 16.9460705807 868.719821731C16.9421704255 868.722373433 16.9383320006 868.724990659 16.9345549469 868.7276702C16.9307104458 868.73039759 16.9269295273 868.73318954 16.9232118127 868.736042665C16.9195521873 868.73885121 16.9159538061 868.741719033 16.9124163077 868.744642905C16.909038488 868.747434796 16.9057161789 868.750277791 16.9024490657 868.753169077C16.8991411136 868.756096505 16.8958897461 868.759073439 16.8926946365 868.762096962C16.8892332678 868.765372446 16.8858379242 868.768702606 16.8825081904 868.772083734C16.879386565 868.775253541 16.8763226046 868.778468143 16.8733159672 868.781724484C16.870008666 868.785306459 16.8667707255 868.788938937 16.8636016906 868.79261785C16.8604326557 868.796296763 16.8573325262 868.80002211 16.8543008471 868.803789824C16.8515240701 868.80724075 16.8488047168 868.810727217 16.8461424373 868.814246099C16.8433276313 868.817966584 16.8405766263 868.821723304 16.8378890086 868.825512565C16.8351533979 868.829369491 16.8324834586 868.83326013 16.8298787548 868.837180585C16.8273147496 868.841039784 16.8248139572 868.844927874 16.8223759617 868.848841139C16.8200480147 868.852577764 16.8177773234 868.856337343 16.8155635259 868.860116639C16.8133220558 868.863943177 16.8111389108 868.867789928 16.8090137148 868.871653535C16.8067114192 868.875839109 16.8044771334 868.880044465 16.8023103795 868.884265332C16.8002790478 868.888222394 16.7983070703 868.89219309 16.7963940535 868.8961739C16.7942897349 868.900552791 16.7922567586 868.90494392 16.7902946007 868.909342605C16.7883324427 868.913741289 16.7864411031 868.918147529 16.7846200578 868.92255664C16.7828605882 868.926816664 16.7811667395 868.93107937 16.7795380391 868.935340532C16.7778160277 868.939845824 16.7761668434 868.94434939 16.7745899275 868.948846239C16.7729848524 868.953423389 16.7714546498 868.957993579 16.7699987306 868.962551545C16.7685655602 868.967038293 16.7672043699 868.971513196 16.7659145981 868.975971232C16.7646830451 868.980228037 16.7635166085 868.984469463 16.762414799 868.988691139C16.761299217 868.992965586 16.7602498879 868.997219785 16.7592663041 869.001449199C16.758200755 869.006031065 16.7572123652 869.010583841 16.7563004892 869.01510176C16.7554456054 869.019337309 16.7546579701 869.023542221 16.7539370513 869.027711742C16.7531440407 869.032298215 16.752431757 869.036841865 16.7517994924 869.041336364C16.7511672277 869.045830863 16.7506149821 869.050276212 16.7501420475 869.054666082C16.749638632 869.059338882 16.7492250803 869.063948821 16.7489005385 869.06848827C16.7485714327 869.073091554 16.7483338579 869.07762235 16.7481869235 869.082072699C16.7480404066 869.086510406 16.7479840158 869.090868123 16.7480168684 869.09513796C16.7480516031 869.099652423 16.7481860999 869.104068647 16.7484193154 869.108377307C16.7486863679 869.113311108 16.7490828631 869.118103867 16.7496072344 869.122741582C16.7501079361 869.127169956 16.7507252301 869.131456968 16.7514577523 869.135590425C16.7523230442 869.140473073 16.75334912 869.145141459 16.7545337315 869.14957549C16.7558558425 869.154524187 16.757375428 869.159180967 16.7590893627 869.163517899C16.7609746907 869.168288524 16.7630951812 869.172672131 16.7654466741 869.176631541C16.767798167 869.180590951 16.7703806623 869.184126164 16.77319 869.1872C16.7781812224 869.192664486 16.7889699189 869.201668465 16.804800495 869.21370651C16.8140890173 869.220769781 16.8251133101 869.228877591 16.8377207438 869.237927845C16.8481612748 869.245422587 16.8596875097 869.253563648 16.872212767 869.262293045C16.883056722 869.26985067 16.8946494968 869.277849284 16.9069348406 869.286251261C16.9178889939 869.293742833 16.9293937596 869.301555091 16.9414092624 869.309661359C16.9522382344 869.316967134 16.9634820534 869.324511721 16.975111529 869.332275593C16.9861439557 869.339640873 16.9975234569 869.347203501 17.0092251111 869.354946807C17.0203459847 869.362305794 17.0317578266 869.369827968 17.0434392448 869.377499021C17.0545896895 869.38482139 17.0659857607 869.39227941 17.077608853 869.399860637C17.0892319452 869.407441864 17.1010820587 869.415146296 17.1131405879 869.42296149C17.1246538878 869.430423318 17.1363571824 869.437986117 17.1482342778 869.445639054C17.1595678901 869.452941802 17.1710597611 869.460326627 17.1826958199 869.467784119C17.1943379392 869.475245495 17.2061243964 869.482779612 17.2180410984 869.490377043C17.22959088 869.497740547 17.2412630093 869.505163526 17.2530446554 869.512637398C17.2646615909 869.520006783 17.2763850025 869.527425648 17.2882025899 869.534885764C17.299768382 869.54218693 17.3114243795 869.549527608 17.3231590516 869.556900085C17.3346680569 869.564130785 17.3462527399 869.571392073 17.3579022226 869.578676672C17.369369682 869.58584745 17.3808999319 869.593040816 17.392482596 869.600249831C17.4043410377 869.607630489 17.4162544194 869.61502755 17.4282116057 869.622433564C17.440168792 869.629839578 17.452169783 869.637254546 17.4642034436 869.644671019C17.4758106281 869.65182465 17.4874482075 869.658979682 17.4991061892 869.666129431C17.5108880369 869.673355145 17.5226907228 869.680575463 17.5345039321 869.687783485C17.5465280916 869.695120221 17.5585631537 869.702444218 17.5705982415 869.7097482C17.582445281 869.716938057 17.5942923452 869.72410852 17.6061290591 869.731252648C17.6179965978 869.738415381 17.629853732 869.745551642 17.6416900055 869.752654436C17.6534690351 869.759722879 17.6652274051 869.766758179 17.6769548102 869.773753441C17.6890340374 869.780958562 17.7010804139 869.788121207 17.7130826785 869.795233845C17.7248974078 869.802235347 17.736669393 869.809188392 17.7483878927 869.816085795C17.7603854043 869.823147422 17.7723268532 869.830150725 17.7842007122 869.837087994C17.7960745713 869.844025263 17.8078808406 869.850896498 17.8196079931 869.857693988C17.831483902 869.864577703 17.8432786741 869.87138579 17.8549803382 869.878110242C17.8671349432 869.88509498 17.8791890927 869.891989483 17.8911293708 869.898784777C17.9031965143 869.90565227 17.9151473538 869.912418435 17.9269680412 869.919074008C17.9389998124 869.925848431 17.9508967415 869.932508277 17.9626442254 869.939043777C17.9748505955 869.945834571 17.9868956168 869.952491115 17.9987629071 869.959002451C18.0109961705 869.96571459 18.0230405719 869.972272426 18.0348781659 869.978663957C18.0475440698 869.985502721 18.0599732121 869.992151091 18.0721436106 869.998594363C18.0845675592 870.005171871 18.0967218708 870.011535645 18.1085831607 870.017670045C18.1212228478 870.024207015 18.1335297922 870.030483516 18.1454756967 870.036480621C18.1581923047 870.042864636 18.1704997842 870.04893204 18.182364 870.05466C18.2074984614 870.066795338 18.2314290135 870.079712276 18.2541862366 870.093364581C18.2781721918 870.107754015 18.3008546943 870.122960367 18.3222695501 870.138929503C18.3444694458 870.155484047 18.3653070508 870.172858323 18.3848222553 870.190992023C18.405496175 870.210202411 18.424685997 870.230265082 18.442439147 870.251108331C18.4602385292 870.272005859 18.4765937469 870.293688037 18.4915525974 870.316082599C18.5070345624 870.339260305 18.5210207898 870.36320109 18.5335642686 870.387824842C18.5460587494 870.412352406 18.5571217311 870.437557611 18.566805584 870.463361277C18.576364897 870.488833092 18.5845803259 870.514888075 18.5915022464 870.54145006C18.5983436795 870.567703185 18.603921511 870.594451591 18.6082843796 870.62162174C18.6126472481 870.648791888 18.6157951539 870.67638378 18.6177767355 870.704323878C18.6196955625 870.731379141 18.6205207683 870.758760905 18.6202965154 870.786402398C18.6200781555 870.813317518 18.6188647685 870.840478896 18.616697126 870.86782489C18.6145283545 870.895185126 18.6114043332 870.922730171 18.6073658977 870.950398284C18.6034518074 870.977214484 18.5986787462 871.00414629 18.5930838927 871.031137492C18.5875672567 871.057751351 18.5812516453 871.084422956 18.5741726995 871.111098422C18.5672445835 871.137205519 18.5595853148 871.163316315 18.5512283043 871.189380294C18.5429039384 871.215342461 18.5338872712 871.241258178 18.5242113233 871.267077519C18.5146598138 871.292564809 18.5044658721 871.317958186 18.4936612613 871.343209628C18.4829822855 871.368167449 18.4717067597 871.392986615 18.4598653518 871.417620761C18.4480239438 871.442254907 18.4356166538 871.466704032 18.4226741496 871.490921769C18.4097963809 871.515018374 18.3963887387 871.5388859 18.382481433 871.562478672C18.3684263621 871.586322117 18.3538609535 871.609884938 18.3388163904 871.633119989C18.3239817123 871.656030891 18.3086811558 871.678623104 18.292944617 871.700851428C18.2771059573 871.723224001 18.2608256384 871.745227947 18.2441341425 871.766817179C18.2275298875 871.788293571 18.2105187424 871.809359574 18.1931307138 871.82996982C18.1753219003 871.851078828 18.1571177415 871.871709753 18.1385504758 871.891813855C18.1200238261 871.911873979 18.1011356562 871.931409581 18.0819179933 871.950372241C18.0621869554 871.969841463 18.0421085854 871.988706722 18.0217175463 872.006915611C18.0008410062 872.025558044 17.9796367308 872.043512479 17.9581419184 872.060722675C17.9366471059 872.077932871 17.9148617564 872.094398829 17.8928230682 872.110064306C17.8704838333 872.125943417 17.8478843028 872.141000067 17.8250632179 872.155175683C17.8016911418 872.169693554 17.7780866837 872.183287334 17.7542914589 872.195894104C17.72973948 872.208901805 17.7049844077 872.220858718 17.6800719554 872.231695729C17.6548898947 872.242650021 17.6295470292 872.252460039 17.6040905726 872.261054402C17.5777192746 872.269957624 17.5512260745 872.277556245 17.5246634613 872.283770906C17.4977006302 872.290079202 17.4706662785 872.294961521 17.443615304 872.29833486C17.4164317266 872.301724735 17.389231363 872.303590801 17.3620699219 872.303848831C17.334696282 872.304108877 17.3073621752 872.302735663 17.2801246263 872.299642972C17.2532037931 872.296586244 17.2263772853 872.291849794 17.1997001613 872.28535038C17.1730230374 872.278850966 17.1464952975 872.270588587 17.120172 872.26048C17.105614245 872.254889707 17.0910141603 872.249060194 17.0763790882 872.243004366C17.0618329445 872.236985336 17.0472522374 872.230742733 17.0326441761 872.224289232C17.018458379 872.218022276 17.0042467863 872.211556438 16.9900159998 872.204903323C16.975741416 872.198229732 16.9614475202 872.191367709 16.9471409754 872.184328968C16.9330344399 872.177388629 16.9189156067 872.170276479 16.9047908634 872.163003745C16.8909670734 872.15588597 16.8771376224 872.148614382 16.8633084982 872.141199506C16.8497453188 872.133927224 16.8361824538 872.126517112 16.8226255523 872.118979102C16.8089627375 872.111382201 16.7953059797 872.103655395 16.7816610613 872.095808848C16.7681748049 872.088053541 16.7547001141 872.080181262 16.7412425722 872.072201825C16.7277850303 872.064222389 16.7143446372 872.056135795 16.7009269761 872.047951858C16.6873134171 872.039648436 16.6737232586 872.031244808 16.6601623319 872.022751224C16.6470414834 872.014533274 16.6339480001 872.006231112 16.6208871639 871.997854023C16.6075930985 871.989327344 16.5943328564 871.980723037 16.5811120076 871.972050895C16.5680977345 871.963514255 16.5551216331 871.954911882 16.5421890163 871.946253116C16.5292227208 871.937571802 16.5163001365 871.9288338 16.5034266179 871.920048523C16.4906153596 871.911305735 16.4778526935 871.902516127 16.4651438967 871.893688978C16.4520538359 871.884597014 16.439020925 871.875465221 16.4260509304 871.866303736C16.413283592 871.8572854 16.400577219 871.848238292 16.3879373118 871.839172082C16.3749964544 871.829890009 16.3621252655 871.820587914 16.3493296476 871.811276172C16.3365340298 871.80196443 16.323813983 871.792643041 16.3111754098 871.783322381C16.298419854 871.773915449 16.285747287 871.76450926 16.2731637769 871.755114481C16.2603344951 871.74553621 16.2475977829 871.735969798 16.2349600709 871.726426551C16.2223991505 871.716941292 16.2099360309 871.707478916 16.197577026 871.698050523C16.1852115841 871.68861722 16.1729503654 871.679217934 16.1607996938 871.669863783C16.1484033285 871.660320486 16.1361220261 871.650824167 16.123962502 871.641386632C16.1116509839 871.631831128 16.0994643076 871.622335885 16.0874094434 871.612913158C16.0747581145 871.603024202 16.0622519644 871.593215115 16.0498990499 871.583500059C16.0372161433 871.573525479 16.0246947688 871.563650022 16.0123436464 871.553889016C15.9996984496 871.543895606 15.9872317088 871.534022163 15.9749527819 871.524285137C15.9626738549 871.51454811 15.9505827418 871.504947502 15.9386888005 871.49549976C15.9262314233 871.485604463 15.913990341 871.47587686 15.9019763055 871.466335851C15.889374225 871.456327843 15.8770219616 871.446525142 15.8649319243 871.436949562C15.8521998591 871.426865483 15.83975861 871.417033286 15.8276226699 871.407478451C15.8148907685 871.397454405 15.802494898 871.38773563 15.7904517932 871.378351542C15.7777187188 871.368429825 15.7653799889 871.358882244 15.7534553823 871.349743568C15.7405592397 871.339860334 15.7281474493 871.33045535 15.7162450286 871.321572593C15.7028876246 871.311603984 15.6901717354 871.302293084 15.6781327207 871.29370205C15.6645375265 871.284000527 15.6518055038 871.275217 15.6399875728 871.267440981C15.6249074005 871.257518458 15.6113156276 871.249236442 15.599318054 871.242780918C15.5806018391 871.232710302 15.5657652677 871.227084638 15.55521 871.22661C15.5509796472 871.226412532 15.5467091745 871.226315798 15.5424042986 871.226321347C15.53802255 871.226326996 15.5336051588 871.226438614 15.5291581535 871.226657837C15.525267024 871.226849657 15.5213532212 871.227123862 15.5174207841 871.227481548C15.5131196809 871.227872766 15.5087962857 871.228363852 15.5044558829 871.228956237C15.5004274465 871.229506045 15.4963843595 871.230143115 15.4923308469 871.230868592C15.4880585367 871.231633228 15.483774645 871.232496073 15.4794841185 871.233458469C15.4756532913 871.234317752 15.4718171749 871.235256395 15.4679792903 871.236275356C15.4643812735 871.237230631 15.4607817025 871.238256496 15.4571834787 871.23935374C15.4532254325 871.240560707 15.4492690163 871.241854042 15.4453180916 871.24323479C15.4413671669 871.244615539 15.4374217337 871.246083702 15.4334856535 871.247640326C15.4295273447 871.249205741 15.4255784948 871.25086062 15.4216430312 871.252606028C15.4176372914 871.254382603 15.4136454202 871.25625297 15.4096715591 871.258218251C15.4061944306 871.259937871 15.402731091 871.261730161 15.3992843149 871.263595872C15.3955144035 871.265636493 15.3917643066 871.267764947 15.3880376547 871.269982218C15.3845788558 871.272040124 15.3811402527 871.274174538 15.3777247477 871.276386249C15.374124883 871.278717341 15.3705506773 871.2811343 15.3670055288 871.283638046C15.3638402176 871.285873534 15.3606980705 871.288178208 15.3575815064 871.290552725C15.3546597275 871.292778835 15.3517604336 871.29506633 15.3488856177 871.29741575C15.3457233202 871.300000113 15.342590641 871.302659406 15.3394902329 871.305394348C15.3363898247 871.308129291 15.3333216876 871.310939883 15.3302884742 871.313826844C15.3272450732 871.316723502 15.3242368308 871.319697042 15.3212664267 871.322748193C15.3182429795 871.325853828 15.315258734 871.32903987 15.3123165157 871.332307084C15.3097420747 871.335165897 15.3071998108 871.338086858 15.3046916169 871.341070479C15.3019482798 871.344333816 15.2992457003 871.347672113 15.2965863552 871.351086044C15.2941181505 871.354254598 15.2916871886 871.357488304 15.2892954497 871.360787698C15.2867746113 871.364265184 15.2842973445 871.367815642 15.2818659677 871.3714397C15.2796950956 871.374675466 15.2775608067 871.377969905 15.2754647514 871.381323466C15.2734996995 871.384467429 15.2715682514 871.387663355 15.2696717666 871.390911611C15.2675856334 871.394484692 15.265541806 871.398121094 15.2635420942 871.401821307C15.2615423824 871.40552152 15.2595867862 871.409285545 15.2576771155 871.413113871C15.2558160365 871.416844785 15.2539985756 871.420636771 15.2522264079 871.424490283C15.2504225943 871.428412607 15.248665706 871.432398674 15.2469575095 871.436448963C15.2454628376 871.439992965 15.2440054454 871.443586138 15.2425865162 871.447228802C15.2410345625 871.451212965 15.2395286218 871.455256334 15.2380702425 871.459359328C15.2365936334 871.463513609 15.2351657823 871.467729016 15.2337882963 871.472005984C15.2324825545 871.476060194 15.231222068 871.480169719 15.2300082059 871.484334931C15.2289244005 871.488053871 15.2278777638 871.491817203 15.2268692702 871.495625194C15.2259238074 871.499195185 15.2250118688 871.502804426 15.2241342573 871.506453134C15.2231688847 871.510466714 15.2222450478 871.514528049 15.2213638154 871.51863743C15.2204825829 871.522746811 15.2196439549 871.526904238 15.218849 871.53111C15.2158819413 871.546809281 15.2146296906 871.566730291 15.2151319008 871.59049342C15.2155080466 871.608291552 15.2168683968 871.628245006 15.2192296117 871.650194286C15.2212034398 871.668542513 15.2238766637 871.688285405 15.2272590155 871.709329794C15.2302884098 871.728178145 15.2338866554 871.748070536 15.2380607443 871.768940026C15.2418833692 871.788052277 15.2461889466 871.807984009 15.2509828469 871.828683808C15.2553805015 871.847672639 15.2601890894 871.867307813 15.2654127566 871.887549641C15.2702569633 871.906321051 15.2754581348 871.925614178 15.2810195775 871.945397368C15.2863049927 871.964198672 15.2919158043 871.9834426 15.2978548505 872.003101983C15.3037010991 872.022454187 15.3098654052 872.042208965 15.3163504757 872.062340398C15.3224425117 872.081251744 15.3288176099 872.100495475 15.3354780144 872.120050105C15.3419312519 872.138996503 15.3486523233 872.15823476 15.3556432698 872.177745337C15.3622697906 872.196238861 15.3691387836 872.214977053 15.3762519873 872.233943271C15.3833105153 872.252763705 15.3906095141 872.271808673 15.3981506823 872.291061914C15.4054048484 872.309582414 15.4128831016 872.328295636 15.4205869539 872.347187105C15.4281218214 872.365664188 15.4358724995 872.384311784 15.4438404026 872.403116351C15.4517211569 872.421715243 15.4598144104 872.440467691 15.4681215319 872.459360592C15.4761330007 872.477581089 15.4843433851 872.49593222 15.4927539128 872.51440223C15.5010768309 872.532679845 15.5095957444 872.551073876 15.518311843 872.569572934C15.5266317553 872.587231125 15.5351313343 872.604985012 15.5438116146 872.622824689C15.5524918949 872.640664366 15.5613528765 872.658589833 15.5703955943 872.676591183C15.5793950602 872.694506432 15.588574528 872.71249684 15.5979350174 872.730552643C15.6072386289 872.748498732 15.6167210689 872.766509424 15.6263833389 872.78457513C15.6357663089 872.802118625 15.6453188628 872.819714 15.6550419176 872.837352475C15.6647948966 872.855045236 15.6747194277 872.872781362 15.6848164365 872.890551993C15.6947722864 872.908074185 15.7048958252 872.925629924 15.7151879402 872.943210715C15.7252607629 872.960416915 15.7354950547 872.977647111 15.7458916475 872.994893339C15.7560883057 873.011807908 15.7664410825 873.028737899 15.7769507627 873.045675799C15.7875425498 873.062746026 15.7982937013 873.079824286 15.8092050207 873.096902888C15.8199894643 873.113782902 15.8309303725 873.13066325 15.8420285209 873.147536508C15.8531266694 873.164409766 15.864382058 873.181275934 15.8757954625 873.198127586C15.8869314907 873.214569698 15.8982179477 873.230997991 15.9096555538 873.247405569C15.9211172174 873.263847659 15.9327306666 873.280268946 15.9444966264 873.29666249C15.9563687715 873.313203982 15.9683961924 873.329717228 15.9805796339 873.346195099C15.9924789681 873.36228872 16.0045271311 873.378348596 16.016724817 873.394368084C16.0288516758 873.410294553 16.0411263261 873.426181102 16.0535494495 873.442021204C16.0660493147 873.457959155 16.078699493 873.473850082 16.0915006791 873.489687337C16.1040556886 873.505220028 16.1167559537 873.520701092 16.1296021297 873.536124254C16.1425486664 873.55166791 16.1556434028 873.567152756 16.1688870096 873.58257237C16.181976621 873.597812687 16.1952116608 873.612989282 16.2085927767 873.628095953C16.2219738925 873.643202625 16.2355010844 873.658239374 16.249175 873.6732C16.2648137865 873.690310549 16.2806006072 873.706809345 16.2965259214 873.722716742C16.3129110357 873.739083421 16.3294427562 873.754824058 16.3461106915 873.769960821C16.3633896509 873.785652477 16.3808149951 873.800695173 16.3983751476 873.815113606C16.4159444461 873.829539548 16.4336486933 873.843340577 16.4514762947 873.856541427C16.4701190829 873.8703459 16.4888967642 873.883494053 16.5077960797 873.89601417C16.5271527529 873.908837271 16.5466370185 873.921001572 16.5662346315 873.932537463C16.5857893748 873.94404812 16.6054569702 873.954933113 16.6252232659 873.965222634C16.6455175927 873.975787026 16.6659159635 873.985723705 16.686403062 873.995065348C16.7073779486 874.004629411 16.7284458382 874.013569765 16.7495902942 874.021921474C16.7707347502 874.030273184 16.7919557725 874.03803625 16.8132369245 874.045245737C16.8351055521 874.052654245 16.8570376749 874.05947819 16.8790154571 874.06575562C16.9012267533 874.072099748 16.9234846842 874.077885688 16.9457708395 874.083152714C16.967746083 874.088346261 16.9897487689 874.093035272 17.0117612464 874.097257404C17.0342286189 874.101566787 17.0567061919 874.105389793 17.0791751979 874.108766462C17.1017027169 874.112151925 17.1242216241 874.115088721 17.1467130048 874.117617204C17.1690956103 874.120133458 17.191450955 874.122245337 17.2137603972 874.123992612C17.2367391227 874.125792305 17.2596691504 874.127205189 17.2825301101 874.128274719C17.3050338672 874.129327538 17.3274706979 874.130047651 17.349821172 874.130476508C17.3727038002 874.130915575 17.3954959106 874.131049353 17.4181766519 874.130922324C17.4408573932 874.130795295 17.4634267654 874.130407459 17.4858639172 874.1298033C17.5087247565 874.129187732 17.5314483347 874.128347594 17.5540125969 874.127329936C17.5772283409 874.126282896 17.6002754363 874.125047939 17.6231298623 874.123676308C17.6460323595 874.122301792 17.6687413758 874.120790027 17.6912327384 874.119192584C17.7139270808 874.117580724 17.736399823 874.115881631 17.758626132 874.114148284C17.7815075489 874.112363847 17.8041277913 874.110543107 17.826459765 874.108743866C17.849758026 874.106866772 17.8727425321 874.105013079 17.8953825174 874.103248419C17.9183762525 874.101456186 17.9410146164 874.099755791 17.9632653784 874.098215994C17.986547556 874.096604821 18.0094053648 874.095169479 18.0318018813 874.09398874C18.0548214715 874.092775152 18.0773537458 874.091830531 18.0993586123 874.091240406C18.1227831475 874.090612208 18.145610027 874.090385724 18.1677908876 874.090664129C18.1914701858 874.090961342 18.2144132327 874.091833964 18.2365611866 874.093407525C18.2602250415 874.095088787 18.2829812394 874.097570224 18.3047580106 874.101004944C18.3278454209 874.104646384 18.3498319628 874.109359307 18.3706321127 874.115326167C18.3933822766 874.12185242 18.4147131727 874.129878744 18.4345128982 874.139643865C18.4553954212 874.149943017 18.4745747225 874.162176349 18.4919195181 874.176623936C18.509226372 874.191039918 18.5247067373 874.207660479 18.5382301897 874.22676386C18.55079255 874.244509591 18.5616662633 874.264397781 18.5707467832 874.286651465C18.5788117187 874.30641625 18.5854621393 874.328046995 18.5906247996 874.351699957C18.5951959051 874.372642684 18.5986006621 874.395170754 18.6007882285 874.419392631C18.6027184341 874.440764876 18.603701 874.463455829 18.603701 874.48754C18.603701 874.48754 18.603701 874.525586633 18.603701 874.594500148C18.603701 874.624293311 18.603701 874.659855696 18.603701 874.700607144C18.603701 874.733075647 18.603701 874.76883818 18.603701 874.807601313C18.603701 874.840887274 18.603701 874.876385781 18.603701 874.913911042C18.603701 874.948276624 18.603701 874.984342018 18.603701 875.021964522C18.603701 875.056477291 18.603701 875.092300398 18.603701 875.129323683C18.603701 875.163657503 18.603701 875.199023465 18.603701 875.235333716C18.603701 875.269841803 18.603701 875.305202769 18.603701 875.341341203C18.603701 875.376375976 18.603701 875.412141455 18.603701 875.448568926C18.603701 875.483875552 18.603701 875.51980406 18.603701 875.556291886C18.603701 875.591333604 18.603701 875.626891186 18.603701 875.662909215C18.603701 875.697980747 18.603701 875.733488846 18.603701 875.769382351C18.603701 875.804766429 18.603701 875.840525052 18.603701 875.876609205C18.603701 875.912184242 18.603701 875.94807569 18.603701 875.98423658C18.603701 876.019486757 18.603701 876.054992976 18.603701 876.09071173C18.603701 876.126154639 18.603701 876.161806812 18.603701 876.197625744C18.603701 876.232755849 18.603701 876.268046361 18.603701 876.303457177C18.603701 876.33914464 18.603701 876.374954295 18.603701 876.410845092C18.603701 876.446318554 18.603701 876.481871283 18.603701 876.517463646C18.603701 876.553056008 18.603701 876.588688004 18.603701 876.62432C18.603701 876.659817321 18.603701 876.695314643 18.603701 876.730772778C18.603701 876.766109366 18.603701 876.801407036 18.603701 876.836627004C18.603701 876.872216395 18.603701 876.907726446 18.603701 876.94311714C18.603701 876.978890839 18.603701 877.014542584 18.603701 877.050031044C18.603701 877.085919541 18.603701 877.12164105 18.603701 877.157152828C18.603701 877.192796557 18.603701 877.228228993 18.603701 877.263406913C18.603701 877.299398098 18.603701 877.335122864 18.603701 877.37053492C18.603701 877.406892964 18.603701 877.442921367 18.603701 877.478570031C18.603701 877.5144972 18.603701 877.550038673 18.603701 877.585143166C18.603701 877.621362088 18.603701 877.657115845 18.603701 877.692348114C18.603701 877.728290406 18.603701 877.763689979 18.603701 877.798487035C18.603701 877.834521017 18.603701 877.869908886 18.603701 877.904584236C18.603701 877.940956824 18.603701 877.976545436 18.603701 878.011273432C18.603701 878.047845619 18.603701 878.08346336 18.603701 878.118037143C18.603701 878.155064404 18.603701 878.190894286 18.603701 878.225416838C18.603701 878.262369509 18.603701 878.29782432 18.603701 878.33164643C18.603701 878.369910426 18.603701 878.406084712 18.603701 878.439974039C18.603701 878.478367869 18.603701 878.513828945 18.603701 878.546073351C18.603701 878.587576715 18.603701 878.623750852 18.603701 878.653990317C18.603701 878.722998326 18.603701 878.7611 18.603701 878.7611C18.6037164399 878.77613779 18.6040234214 878.791107229 18.604616595 878.806002972C18.605216071 878.821056982 18.6061078529 878.836035723 18.6072864186 878.850933678C18.6084860301 878.866097667 18.6099827591 878.881177959 18.6117707825 878.896168737C18.6135308679 878.910925284 18.6155732159 878.925595092 18.6178922719 878.940172613C18.620217367 878.954788096 18.6228206133 878.969310809 18.6256964126 878.983735162C18.6285583036 878.998089754 18.6316901178 879.012346933 18.635086338 879.026501189C18.6385844448 879.041080073 18.6423630598 879.055549765 18.6464161544 879.069904243C18.6504059194 879.084034432 18.6546616535 879.098052979 18.6591776061 879.111954139C18.6638010813 879.12618628 18.668697314 879.140295377 18.6738601329 879.154275267C18.6790229517 879.168255157 18.6844523568 879.182105839 18.690142177 879.195821148C18.695783577 879.20941974 18.7016809786 879.222885254 18.707828367 879.236211681C18.7140410713 879.249679701 18.7205091029 879.263005663 18.7272262528 879.276183363C18.7340633519 879.28959638 18.7411585459 879.302855794 18.7485052876 879.315955064C18.7557372364 879.328849658 18.7632129335 879.341589073 18.7709261336 879.354167071C18.7786594201 879.366777825 18.7866314483 879.37922632 18.794835924 879.391506268C18.8033273122 879.404215649 18.8120676897 879.416744488 18.8210500787 879.429085817C18.8298597295 879.441189812 18.8389021732 879.453113438 18.8481708269 879.46485012C18.8572946578 879.476403415 18.866637685 879.487775562 18.8761936292 879.498960288C18.8859770959 879.510411317 18.8959837392 879.521665893 18.9062068208 879.532717286C18.9164299024 879.543768678 18.9268694223 879.554616887 18.937518642 879.56525518C18.9481823869 879.575907984 18.9590564041 879.586350299 18.9701339276 879.596575367C18.9808519642 879.606468611 18.9917605131 879.61615848 19.0028534458 879.62563885C19.0141444666 879.635288513 19.0256265152 879.644721129 19.0372931289 879.653930242C19.0487774518 879.662995462 19.0604406172 879.671844109 19.0722764607 879.680470025C19.0841431268 879.689118404 19.0961833715 879.697542891 19.1083909821 879.705737278C19.1210254958 879.714218225 19.1338392858 879.722452698 19.1468254646 879.730433817C19.1595619091 879.738261453 19.1724641758 879.745845386 19.1855257669 879.753179123C19.1983832706 879.760398271 19.2113951587 879.767374982 19.2245552333 879.774103064C19.238028643 879.780991339 19.2516573796 879.787619004 19.265434792 879.793979416C19.2792122044 879.800339828 19.2931382925 879.806432987 19.3072064051 879.812252247C19.3208128652 879.817880545 19.3345521814 879.823252627 19.3484183361 879.82836248C19.3623136565 879.833483081 19.3763363494 879.83834035 19.3904803591 879.842928236C19.4043195411 879.847417245 19.4182748671 879.851648359 19.4323406644 879.85561591C19.446955907 879.859738443 19.4616904201 879.863576421 19.4765378401 879.867123486C19.4911776893 879.870620962 19.5059273105 879.873835602 19.5207806032 879.876761312C19.5353174194 879.879624685 19.5499535365 879.882211309 19.5646832354 879.884515471C19.579129671 879.886775323 19.5936661238 879.888763472 19.6082871987 879.89047453C19.6230225008 879.892198955 19.6378437523 879.893641942 19.6527454307 879.894797974C19.6674738338 879.895940563 19.6822808043 879.896802832 19.6971610099 879.897379453C19.7120412155 879.897956075 19.7269946562 879.898247049 19.742016 879.898247049C19.7570537951 879.898247049 19.7720235384 879.897955437 19.7869198802 879.897377558C19.8019744956 879.896793539 19.8169541414 879.895917136 19.8318532955 879.894753867C19.847018506 879.893569826 19.8621003245 879.892088581 19.8770929277 879.890315949C19.8918512715 879.888571016 19.9065231662 879.88654373 19.9211030575 879.884239643C19.9357209171 879.881929554 19.9502462935 879.87934122 19.9646735885 879.876480232C19.9790311087 879.87363308 19.9932914939 879.870515906 20.007449227 879.867134219C20.0220316921 879.863651082 20.0365052536 879.859887325 20.0508638828 879.85584897C20.0649981584 879.851873715 20.0790210652 879.847632376 20.0929268526 879.843130697C20.1071637302 879.838521837 20.121277845 879.833640092 20.1352630258 879.828491629C20.1492482065 879.823343165 20.1631044533 879.817927983 20.1768255949 879.812252247C20.19042997 879.806624811 20.2039015296 879.800741237 20.2172342588 879.794607534C20.2307086483 879.78840866 20.2440412415 879.781954313 20.2572258297 879.775250695C20.270645857 879.76842737 20.2839125463 879.761345792 20.2970193502 879.754012503C20.3099213603 879.746793796 20.3226684424 879.739331181 20.3352543514 879.731630898C20.3478730362 879.723910562 20.3603297072 879.715951318 20.3726180706 879.707759454C20.3853361609 879.699281118 20.397873966 879.690553607 20.4102245083 879.681583893C20.4223375402 879.672786673 20.4342704423 879.663756474 20.4460166318 879.654499874C20.457579287 879.645387909 20.4689610189 879.636056561 20.4801555481 879.626512104C20.4916166138 879.616740398 20.5028814564 879.606745314 20.5139433375 879.596533583C20.5250052186 879.586321851 20.5358641383 879.575893473 20.546513358 879.56525518C20.5571771029 879.554602376 20.5676305755 879.543739084 20.5778670097 879.532672063C20.587771252 879.521964188 20.5974723141 879.511065592 20.6069640674 879.499982397C20.6166253163 879.488701288 20.6260697145 879.477228928 20.6352907993 879.465571774C20.6443678046 879.454096763 20.6532284205 879.442442686 20.6618664827 879.430615704C20.6705270398 879.418757921 20.6789638825 879.406726331 20.687170798 879.394527138C20.6956647114 879.381901336 20.7039123352 879.369096005 20.7119067819 879.356118026C20.7197474893 879.343389623 20.7273446635 879.330495147 20.7346918069 879.317441091C20.7419241511 879.304591004 20.7489142169 879.291586283 20.7556558063 879.278433121C20.7625579097 879.264966789 20.7691995636 879.251344862 20.7755741168 879.237573985C20.78194867 879.223803108 20.7880561225 879.209883281 20.793889823 879.195821148C20.7995320876 879.182220472 20.804918272 879.168486676 20.8100423585 879.154625772C20.8151772229 879.140735715 20.8200488856 879.126718014 20.824651291 879.11257872C20.8291545067 879.098744152 20.8333999458 879.084793175 20.8373819358 879.070731456C20.8415194723 879.056120451 20.8453725757 879.041389884 20.8489348823 879.026546111C20.852447387 879.011909858 20.8556771689 878.997163543 20.8586181276 878.982313259C20.8614964238 878.967779388 20.8640980735 878.953145932 20.8664173578 878.938418604C20.8686920405 878.923974494 20.8706951136 878.909440087 20.872421182 878.894820774C20.8741607353 878.880087248 20.8756189387 878.865267483 20.8767902697 878.850366997C20.8779479806 878.835639772 20.8788254517 878.820833692 20.8794173508 878.805954084C20.8800092499 878.791074475 20.880315577 878.776121339 20.880331 878.7611C20.880331 878.7611 20.880331 878.712493671 20.880331 878.624453478C20.880331 878.586391338 20.880331 878.540958751 20.880331 878.488896897C20.880331 878.447416886 20.880331 878.401728601 20.880331 878.352206911C20.880331 878.309682561 20.880331 878.264331581 20.880331 878.216391329C20.880331 878.172926749 20.880331 878.127333796 20.880331 878.079789362C20.880331 878.035627292 20.880331 877.989781527 20.880331 877.942393828C20.880331 877.898448492 20.880331 877.853177107 20.880331 877.80669273C20.880331 877.762013468 20.880331 877.716213593 20.880331 877.669393498C20.880331 877.624780424 20.880331 877.579241046 20.880331 877.532862217C20.880331 877.487910429 20.880331 877.442170055 20.880331 877.395720174C20.880331 877.350952763 20.880331 877.305526313 20.880331 877.25951162C20.880331 877.214706119 20.880331 877.169342886 20.880331 877.123487278C20.880331 877.078282485 20.880331 877.032599196 20.880331 876.986500025C20.880331 876.941649285 20.880331 876.896404883 20.880331 876.850824485C20.880331 876.805696331 20.880331 876.760238815 20.880331 876.714507904C20.880331 876.669130158 20.880331 876.623483224 20.880331 876.577621779C20.880331 876.532290883 20.880331 876.486750411 20.880331 876.441053166C20.880331 876.395474925 20.880331 876.349740727 20.880331 876.303902963C20.880331 876.258598197 20.880331 876.21319226 20.880331 876.167735738C20.880331 876.122279215 20.880331 876.076772108 20.880331 876.031265C20.880331 875.985915535 20.880331 875.94056607 20.880331 875.895266666C20.880331 875.849704545 20.880331 875.804193067 20.880331 875.758783171C20.880331 875.713367579 20.880331 875.668053594 20.880331 875.622892172C20.880331 875.577242003 20.880331 875.531747718 20.880331 875.486461945C20.880331 875.440665697 20.880331 875.395082688 20.880331 875.349767349C20.880331 875.303819512 20.880331 875.258146868 20.880331 875.212806157C20.880331 875.166996726 20.880331 875.121526126 20.880331 875.076452875C20.880331 875.030175551 20.880331 874.98431709 20.880331 874.938940825C20.880331 874.893210058 20.880331 874.847969052 20.880331 874.803282636C20.880331 874.757177603 20.880331 874.711662933 20.880331 874.666809826C20.880331 874.620891891 20.880331 874.575667303 20.880331 874.53121246C20.880331 874.484479884 20.880331 874.438597952 20.880331 874.393655411C20.880331 874.347265182 20.880331 874.30187584 20.880331 874.25758499C20.880331 874.210942123 20.880331 874.165517514 20.880331 874.121425159C20.880331 874.074203853 20.880331 874.028510593 20.880331 873.984485405C20.880331 873.936954942 20.880331 873.891368749 20.880331 873.847903031C20.880331 873.799861021 20.880331 873.754409501 20.880331 873.7117864C20.880331 873.662224045 20.880331 873.616486039 20.880331 873.574946465C20.880331 873.522146755 20.880331 873.476130112 20.880331 873.437664737C20.880331 873.349884779 20.880331 873.30143 20.880331 873.30143C20.880331 873.30143 20.880331 873.290099198 20.880331 873.269574221C20.880331 873.260503533 20.880331 873.24963717 20.880331 873.23715955C20.880331 873.227369025 20.880331 873.216586496 20.880331 873.204901053C20.880331 873.195224045 20.880331 873.184927826 20.880331 873.174062991C20.880331 873.163838626 20.880331 873.153110708 20.880331 873.141921402C20.880331 873.13183704 20.880331 873.121377915 20.880331 873.110574893C20.880331 873.100326491 20.880331 873.089768596 20.880331 873.078927562C20.880331 873.068624593 20.880331 873.058065893 20.880331 873.047274081C20.880331 873.036972807 20.880331 873.026459131 20.880331 873.015752728C20.880331 873.005046324 20.880331 872.994147194 20.880331 872.983075009C20.880331 872.972422599 20.880331 872.961610008 20.880331 872.950654755C20.880331 872.940200804 20.880331 872.929616949 20.880331 872.918918413C20.880331 872.908214305 20.880331 872.897395397 20.880331 872.886476935C20.880331 872.875894658 20.880331 872.865218864 20.880331 872.854463435C20.880331 872.843858369 20.880331 872.833175878 20.880331 872.822429271C20.880331 872.811911639 20.880331 872.801332594 20.880331 872.790704609C20.880331 872.780281008 20.880331 872.769810333 20.880331 872.759304351C20.880331 872.748470057 20.880331 872.737598216 20.880331 872.726701734C20.880331 872.716300547 20.880331 872.705876908 20.880331 872.695442044C20.880331 872.68500718 20.880331 872.67456109 20.880331 872.664115C20.880331 872.653729068 20.880331 872.643343137 20.880331 872.632968238C20.880331 872.621998944 20.880331 872.611041983 20.880331 872.600110395C20.880331 872.589679025 20.880331 872.579270759 20.880331 872.568896928C20.880331 872.557907151 20.880331 872.546956018 20.880331 872.536057002C20.880331 872.525649955 20.880331 872.515290425 20.880331 872.50499014C20.880331 872.494561102 20.880331 872.484192799 20.880331 872.473897405C20.880331 872.463092603 20.880331 872.452368103 20.880331 872.441737976C20.880331 872.430823879 20.880331 872.420009264 20.880331 872.409309361C20.880331 872.398354698 20.880331 872.387520273 20.880331 872.376822431C20.880331 872.366124588 20.880331 872.355563327 20.880331 872.345154991C20.880331 872.33444701 20.880331 872.323900886 20.880331 872.313534413C20.880331 872.302474143 20.880331 872.291618376 20.880331 872.280988726C20.880331 872.270481199 20.880331 872.260194623 20.880331 872.250149875C20.880331 872.239254984 20.880331 872.228644587 20.880331 872.218345322C20.880331 872.207540289 20.880331 872.197077697 20.880331 872.186988302C20.880331 872.17555891 20.880331 872.164608431 20.880331 872.154181577C20.880331 872.143135629 20.880331 872.132677333 20.880331 872.12285985C20.880331 872.111610651 20.880331 872.101202798 20.880331 872.091716265C20.880331 872.078869919 20.880331 872.06771306 20.880331 872.058444285C20.880331 872.038052979 20.880331 872.0268 20.880331 872.0268C20.880331 871.999390289 20.8822577602 871.967250627 20.8855249426 871.9308623C20.8881350154 871.901792547 20.8916005488 871.870011285 20.8956226018 871.835763894C20.8991193385 871.80598952 20.9030367153 871.774351145 20.9071782915 871.741010014C20.9109348305 871.710768566 20.9148758197 871.679126251 20.9188546711 871.646203393C20.9225501451 871.615625332 20.9262782801 871.583942635 20.9299216311 871.551251705C20.933313553 871.520816789 20.9366319889 871.489507997 20.9397821691 871.457403116C20.9428401708 871.426237669 20.9457396196 871.394322041 20.9483938238 871.361727393C20.9509162936 871.330750493 20.953217259 871.299160303 20.9552223063 871.267017904C20.95716612 871.235857126 20.9588318142 871.204177352 20.960151587 871.172034235C20.9614307515 871.140880138 20.9623849546 871.109290773 20.9629524625 871.077316814C20.9635130044 871.045735327 20.963696286 871.01377863 20.963442819 870.981495552C20.9631960127 870.950060822 20.9625351104 870.918316639 20.9614051912 870.886308084C20.9602913087 870.854753817 20.9587216281 870.822942629 20.9566435342 870.790917708C20.9545947604 870.759344632 20.9520518186 870.727563811 20.9489642893 870.695616633C20.9459199244 870.664116084 20.9423460926 870.632453796 20.9381944594 870.600669443C20.9341312843 870.569562313 20.9295146678 870.538338265 20.9242992998 870.50703449C20.9191043043 870.475852995 20.9133152259 870.444592395 20.9068872833 870.413289448C20.9005420078 870.382389075 20.8935741948 870.351447437 20.8859407687 870.320499891C20.8783961034 870.289912201 20.8702012143 870.25931874 20.8613145112 870.228753647C20.8524278081 870.198188554 20.8428492909 870.167651829 20.8325373693 870.137177611C20.8223434707 870.107052179 20.8114328597 870.076987831 20.7997653576 870.047017548C20.7884044588 870.017834835 20.7763259262 869.988741308 20.7634926659 869.959767413C20.7506527217 869.930778428 20.7370572635 869.9019092 20.7226691398 869.873190225C20.7085405444 869.844989274 20.6936476213 869.816933204 20.6779551932 869.789050889C20.6623718287 869.761362359 20.6460000338 869.733845178 20.6288053595 869.706527622C20.6121136892 869.680009199 20.5946465796 869.653678894 20.5763725173 869.627562572C20.5583274196 869.601773475 20.539495464 869.576193032 20.519846307 869.550846152C20.5004018288 869.525763302 20.4801570856 869.500909174 20.4590826722 869.476307904C20.4386518667 869.452457951 20.4174412931 869.428845648 20.3954241591 869.405492986C20.3740844753 869.382858868 20.351987102 869.36046866 20.3291076444 869.338342385C20.3063229203 869.316307725 20.282762575 869.294534817 20.2584025158 869.273043438C20.2349398807 869.252343801 20.2107353691 869.231905331 20.1857674541 869.211745699C20.1614389084 869.192102308 20.1363855567 869.172723656 20.1105874836 869.153626091C20.0851349203 869.134784297 20.0589574501 869.116216111 20.0320359471 869.097937232C20.0059136762 869.080201007 19.9790908938 869.062737167 19.9515501274 869.045560053C19.9250290429 869.029018912 19.8978421562 869.012743659 19.8699738645 868.996747101C19.8426901941 868.981086118 19.814753408 868.96569226 19.7861488649 868.950577545C19.7584115305 868.935921065 19.7300463143 868.921527058 19.701039867 868.907406482C19.67291927 868.893717146 19.6441960099 868.880284794 19.6148579232 868.867119412C19.5864225469 868.854359118 19.5574095974 868.841849617 19.527808 868.8296C19.5157127483 868.824595185 19.5035349134 868.819678323 19.4912782277 868.814848282C19.4789957617 868.810008082 19.4666341127 868.805255069 19.4541970368 868.800588105C19.4420280012 868.796021721 19.4297867547 868.791537717 19.4174768156 868.787135027C19.4046860194 868.782560357 19.3918210591 868.778073476 19.3788858816 868.77367319C19.3661315412 868.769334421 19.3533089331 868.765079841 19.3404218409 868.760908304C19.3278093316 868.75682565 19.3151350569 868.752822537 19.3024025635 868.748897891C19.2899149258 868.745048719 19.2773712872 868.741275025 19.2647749937 868.737575795C19.2523755173 868.733934366 19.2399250187 868.730365092 19.2274266897 868.726867005C19.2146307814 868.72328563 19.2017847379 868.719778874 19.1888919843 868.716345697C19.1759992308 868.712912521 19.1630597672 868.709552924 19.1500770188 868.706265869C19.1371284125 868.702987459 19.1241367488 868.699781209 19.1111054258 868.69664609C19.0984969943 868.693612712 19.0858514359 868.690645923 19.0731718285 868.68774479C19.0602657996 868.684791851 19.0473244948 868.681906935 19.0343511601 868.679089057C19.0215805337 868.676315208 19.0087788705 868.673606318 18.9959492666 868.670961451C18.9830862522 868.668309695 18.9701951514 868.665722295 18.9572790845 868.663198305C18.9439113396 868.66058605 18.9305168519 868.658041717 18.9170990808 868.655564258C18.9039393437 868.653134442 18.89075721 868.650768953 18.8775559432 868.648466801C18.8645609462 868.64620062 18.8515474094 868.643995812 18.8385184457 868.641851435C18.8251792685 868.639656001 18.8118239211 868.637523909 18.798455744 868.635454146C18.785087567 868.633384383 18.7717065602 868.63137695 18.7583160644 868.629430834C18.7448499467 868.627473727 18.7313742325 868.625578632 18.7178923193 868.623744519C18.7048479201 868.621969926 18.6917977177 868.620252422 18.6787447894 868.618591073C18.6654587732 868.616900057 18.6521699329 868.615267219 18.6388815138 868.613691578C18.6258007262 868.612140555 18.6127203468 868.610644955 18.5996434708 868.609203839C18.5865325405 868.60775897 18.5734251321 868.606368868 18.5603243651 868.60503259C18.5467654612 868.603649581 18.5332136714 868.602324225 18.5196724543 868.601055474C18.5063916452 868.599811121 18.4931210061 868.598621217 18.4798637998 868.597484773C18.4668137374 868.596366086 18.4537766912 868.5952992 18.4407557736 868.594283173C18.4274248342 868.593242956 18.4141108005 868.592256047 18.4008170124 868.591321436C18.3875232244 868.590386825 18.374249682 868.589504511 18.3609997252 868.588673482C18.3476760508 868.587837829 18.3343762251 868.587054034 18.3211036441 868.586321067C18.3076900419 868.585580312 18.2943042664 868.584891471 18.2809498231 868.584253481C18.2673569075 868.583604098 18.253796453 868.5830074 18.2402721562 868.582462265C18.2269591765 868.581925647 18.2136812332 868.581438995 18.2004418525 868.581001238C18.1871679942 868.580562342 18.1739328995 868.580172596 18.1607401218 868.579830925C18.1476111486 868.579490906 18.1345240842 868.579198498 18.1214824308 868.578952638C18.1080495278 868.578699403 18.0946648014 868.578495551 18.0813320786 868.578339923C18.0682076796 868.578186727 18.0551336718 868.578080259 18.0421137056 868.578019414C18.0287837402 868.57795712 18.0155104204 868.577942647 18.0022976637 868.577974807C17.9890849069 868.578006967 17.9759327132 868.57808576 17.962845 868.57821C17.962845 868.57821 17.962845 868.57821 17.962845 868.57821C17.962845 868.57821 17.962845 868.57821 17.962845 868.57821C17.962845 868.57821 17.962845 868.57821 17.962845 868.57821C17.962845 868.57821 17.962845 868.57821 17.962845 868.57821C17.962845 868.57821 17.962845 868.57821 17.962845 868.57821C17.962845 868.57821 17.962845 868.57821 17.962845 868.57821C17.962845 868.57821 17.962845 868.57821 17.962845 868.57821C17.962845 868.57821 17.962845 868.57821 17.962845 868.57821C17.962845 868.57821 17.962845 868.57821 17.962845 868.57821C17.962845 868.57821 17.962845 868.57821 17.962845 868.57821C17.962845 868.57821 17.962845 868.57821 17.962845 868.57821C17.962845 868.57821 17.962845 868.57821 17.962845 868.57821C17.962845 868.57821 17.962845 868.57821 17.962845 868.57821C17.962845 868.57821 17.962845 868.57821 17.962845 868.57821C17.962845 868.57821 17.962845 868.57821 17.962845 868.57821C17.962845 868.57821 17.962845 868.57821 17.962845 868.57821C17.962845 868.57821 17.962845 868.57821 17.962845 868.57821C17.962845 868.57821 17.962845 868.57821 17.962845 868.57821C17.962845 868.57821 17.962845 868.57821 17.962845 868.57821C17.962845 868.57821 17.962845 868.57821 17.962845 868.57821C17.962845 868.57821 17.962845 868.57821 17.962845 868.57821C17.962845 868.57821 17.962845 868.57821 17.962845 868.57821C17.962845 868.57821 17.962845 868.57821 17.962845 868.57821C17.962845 868.57821 17.962845 868.57821 17.962845 868.57821C17.962845 868.57821 17.962845 868.57821 17.962845 868.57821C17.962845 868.57821 17.962845 868.57821 17.962845 868.57821C17.962845 868.57821 17.962845 868.57821 17.962845 868.57821C17.962845 868.57821 17.962845 868.57821 17.962845 868.57821C17.962845 868.57821 17.962845 868.57821 17.962845 868.57821C17.962845 868.57821 17.962845 868.57821 17.962845 868.57821C17.962845 868.57821 17.962845 868.57821 17.962845 868.57821C17.962845 868.57821 17.962845 868.57821 17.962845 868.57821C17.962845 868.57821 17.962845 868.57821 17.962845 868.57821C17.962845 868.57821 17.962845 868.57821 17.962845 868.57821C17.962845 868.57821 17.962845 868.57821 17.962845 868.57821C17.962845 868.57821 17.962845 868.57821 17.962845 868.57821C17.962845 868.57821 17.962845 868.57821 17.962845 868.57821C17.962845 868.57821 17.962845 868.57821 17.962845 868.57821C17.962845 868.57821 17.962845 868.57821 17.962845 868.57821C17.962845 868.57821 17.962845 868.57821 17.962845 868.57821"
       id="path5018-1-3-2-1-4-7-5-6"
       style="fill:#000000;fill-opacity:1;stroke:none;stroke-width:0.08744323"
       inkscape:connector-curvature="0" />
    <path
       inkscape:connector-curvature="0"
       style="color:#000000;display:inline;overflow:visible;visibility:visible;fill:#000000;fill-opacity:1;stroke:none;stroke-width:0.15655832;marker:none;enable-background:accumulate"
       id="path7438-70-0-9-0-2"
       d="m 15.094684,863.44802 c -6.1272223,0 -11.0946837,4.96746 -11.0946837,11.09469 0,6.12721 4.9674614,11.09468 11.0946837,11.09468 6.127218,0 11.094684,-4.96747 11.094684,-11.09468 0,-6.12723 -4.967466,-11.09469 -11.094684,-11.09469 z m 0,1.52025 c 5.286845,0 9.571012,4.28759 9.571012,9.57444 0,5.28684 -4.284167,9.57101 -9.571012,9.57101 -5.2878864,0.034 -9.5002982,-4.89096 -9.5744352,-9.57101 0,-5.28685 4.2875955,-9.57444 9.5744402,-9.57444 z" />
    <path
       d="m 15.094684,863.44802 c -6.1272223,0 -11.0946837,4.96746 -11.0946837,11.09469 0,6.12721 4.9674614,11.09468 11.0946837,11.09468 6.127218,0 11.094684,-4.96747 11.094684,-11.09468 0,-6.12723 -4.967466,-11.09469 -11.094684,-11.09469 z m 0,1.52025 c 5.286845,0 9.571012,4.28759 9.571012,9.57444 0,5.28684 -4.284167,9.57101 -9.571012,9.57101 -5.2878864,0.034 -9.5002982,-4.89096 -9.5744352,-9.57101 0,-5.28685 4.2875955,-9.57444 9.5744402,-9.57444 z"
       id="path3981"
       style="color:#000000;display:inline;overflow:visible;visibility:visible;fill:#000000;fill-opacity:1;stroke:none;stroke-width:0.15655832;marker:none;enable-background:accumulate"
       inkscape:connector-curvature="0" />
    <path
       inkscape:connector-curvature="0"
       style="color:#000000;display:inline;overflow:visible;visibility:visible;fill:#000000;fill-opacity:1;stroke:none;stroke-width:0.15655832;marker:none;enable-background:accumulate"
       id="path3983"
       d="m 15.094684,863.44802 c -6.1272223,0 -11.0946837,4.96746 -11.0946837,11.09469 0,6.12721 4.9674614,11.09468 11.0946837,11.09468 6.127218,0 11.094684,-4.96747 11.094684,-11.09468 0,-6.12723 -4.967466,-11.09469 -11.094684,-11.09469 z m 0,1.52025 c 5.286845,0 9.571012,4.28759 9.571012,9.57444 0,5.28684 -4.284167,9.57101 -9.571012,9.57101 -5.2878864,0.034 -9.5002982,-4.89096 -9.5744352,-9.57101 0,-5.28685 4.2875955,-9.57444 9.5744402,-9.57444 z" />
    <g
       transform="matrix(0.01556018,0,0,0.01556018,-8.1058621,872.40307)"
       id="text4042"
       style="font-style:normal;font-weight:normal;font-size:45.48593521px;line-height:125%;font-family:Sans;letter-spacing:0px;word-spacing:0px;fill:#000000;fill-opacity:1;stroke:none">
      <path
         inkscape:connector-curvature="0"
         id="path3019"
         style="font-variant:normal;font-stretch:normal;font-size:341.14450073px;font-family:'Politics Head';-inkscape-font-specification:'Politics Head';text-align:center;text-anchor:middle;fill:#000000;fill-opacity:1;stroke:none"
         d="m 2324.4779,344.22882 c -3.7757,0 -5.6636,-1.88784 -5.6635,-5.66353 V 134.17842 c -1e-4,-3.77547 1.8878,-5.66331 5.6635,-5.66353 h 35.3138 c 3.7756,2.2e-4 5.6634,1.88806 5.6635,5.66353 v 72.79304 c -10e-5,3.77582 1.8878,5.66367 5.6635,5.66353 h 60.7997 c 3.7756,1.4e-4 5.6634,-1.88771 5.6635,-5.66353 v -72.79304 c -1e-4,-3.77547 1.8877,-5.66331 5.6636,-5.66353 h 35.3138 c 3.7755,2.2e-4 5.6633,1.88806 5.6635,5.66353 v 204.38687 c -2e-4,3.77569 -1.888,5.66353 -5.6635,5.66353 h -35.3138 c -3.7759,0 -5.6637,-1.88784 -5.6636,-5.66353 v -77.79028 c -1e-4,-3.7756 -1.8879,-5.66344 -5.6635,-5.66353 h -60.7997 c -3.7757,9e-5 -5.6636,1.88793 -5.6635,5.66353 v 77.79028 c -10e-5,3.77569 -1.8879,5.66353 -5.6635,5.66353 h -35.3138" />
      <path
         inkscape:connector-curvature="0"
         id="path3021"
         style="font-variant:normal;font-stretch:normal;font-size:341.14450073px;font-family:'Politics Head';-inkscape-font-specification:'Politics Head';text-align:center;text-anchor:middle;fill:#000000;fill-opacity:1;stroke:none"
         d="m 2589.6644,267.77114 h 39.145 c 2.8872,8e-5 4.0532,-1.16594 3.4981,-3.49806 l -19.1561,-71.96017 -0.8328,-6.82955 h -5.8301 l -0.8329,6.82955 -19.3227,71.96017 c -0.5553,2.33212 0.5552,3.49814 3.3315,3.49806 m 51.8047,42.47649 h -64.1312 c -2.11,3e-5 -3.387,0.66633 -3.8312,1.99889 l -7.829,29.48368 c -0.4442,1.66575 -1.5547,2.49862 -3.3315,2.49862 h -41.1439 c -2.5541,0 -3.8312,-0.83287 -3.8312,-2.49862 0,-0.99944 0.2221,-2.05441 0.6663,-3.16491 l 60.9663,-206.55234 c 0.6662,-2.33182 2.443,-3.49784 5.3304,-3.49806 h 50.472 c 2.8872,2.2e-4 4.664,1.16624 5.3304,3.49806 l 61.1328,207.88493 c 0.2219,0.66631 0.333,1.27708 0.3332,1.83232 -2e-4,1.66575 -1.2218,2.49862 -3.6647,2.49862 h -41.3104 c -1.777,0 -2.943,-0.83287 -3.4981,-2.49862 l -7.829,-29.48368 c -0.4443,-1.33256 -1.7214,-1.99886 -3.8312,-1.99889" />
      <path
         inkscape:connector-curvature="0"
         id="path3023"
         style="font-variant:normal;font-stretch:normal;font-size:341.14450073px;font-family:'Politics Head';-inkscape-font-specification:'Politics Head';text-align:center;text-anchor:middle;fill:#000000;fill-opacity:1;stroke:none"
         d="m 2800.2146,347.56031 c -22.9874,0 -40.1445,-5.16381 -51.4716,-15.49143 -11.216,-10.43864 -16.824,-25.31928 -16.824,-44.64195 v -100.4444 c 0,-18.54512 5.8301,-33.20366 17.4903,-43.97566 11.7713,-10.7716 28.7063,-16.15751 50.8053,-16.15772 h 23.9867 c 16.6573,2.1e-4 30.8161,3.88695 42.4765,11.66021 11.66,7.77367 19.4335,18.48995 23.3204,32.14887 0.6661,2.33221 0.9993,3.99796 0.9994,4.99723 -1e-4,1.66592 -0.9441,2.83194 -2.8317,3.49807 l -30.3166,10.99391 c -0.8885,0.3333 -1.7214,0.49988 -2.4986,0.49973 -2.5543,1.5e-4 -4.2756,-1.27692 -5.1638,-3.83122 -3.5537,-11.66004 -12.2156,-17.49014 -25.9856,-17.49032 h -23.9867 c -6.441,1.8e-4 -11.6603,2.22117 -15.658,6.66298 -3.9979,4.3311 -5.9968,9.66148 -5.9967,15.99115 v 90.44993 c -1e-4,6.66304 1.9433,12.10447 5.8301,16.3243 3.9977,4.21993 9.2725,6.32987 15.8246,6.32983 h 23.9867 c 13.4369,4e-5 22.0987,-5.83006 25.9856,-17.49032 0.8882,-2.55408 2.6095,-3.83115 5.1638,-3.83121 0.7772,6e-5 1.6101,0.16664 2.4986,0.49972 l 30.3166,10.99392 c 1.8876,0.66634 2.8316,1.83236 2.8317,3.49806 -1e-4,2.10999 -0.3333,4.33098 -0.9994,6.66298 -3.7759,13.43703 -11.4938,23.82016 -23.1539,31.14943 -11.5493,7.32927 -25.8191,10.99391 -42.8096,10.99391 h -23.8201" />
      <path
         inkscape:connector-curvature="0"
         id="path3025"
         style="font-variant:normal;font-stretch:normal;font-size:341.14450073px;font-family:'Politics Head';-inkscape-font-specification:'Politics Head';text-align:center;text-anchor:middle;fill:#000000;fill-opacity:1;stroke:none"
         d="m 2938.8045,344.22882 c -3.7757,0 -5.6636,-1.88784 -5.6635,-5.66353 V 134.17842 c -1e-4,-3.77547 1.8878,-5.66331 5.6635,-5.66353 h 35.3138 c 3.7756,2.2e-4 5.6634,1.88806 5.6635,5.66353 v 58.63421 c -1e-4,9.21727 -0.8885,16.93521 -2.6652,23.15385 l 67.1295,-85.28612 c 1.1104,-1.44343 2.6095,-2.16525 4.4975,-2.16547 h 38.3122 c 3.7755,2.2e-4 5.6633,1.88806 5.6635,5.66353 -2e-4,1.77701 -0.4444,3.1096 -1.3326,3.99779 l -64.964,79.62259 c -0.6665,0.77748 -0.9996,1.38825 -0.9995,1.83232 -1e-4,0.22223 0.333,0.833 0.9995,1.83232 l 77.4571,113.60379 c 0.6661,0.99945 0.9992,2.10995 0.9994,3.33148 -2e-4,3.88674 -1.888,5.83011 -5.6635,5.83011 h -41.3105 c -2.5543,0 -4.5532,-1.16602 -5.9967,-3.49806 l -52.4709,-82.78751 c -0.7774,-1.33251 -1.7769,-1.99881 -2.9983,-1.99889 -0.8885,8e-5 -1.7769,0.55533 -2.6652,1.66574 l -13.9923,17.49032 v 63.46487 c -1e-4,3.77569 -1.8879,5.66353 -5.6635,5.66353 h -35.3138" />
      <path
         inkscape:connector-curvature="0"
         id="path3027"
         style="font-variant:normal;font-stretch:normal;font-size:341.14450073px;font-family:'Politics Head';-inkscape-font-specification:'Politics Head';text-align:center;text-anchor:middle;fill:#000000;fill-opacity:1;stroke:none"
         d="m 3274.2855,344.22882 h -130.2612 c -3.7757,0 -5.6636,-1.88784 -5.6636,-5.66353 V 135.84417 c 0,-3.77548 1.8879,-5.66332 5.6636,-5.66353 h 130.2612 c 3.7755,2.1e-4 5.6634,1.88805 5.6635,5.66353 v 31.14942 c -1e-4,3.77586 -1.888,5.66371 -5.6635,5.66353 h -83.6204 c -3.7757,1.8e-4 -5.6636,1.88802 -5.6635,5.66354 v 31.14942 c -1e-4,3.77582 1.8878,5.66366 5.6635,5.66353 h 68.6287 c 3.7755,1.3e-4 5.6634,1.88797 5.6635,5.66353 v 31.14943 c -1e-4,3.77577 -1.888,5.66362 -5.6635,5.66353 h -68.6287 c -3.7757,9e-5 -5.6636,1.88793 -5.6635,5.66353 v 32.81517 c -1e-4,3.77573 1.8878,5.66358 5.6635,5.66353 h 83.6204 c 3.7755,5e-5 5.6634,1.88789 5.6635,5.66353 v 31.14943 c -1e-4,3.77569 -1.888,5.66353 -5.6635,5.66353" />
      <path
         inkscape:connector-curvature="0"
         id="path3029"
         style="font-variant:normal;font-stretch:normal;font-size:341.14450073px;font-family:'Politics Head';-inkscape-font-specification:'Politics Head';text-align:center;text-anchor:middle;fill:#000000;fill-opacity:1;stroke:none"
         d="m 3419.0387,219.96427 c 6.4407,1.3e-4 11.9377,-1.99877 16.4908,-5.99668 4.5529,-3.99765 6.8295,-8.93936 6.8296,-14.82513 v -5.8301 c -1e-4,-5.88548 -2.2767,-10.77166 -6.8296,-14.65856 -4.4421,-3.99761 -9.939,-5.9965 -16.4908,-5.99668 h -39.8113 c -3.7758,1.8e-4 -5.6636,1.88802 -5.6636,5.66354 v 35.98008 c 0,3.77581 1.8878,5.66366 5.6636,5.66353 h 39.8113 m -86.4522,124.26455 c -3.7757,0 -5.6635,-1.88784 -5.6635,-5.66353 V 135.84417 c 0,-3.77548 1.8878,-5.66332 5.6635,-5.66353 h 85.9525 c 21.2103,2.1e-4 37.8677,5.94136 49.9723,17.82346 12.1042,11.77145 18.1564,27.76258 18.1566,47.97345 -2e-4,23.32055 -9.3839,40.6998 -28.1511,52.13781 -1.6659,0.99954 -2.4987,2.11003 -2.4986,3.33148 -1e-4,0.99954 0.2775,2.22109 0.8329,3.66464 l 32.6486,79.45602 c 1.4434,3.3315 2.1653,5.66354 2.1654,6.99613 -1e-4,1.77679 -1.3327,2.66519 -3.9977,2.66519 h -40.3111 c -1.4438,0 -2.5543,-0.8884 -3.3315,-2.66519 l -32.482,-78.29 c -0.6664,-1.55461 -1.8324,-2.33196 -3.498,-2.33204 h -28.8174 c -3.7758,8e-5 -5.6636,1.88792 -5.6636,5.66353 v 71.96017 c 0,3.77569 -1.8879,5.66353 -5.6635,5.66353 h -35.3138" />
      <path
         inkscape:connector-curvature="0"
         id="path3031"
         style="font-variant:normal;font-stretch:normal;font-size:341.14450073px;font-family:'Politics Head';-inkscape-font-specification:'Politics Head';text-align:center;text-anchor:middle;fill:#000000;fill-opacity:1;stroke:none"
         d="m 3593.7753,347.56031 c -19.3227,0 -35.7581,-3.94226 -49.3061,-11.82679 -13.5481,-7.99555 -22.432,-18.98946 -26.6519,-32.98174 -0.6663,-2.332 -0.9994,-3.99774 -0.9994,-4.99723 0,-1.6657 0.9439,-2.83172 2.8317,-3.49807 l 31.9823,-12.15993 c 0.7773,-0.33309 1.6102,-0.49966 2.4986,-0.49973 2.221,7e-5 3.9423,1.27713 5.1639,3.83122 5.7745,12.4376 17.3236,18.65638 34.6474,18.65634 8.3287,4e-5 14.7695,-1.88781 19.3227,-5.66354 4.5529,-3.77563 6.8294,-8.71734 6.8295,-14.82512 -1e-4,-5.66347 -2.6097,-10.71622 -7.829,-15.15828 -5.2194,-4.55295 -14.492,-8.93941 -27.8179,-13.15938 -22.5431,-7.10708 -39.034,-16.26867 -49.4726,-27.48479 -10.3277,-11.21589 -15.4915,-25.1526 -15.4914,-41.81019 -10e-5,-15.76887 6.8295,-29.53902 20.4886,-41.31047 13.7701,-11.8821 31.4825,-17.82325 53.1373,-17.82346 17.6568,2.1e-4 32.6484,3.7759 44.9751,11.32706 12.4374,7.55157 21.0993,18.1568 25.9856,31.81572 0.6661,2.33222 0.9993,3.99796 0.9994,4.99724 -1e-4,1.66591 -0.944,2.83193 -2.8317,3.49806 l -30.3166,10.99391 c -0.7775,0.33331 -1.6103,0.49988 -2.4986,0.49973 -2.2211,1.5e-4 -3.9424,-1.27692 -5.1638,-3.83121 -2.5543,-5.44127 -6.4965,-9.71668 -11.8268,-12.82624 -5.2194,-3.10921 -11.3827,-4.66391 -18.4898,-4.66408 -7.8846,1.7e-4 -14.1033,1.88801 -18.6563,5.66353 -4.442,3.77585 -6.663,8.49546 -6.663,14.15883 0,5.44158 2.6096,10.16119 7.829,14.15883 5.2193,3.88687 14.603,8.16228 28.1511,12.82623 43.0871,14.54762 64.6307,36.702 64.6309,66.46321 -2e-4,20.21108 -6.6631,36.20221 -19.9889,47.97345 -13.3261,11.77126 -31.8159,17.65689 -55.4693,17.65689" />
      <path
         inkscape:connector-curvature="0"
         id="path3033"
         style="font-variant:normal;font-stretch:normal;font-size:341.14450073px;font-family:'Politics Head';-inkscape-font-specification:'Politics Head';text-align:center;text-anchor:middle;fill:#000000;fill-opacity:1;stroke:none"
         d="m 3750.3553,344.22882 h -35.3138 c -3.7757,0 -5.6636,-1.88784 -5.6635,-5.66353 V 135.84417 c -1e-4,-3.77548 1.8878,-5.66332 5.6635,-5.66353 h 78.7897 c 22.4319,2.1e-4 39.4225,5.77479 50.9718,17.32374 11.549,11.4383 17.3236,27.42943 17.3237,47.97345 v 5.1638 c -10e-5,8.55096 -1.4438,16.7131 -4.3309,24.48645 -2.8875,7.77359 -7.1073,14.71418 -12.6597,20.82181 -5.4415,6.10782 -12.6042,10.994 -21.4881,14.65855 -8.8841,3.66472 -18.8785,5.49704 -29.9834,5.49696 h -31.9823 c -3.7757,8e-5 -5.6636,1.88792 -5.6635,5.66353 v 66.79636 c -10e-5,3.77569 -1.8879,5.66353 -5.6635,5.66353 m 11.327,-120.43334 h 32.9818 c 6.7739,1.2e-4 12.3264,-2.05429 16.6574,-6.16325 4.4419,-4.21976 6.6629,-9.82776 6.663,-16.82402 v -4.83066 c -1e-4,-6.99597 -2.2211,-12.60398 -6.663,-16.82402 -4.4421,-4.33077 -9.9946,-6.49623 -16.6574,-6.49641 h -32.9818 c -3.7757,1.8e-4 -5.6636,1.88802 -5.6635,5.66354 v 39.81129 c -10e-5,3.77581 1.8878,5.66365 5.6635,5.66353" />
      <path
         inkscape:connector-curvature="0"
         id="path3035"
         style="font-variant:normal;font-stretch:normal;font-size:341.14450073px;font-family:'Politics Head';-inkscape-font-specification:'Politics Head';text-align:center;text-anchor:middle;fill:#000000;fill-opacity:1;stroke:none"
         d="m 3936.2524,267.77114 h 39.145 c 2.8872,8e-5 4.0532,-1.16594 3.4981,-3.49806 l -19.1561,-71.96017 -0.8329,-6.82955 h -5.8301 l -0.8328,6.82955 -19.3227,71.96017 c -0.5553,2.33212 0.5552,3.49814 3.3315,3.49806 m 51.8047,42.47649 h -64.1312 c -2.11,3e-5 -3.3871,0.66633 -3.8312,1.99889 l -7.829,29.48368 c -0.4443,1.66575 -1.5548,2.49862 -3.3315,2.49862 h -41.1439 c -2.5541,0 -3.8312,-0.83287 -3.8312,-2.49862 0,-0.99944 0.2221,-2.05441 0.6663,-3.16491 l 60.9662,-206.55234 c 0.6663,-2.33182 2.4431,-3.49784 5.3304,-3.49806 h 50.4721 c 2.8871,2.2e-4 4.6639,1.16624 5.3304,3.49806 l 61.1328,207.88493 c 0.2219,0.66631 0.333,1.27708 0.3331,1.83232 -10e-5,1.66575 -1.2217,2.49862 -3.6646,2.49862 h -41.3105 c -1.7769,0 -2.9429,-0.83287 -3.498,-2.49862 l -7.829,-29.48368 c -0.4444,-1.33256 -1.7214,-1.99886 -3.8312,-1.99889" />
      <path
         inkscape:connector-curvature="0"
         id="path3037"
         style="font-variant:normal;font-stretch:normal;font-size:341.14450073px;font-family:'Politics Head';-inkscape-font-specification:'Politics Head';text-align:center;text-anchor:middle;fill:#000000;fill-opacity:1;stroke:none"
         d="m 4146.8024,347.56031 c -22.9873,0 -40.1445,-5.16381 -51.4715,-15.49143 -11.216,-10.43864 -16.824,-25.31928 -16.824,-44.64195 v -100.4444 c 0,-18.54512 5.8301,-33.20366 17.4903,-43.97566 11.7712,-10.7716 28.7063,-16.15751 50.8052,-16.15772 h 23.9868 c 16.6573,2.1e-4 30.8161,3.88695 42.4765,11.66021 11.66,7.77367 19.4335,18.48995 23.3204,32.14887 0.6661,2.33221 0.9992,3.99796 0.9994,4.99723 -2e-4,1.66592 -0.9441,2.83194 -2.8317,3.49807 l -30.3166,10.99391 c -0.8885,0.3333 -1.7214,0.49988 -2.4986,0.49973 -2.5543,1.5e-4 -4.2756,-1.27692 -5.1638,-3.83122 -3.5537,-11.66004 -12.2156,-17.49014 -25.9856,-17.49032 h -23.9868 c -6.4409,1.8e-4 -11.6602,2.22117 -15.658,6.66298 -3.9978,4.3311 -5.9967,9.66148 -5.9966,15.99115 v 90.44993 c -10e-5,6.66304 1.9433,12.10447 5.8301,16.3243 3.9977,4.21993 9.2725,6.32987 15.8245,6.32983 h 23.9868 c 13.4368,4e-5 22.0987,-5.83006 25.9856,-17.49032 0.8882,-2.55408 2.6095,-3.83115 5.1638,-3.83121 0.7772,6e-5 1.6101,0.16664 2.4986,0.49972 l 30.3166,10.99392 c 1.8876,0.66634 2.8315,1.83236 2.8317,3.49806 -2e-4,2.10999 -0.3333,4.33098 -0.9994,6.66298 -3.7759,13.43703 -11.4938,23.82016 -23.1539,31.14943 -11.5493,7.32927 -25.8191,10.99391 -42.8096,10.99391 h -23.8202" />
      <path
         inkscape:connector-curvature="0"
         id="path3039"
         style="font-variant:normal;font-stretch:normal;font-size:341.14450073px;font-family:'Politics Head';-inkscape-font-specification:'Politics Head';text-align:center;text-anchor:middle;fill:#000000;fill-opacity:1;stroke:none"
         d="m 4415.6537,344.22882 h -130.2613 c -3.7757,0 -5.6635,-1.88784 -5.6635,-5.66353 V 135.84417 c 0,-3.77548 1.8878,-5.66332 5.6635,-5.66353 h 130.2613 c 3.7755,2.1e-4 5.6633,1.88805 5.6635,5.66353 v 31.14942 c -2e-4,3.77586 -1.888,5.66371 -5.6635,5.66353 h -83.6204 c -3.7758,1.8e-4 -5.6636,1.88802 -5.6635,5.66354 v 31.14942 c -1e-4,3.77582 1.8877,5.66366 5.6635,5.66353 h 68.6287 c 3.7755,1.3e-4 5.6633,1.88797 5.6635,5.66353 v 31.14943 c -2e-4,3.77577 -1.888,5.66362 -5.6635,5.66353 h -68.6287 c -3.7758,9e-5 -5.6636,1.88793 -5.6635,5.66353 v 32.81517 c -1e-4,3.77573 1.8877,5.66358 5.6635,5.66353 h 83.6204 c 3.7755,5e-5 5.6633,1.88789 5.6635,5.66353 v 31.14943 c -2e-4,3.77569 -1.888,5.66353 -5.6635,5.66353" />
    </g>
    <g
       transform="matrix(0.01553821,0,0,0.01553821,-7.9598064,872.49933)"
       id="text4050"
       style="font-style:normal;font-weight:normal;font-size:182.17214966px;line-height:125%;font-family:Sans;letter-spacing:0px;word-spacing:0px;fill:#000000;fill-opacity:1;stroke:none">
      <path
         inkscape:connector-curvature="0"
         id="path3042"
         style="font-size:655.81976318px;font-family:'Politics Head';-inkscape-font-specification:'Politics Head';fill:#000000;fill-opacity:1;stroke:none"
         d="m 2323.5813,60.25938 c -7.2585,0 -10.8877,-3.629207 -10.8876,-10.887632 V -343.54371 c -10e-5,-7.25801 3.6291,-10.88721 10.8876,-10.88763 h 62.764 c 4.2695,4.2e-4 7.365,1.4948 9.2865,4.48314 l 127.7696,221.59535 c 9.393,15.58444 15.2638,27.21925 17.6123,34.904473 h 2.5618 c -3.6294,-15.370603 -6.6182,-34.370573 -8.9662,-56.999963 -2.3486,-22.84244 -3.5228,-43.33679 -3.5225,-61.4831 v -131.61227 c -3e-4,-7.25801 3.6289,-10.88721 10.8876,-10.88763 h 67.8876 c 7.2581,4.2e-4 10.8873,3.62962 10.8876,10.88763 V 49.371748 c -3e-4,7.258425 -3.6295,10.887632 -10.8876,10.887632 h -62.1235 c -4.0565,0 -7.2587,-1.707862 -9.6068,-5.123592 L 2408.761,-158.13372 c -8.9664,-16.01099 -13.4495,-25.40424 -13.4494,-28.17976 h -2.5618 c 2.5617,9.39349 4.8032,24.1238 6.7247,44.19098 1.9212,19.8541 2.8819,40.02822 2.882,60.52243 V 49.371748 c -10e-5,7.258425 -3.6293,10.887632 -10.8876,10.887632 h -67.8876" />
      <path
         inkscape:connector-curvature="0"
         id="path3044"
         style="font-size:655.81976318px;font-family:'Politics Head';-inkscape-font-specification:'Politics Head';fill:#000000;fill-opacity:1;stroke:none"
         d="m 2985.1651,60.25938 h -250.4155 c -7.2585,0 -10.8877,-3.629207 -10.8877,-10.887632 V -340.34146 c 0,-7.25802 3.6292,-10.88722 10.8877,-10.88763 h 250.4155 c 7.2581,4.1e-4 10.8873,3.62961 10.8876,10.88763 v 59.88198 c -3e-4,7.25875 -3.6295,10.88796 -10.8876,10.88763 h -160.7527 c -7.2585,3.3e-4 -10.8878,3.62954 -10.8876,10.88763 v 59.88198 c -2e-4,7.25868 3.6291,10.88789 10.8876,10.88764 h 131.9325 c 7.2581,2.5e-4 10.8873,3.62945 10.8876,10.88763 v 59.88198 c -3e-4,7.25859 -3.6295,10.8878 -10.8876,10.88763 h -131.9325 c -7.2585,1.7e-4 -10.8878,3.62938 -10.8876,10.887636 v 63.084226 c -2e-4,7.258507 3.6291,10.887714 10.8876,10.887632 h 160.7527 c 7.2581,8.2e-5 10.8873,3.629289 10.8876,10.887633 v 59.881981 c -3e-4,7.258425 -3.6295,10.887632 -10.8876,10.887632" />
      <path
         inkscape:connector-curvature="0"
         id="path3046"
         style="font-size:655.81976318px;font-family:'Politics Head';-inkscape-font-specification:'Politics Head';fill:#000000;fill-opacity:1;stroke:none"
         d="m 3168.3335,60.25938 c -7.2585,0 -10.8877,-3.629207 -10.8876,-10.887632 V -258.68422 c -1e-4,-7.25809 -3.6294,-10.8873 -10.8877,-10.88763 h -71.7302 c -7.2585,3.3e-4 -10.8877,-3.62888 -10.8877,-10.88763 v -59.88198 c 0,-7.25802 3.6292,-10.88722 10.8877,-10.88763 h 254.8987 c 7.2581,4.1e-4 10.8873,3.62961 10.8876,10.88763 v 59.88198 c -3e-4,7.25875 -3.6295,10.88796 -10.8876,10.88763 h -71.7303 c -7.2587,3.3e-4 -10.8879,3.62954 -10.8877,10.88763 V 49.371748 c -2e-4,7.258425 -3.6294,10.887632 -10.8876,10.887632 h -67.8876" />
      <path
         inkscape:connector-curvature="0"
         id="path3048"
         style="font-size:655.81976318px;font-family:'Politics Head';-inkscape-font-specification:'Politics Head';fill:#000000;fill-opacity:1;stroke:none"
         d="m 3398.575,60.25938 c -1.9214,0 -3.5225,-0.533707 -4.8034,-1.601122 -1.2809,-1.067412 -1.9213,-2.241568 -1.9213,-3.52247 0,-1.707857 0.3202,-3.202236 0.9607,-4.483142 l 156.5897,-309.657086 c 2.1347,-4.05585 3.2021,-6.72439 3.2023,-8.00561 -2e-4,-4.48281 -2.8822,-6.72438 -8.6461,-6.72472 h -130.3313 c -7.2585,3.4e-4 -10.8877,-3.62887 -10.8877,-10.88763 v -58.92131 c 0,-7.25801 3.6292,-10.88721 10.8877,-10.88763 h 272.511 c 4.9098,4.2e-4 7.3648,2.0285 7.3652,6.08427 -4e-4,1.2813 -0.8543,3.62961 -2.5618,7.04494 l -153.7078,303.252591 c -3.4159,6.191099 -5.1237,9.820306 -5.1236,10.887633 -1e-4,3.842777 2.8819,5.764122 8.6461,5.76404 h 138.337 c 7.2581,8.2e-5 10.8873,3.629289 10.8876,10.887633 v 59.881981 c -3e-4,7.258425 -3.6295,10.887632 -10.8876,10.887632 H 3398.575" />
      <path
         inkscape:connector-curvature="0"
         id="path3050"
         style="font-size:655.81976318px;font-family:'Politics Head';-inkscape-font-specification:'Politics Head';fill:#000000;fill-opacity:1;stroke:none"
         d="m 3900.6869,66.66387 h -6.7247 c -32.0226,-6e-6 -61.4832,-8.646059 -88.3819,-25.938184 -26.8989,-17.505568 -44.1911,-39.81451915 -51.8764,-66.926919 -1.2809,-4.483052 -1.9214,-7.685294 -1.9213,-9.606735 -1e-4,-3.202145 1.8145,-5.443715 5.4438,-6.724714 l 58.2808,-21.134817 c 1.4943,-0.640324 3.0954,-0.960548 4.8034,-0.960673 4.91,1.25e-4 8.219,2.455177 9.927,7.365163 3.6291,11.314705 11.4212,21.241655 23.3763,29.780878 11.9549,8.325916 25.5111,12.488831 40.6686,12.488755 h 7.0449 c 17.7189,7.6e-5 32.0222,-4.696546 42.9101,-14.089877 10.8874,-9.606636 16.3312,-21.348189 16.3314,-35.224695 -2e-4,-14.516704 -5.6575,-26.258257 -16.9719,-35.224694 -11.1013,-9.179598 -25.4047,-14.089708 -42.9101,-14.730328 l -41.3089,-1.60112 c -7.2586,-0.42679 -10.8878,-4.056 -10.8876,-10.88763 v -47.073 c -2e-4,-6.83122 3.629,-10.46043 10.8876,-10.88764 l 41.3089,-1.60112 c 17.7189,-0.6402 31.3818,-4.69637 40.9888,-12.16853 9.6065,-7.68512 14.4098,-18.35926 14.4101,-32.02245 -3e-4,-12.59519 -5.5508,-23.26933 -16.6517,-32.02245 -10.8878,-8.96595 -25.7249,-13.44909 -44.5112,-13.44943 h -7.3652 c -13.2361,3.4e-4 -25.1911,4.05651 -35.8651,12.16853 -10.4608,7.89919 -17.6125,17.93288 -21.455,30.10111 -1.708,4.91039 -5.017,7.36545 -9.927,7.36516 -1.9215,2.9e-4 -3.5226,-0.31994 -4.8034,-0.96068 l -58.2808,-21.13481 c -3.6293,-1.28059 -5.4439,-3.52216 -5.4438,-6.72472 -1e-4,-1.92103 0.6404,-5.12327 1.9213,-9.60673 7.8988,-27.53895 24.2303,-49.84791 48.9944,-66.92692 24.9773,-17.29171 53.2638,-25.93777 84.8594,-25.93818 h 7.3652 c 44.4042,4.1e-4 79.7356,11.10152 105.9943,33.30334 26.2581,22.2026 39.3873,50.16884 39.3876,83.89882 -3e-4,20.06768 -4.1632,37.46653 -12.4887,52.19659 -8.1127,14.73056 -19.6408,25.08448 -34.5843,31.06178 -2.562,1.06763 -3.8429,2.56201 -3.8427,4.48314 -2e-4,1.70808 1.2807,3.20246 3.8427,4.48314 16.4379,7.25863 29.2469,18.67996 38.427,34.26403 9.3929,15.584413 14.0895,34.157415 14.0898,55.719058 -3e-4,36.932639 -12.916,67.0337118 -38.7471,90.303307 -25.6182,23.056169 -61.0564,34.584239 -106.3146,34.584245" />
      <path
         inkscape:connector-curvature="0"
         id="path3052"
         style="font-size:655.81976318px;font-family:'Politics Head';-inkscape-font-specification:'Politics Head';fill:#000000;fill-opacity:1;stroke:none"
         d="m 4267.9845,-275.97634 h -7.3652 c -17.0788,3.4e-4 -31.4889,5.33741 -43.2303,16.01123 -11.5282,10.67446 -17.2922,24.01713 -17.2921,40.02806 -10e-5,16.01149 5.6572,28.9272 16.9719,38.74716 11.3144,9.60697 25.8313,14.41033 43.5505,14.4101 h 7.3652 c 17.7189,2.3e-4 32.2357,-4.37617 43.5505,-13.1292 11.3144,-8.96604 16.9717,-22.30871 16.9719,-40.02806 -2e-4,-17.07834 -5.9778,-30.6345 -17.9326,-40.66851 -11.9552,-10.24686 -26.1518,-15.37044 -42.5898,-15.37078 m -7.3652,-81.65724 h 7.3652 c 45.8986,4.1e-4 82.4042,12.5959 109.5168,37.78649 27.112,24.97786 40.6681,60.09578 40.6685,105.35385 v 132.252721 c -4e-4,47.39332 -13.4498,84.1123584 -40.3483,110.157225 -26.6857,25.831449 -63.298,38.747158 -109.837,38.747164 h -7.3652 c -27.326,-6e-6 -52.8371,-6.511231 -76.5336,-19.533694 -23.6967,-13.235919 -41.8428,-31.488697 -54.4382,-54.7583883 -1.0675,-1.7077944 -1.6012,-2.8819497 -1.6011,-3.5224697 -1e-4,-1.921273 1.7078,-3.629136 5.1236,-5.123592 l 57.9606,-25.297735 c 4.6965,-2.348208 7.6853,-3.522364 8.9663,-3.522469 1.7077,1.05e-4 3.6291,1.601226 5.764,4.803367 5.1235,8.112447 12.7021,14.410189 22.736,18.893245 10.0335,4.269738 20.7077,6.404566 32.0224,6.40449 h 7.3652 c 17.2919,7.6e-5 31.702,-5.336994 43.2303,-16.011224 11.5278,-10.887531 17.2919,-26.15155 17.2921,-45.792103 v -32.022447 c -2e-4,-3.20208 -0.9609,-5.44364 -2.882,-6.72472 -1.9216,-1.28072 -4.1632,-0.96049 -6.7247,0.96068 -7.0452,5.97769 -16.8654,11.10128 -29.4607,15.370772 -12.5957,4.269816 -24.1237,6.404643 -34.5842,6.40449 h -7.045 c -40.7753,1.53e-4 -73.8652,-11.207692 -99.2696,-33.623572 -25.4045,-22.4155 -38.1067,-53.58399 -38.1067,-93.50555 0,-42.26931 13.3427,-75.78611 40.0281,-100.55049 26.8988,-24.76362 63.6178,-37.14563 110.1572,-37.14604" />
    </g>
    <g
       transform="matrix(0.01557472,0,0,0.01557472,-8.0173538,872.4969)"
       id="text4059"
       style="font-style:normal;font-weight:normal;font-size:52.39083862px;line-height:125%;font-family:Sans;letter-spacing:0px;word-spacing:0px;fill:#000000;fill-opacity:1;stroke:none">
      <path
         inkscape:connector-curvature="0"
         id="path3000"
         style="font-variant:normal;font-stretch:normal;font-size:392.93130493px;font-family:'Politics Head';-inkscape-font-specification:'Politics Head';text-align:center;text-anchor:middle;fill:#000000;fill-opacity:1;stroke:none"
         d="m 2317.4895,615.51025 c -4.3489,0 -6.5233,-2.17442 -6.5232,-6.52327 V 373.57355 c -1e-4,-4.34861 2.1743,-6.52303 6.5232,-6.52328 h 43.5525 c 2.9418,2.5e-4 4.9243,1.15142 5.9477,3.4535 l 53.9129,123.55848 c 3.0696,7.54664 4.6045,12.59898 4.6047,15.15702 h 1.9186 c -2e-4,-2.04641 1.5347,-7.09875 4.6046,-15.15702 l 52.5699,-123.55848 c 0.8952,-2.30208 2.8778,-3.45325 5.9477,-3.4535 h 43.3606 c 4.3486,2.5e-4 6.523,2.17467 6.5233,6.52328 v 235.41343 c -3e-4,4.34885 -2.1747,6.52327 -6.5233,6.52327 h -39.7152 c -4.3491,0 -6.5235,-2.17442 -6.5233,-6.52327 v -65.4246 c -2e-4,-6.52319 0.1277,-13.55809 0.3837,-21.10471 0.3836,-7.67433 0.8312,-14.64528 1.3431,-20.91284 0.5114,-6.26734 1.023,-12.02317 1.5349,-17.26749 0.5114,-5.24407 0.8951,-9.52896 1.1511,-12.85469 0.3835,-3.32544 0.5754,-5.11614 0.5756,-5.37211 h -1.5349 c -2e-4,0.38387 -0.7676,3.13388 -2.3023,8.25003 -1.4072,5.11643 -3.2619,11.19202 -5.564,18.22679 -2.1746,6.90711 -4.0932,12.47107 -5.7558,16.69191 l -30.5059,71.18042 c -0.8955,2.30237 -2.8781,3.45353 -5.9477,3.4535 h -30.314 c -3.5816,3e-5 -5.8199,-1.21509 -6.7152,-3.64536 l -29.3547,-71.94787 c -1.6629,-3.96501 -3.6454,-9.52898 -5.9477,-16.6919 -2.3024,-7.29059 -4.285,-13.55804 -5.9477,-18.80238 -1.6629,-5.37196 -2.5582,-8.18592 -2.686,-8.44189 h -0.9593 c -10e-5,0.25597 0.1917,2.04667 0.5755,5.37211 0.3837,3.32574 0.8314,7.67458 1.3431,13.04655 0.5115,5.24433 1.0231,11.06411 1.5349,17.45935 0.5115,6.39547 0.9592,13.49432 1.343,21.29657 0.3836,7.67453 0.5755,14.90128 0.5756,21.68029 v 65.80832 c -1e-4,4.34885 -2.1745,6.52327 -6.5233,6.52327 h -40.4827" />
      <path
         inkscape:connector-curvature="0"
         id="path3002"
         style="font-variant:normal;font-stretch:normal;font-size:392.93130493px;font-family:'Politics Head';-inkscape-font-specification:'Politics Head';text-align:center;text-anchor:middle;fill:#000000;fill-opacity:1;stroke:none"
         d="m 2662.0719,527.44606 h 45.0873 c 3.3255,9e-5 4.6685,-1.34294 4.0291,-4.02908 l -22.064,-82.88395 -0.9593,-7.8663 h -6.7152 l -0.9593,7.8663 -22.2558,82.88395 c -0.6397,2.68614 0.6394,4.02917 3.8372,4.02908 m 59.6687,48.92455 h -73.8664 c -2.4304,4e-5 -3.9013,0.76748 -4.4128,2.30233 l -9.0175,33.9594 c -0.5117,1.91861 -1.7908,2.87791 -3.8372,2.87791 h -47.3897 c -2.9419,0 -4.4128,-0.9593 -4.4128,-2.87791 0,-1.15116 0.2558,-2.36628 0.7674,-3.64536 l 70.2212,-237.90763 c 0.7673,-2.6858 2.8138,-4.02883 6.1395,-4.02908 h 58.1339 c 3.3254,2.5e-4 5.372,1.34328 6.1396,4.02908 l 70.4129,239.44252 c 0.2556,0.76745 0.3835,1.47094 0.3838,2.11047 -3e-4,1.91861 -1.4072,2.87791 -4.221,2.87791 H 2739.2 c -2.0467,0 -3.3897,-0.9593 -4.0291,-2.87791 l -9.0175,-33.9594 c -0.5117,-1.53485 -1.9827,-2.30229 -4.4128,-2.30233" />
      <path
         inkscape:connector-curvature="0"
         id="path3004"
         style="font-variant:normal;font-stretch:normal;font-size:392.93130493px;font-family:'Politics Head';-inkscape-font-specification:'Politics Head';text-align:center;text-anchor:middle;fill:#000000;fill-opacity:1;stroke:none"
         d="m 2902.6655,619.34747 c -26.3489,0 -46.0467,-6.01164 -59.0931,-18.03493 -13.0466,-12.02326 -19.5699,-29.09887 -19.5699,-51.22688 V 434.39348 c 0,-21.36032 6.7151,-38.24407 20.1454,-50.6513 13.5582,-12.40677 33.064,-18.61027 58.5176,-18.61052 h 28.3955 c 19.1859,2.5e-4 35.4941,4.41305 48.9245,13.23841 13.558,8.69793 22.5115,20.84911 26.8606,36.45359 0.7672,2.68625 1.1509,4.60486 1.1511,5.75583 -2e-4,1.9188 -1.0874,3.26183 -3.2616,4.02908 l -34.9187,12.66283 -2.8779,0.57558 c -2.9421,1.8e-4 -4.9246,-1.47076 -5.9477,-4.4128 -3.8374,-12.91845 -13.8142,-19.37776 -29.9303,-19.37796 h -28.3955 c -7.4187,2e-4 -13.4303,2.55834 -18.0349,7.67444 -4.6047,4.98857 -6.9071,11.12812 -6.907,18.41865 v 104.18052 c -10e-5,7.6745 2.2383,13.94195 6.7152,18.80237 4.6045,4.86053 10.6801,7.29077 18.2267,7.29072 h 29.3548 c 7.5464,5e-5 13.558,-2.49414 18.0349,-7.48258 4.6045,-4.98833 6.9068,-11.19182 6.907,-18.61051 v -16.30819 c -2e-4,-4.34875 -2.1746,-6.52318 -6.5233,-6.52327 h -24.75 c -4.349,9e-5 -6.5234,-2.17433 -6.5233,-6.52327 v -29.73846 c -10e-5,-4.34871 2.1743,-6.52313 6.5233,-6.52327 h 76.5525 c 4.3486,1.4e-4 6.5231,2.17456 6.5233,6.52327 v 64.84902 c -2e-4,21.36056 -6.7793,38.24431 -20.3373,50.6513 -13.4304,12.40701 -32.8723,18.61051 -58.3257,18.61051 h -27.4362" />
      <path
         inkscape:connector-curvature="0"
         id="path3006"
         style="font-variant:normal;font-stretch:normal;font-size:392.93130493px;font-family:'Politics Head';-inkscape-font-specification:'Politics Head';text-align:center;text-anchor:middle;fill:#000000;fill-opacity:1;stroke:none"
         d="m 3067.2823,615.51025 c -4.3489,0 -6.5234,-2.17442 -6.5233,-6.52327 V 375.49216 c -1e-4,-4.34861 2.1744,-6.52303 6.5233,-6.52328 h 101.6863 c 25.965,2.5e-4 45.9825,6.71538 60.0525,20.14541 14.0696,13.30257 21.1045,31.65726 21.1047,55.0641 v 96.12236 c -2e-4,23.40709 -7.0991,41.82573 -21.2966,55.25596 -14.07,13.30237 -34.0235,19.95354 -59.8606,19.95354 h -101.6863 m 53.721,-48.92455 h 48.5409 c 7.8022,5e-5 14.1975,-2.36623 19.1861,-7.09885 5.1161,-4.86042 7.6742,-11.25578 7.6744,-19.1861 v -95.54678 c -2e-4,-8.05798 -2.5583,-14.51729 -7.6744,-19.37796 -5.1165,-4.98819 -11.5118,-7.48238 -19.1861,-7.48257 h -48.5409 c -4.3489,1.9e-4 -6.5233,2.17462 -6.5232,6.52327 v 135.64572 c -1e-4,4.3489 2.1743,6.52332 6.5232,6.52327" />
      <path
         inkscape:connector-curvature="0"
         id="path3008"
         style="font-variant:normal;font-stretch:normal;font-size:392.93130493px;font-family:'Politics Head';-inkscape-font-specification:'Politics Head';text-align:center;text-anchor:middle;fill:#000000;fill-opacity:1;stroke:none"
         d="m 3459.0624,615.51025 h -150.0353 c -4.3489,0 -6.5233,-2.17442 -6.5232,-6.52327 V 375.49216 c -1e-4,-4.34861 2.1743,-6.52303 6.5232,-6.52328 h 150.0353 c 4.3487,2.5e-4 6.5231,2.17467 6.5233,6.52328 v 35.878 c -2e-4,4.34905 -2.1746,6.52347 -6.5233,6.52328 h -96.3142 c -4.3489,1.9e-4 -6.5234,2.17462 -6.5233,6.52327 v 35.878 c -1e-4,4.349 2.1744,6.52343 6.5233,6.52328 h 79.0467 c 4.3487,1.5e-4 6.5231,2.17457 6.5233,6.52327 v 35.87801 c -2e-4,4.34895 -2.1746,6.52337 -6.5233,6.52327 h -79.0467 c -4.3489,1e-4 -6.5234,2.17452 -6.5233,6.52327 v 37.79662 c -1e-4,4.3489 2.1744,6.52332 6.5233,6.52327 h 96.3142 c 4.3487,5e-5 6.5231,2.17447 6.5233,6.52328 v 35.878 c -2e-4,4.34885 -2.1746,6.52327 -6.5233,6.52327" />
      <path
         inkscape:connector-curvature="0"
         id="path3010"
         style="font-variant:normal;font-stretch:normal;font-size:392.93130493px;font-family:'Politics Head';-inkscape-font-specification:'Politics Head';text-align:center;text-anchor:middle;fill:#000000;fill-opacity:1;stroke:none"
         d="m 3636.7257,615.51025 h -110.5119 c -4.3489,0 -6.5233,-2.17442 -6.5233,-6.52327 V 375.49216 c 0,-4.34861 2.1744,-6.52303 6.5233,-6.52328 h 99.1921 c 23.9185,2.5e-4 42.6569,5.75607 56.2153,17.26749 13.6858,11.51188 20.5289,27.884 20.5291,49.11642 -2e-4,10.74438 -2.4944,20.65719 -7.4826,29.73845 -4.8607,8.95365 -11.5118,15.54087 -19.9535,19.76168 -1.5351,0.89548 -2.3025,1.91874 -2.3024,3.06978 -10e-5,1.2792 0.7673,2.30245 2.3024,3.06977 20.9766,10.2327 31.401,28.07576 31.2733,53.52922 -0.1281,23.15127 -6.3956,40.80247 -18.8024,52.95363 -12.2792,12.0233 -29.099,18.03493 -50.4594,18.03493 m -56.7909,-148.69226 h 45.2792 c 8.3139,1.5e-4 14.6453,-2.17428 18.9943,-6.52328 4.3487,-4.34869 6.5231,-10.68009 6.5233,-18.99423 -2e-4,-8.3138 -2.1746,-14.58125 -6.5233,-18.80238 -4.349,-4.34865 -10.6804,-6.52307 -18.9943,-6.52327 h -45.2792 c -4.3489,2e-4 -6.5233,2.17462 -6.5232,6.52327 v 37.79661 c -10e-5,4.349 2.1743,6.52343 6.5232,6.52328 m 0,101.68632 h 49.3083 c 7.1627,5e-5 13.1104,-2.43019 17.8431,-7.29072 4.8603,-4.98832 7.2905,-11.70345 7.2907,-20.1454 -2e-4,-8.05808 -2.4304,-14.58135 -7.2907,-19.56982 -4.7327,-5.11619 -10.6804,-7.67434 -17.8431,-7.67444 h -49.3083 c -4.3489,10e-5 -6.5233,2.17452 -6.5232,6.52327 v 41.63384 c -10e-5,4.3489 2.1743,6.52332 6.5232,6.52327" />
      <path
         inkscape:connector-curvature="0"
         id="path3012"
         style="font-variant:normal;font-stretch:normal;font-size:392.93130493px;font-family:'Politics Head';-inkscape-font-specification:'Politics Head';text-align:center;text-anchor:middle;fill:#000000;fill-opacity:1;stroke:none"
         d="m 3832.8076,619.34747 c -26.4769,0 -46.2386,-6.01164 -59.2851,-18.03493 -12.9186,-12.02326 -19.378,-29.09887 -19.3779,-51.22688 V 373.57355 c -1e-4,-4.34861 2.1744,-6.52303 6.5232,-6.52328 h 40.6746 c 4.3487,2.5e-4 6.5232,2.17467 6.5232,6.52328 v 170.75628 c 0,7.6745 2.2383,13.94195 6.7152,18.80237 4.6045,4.86053 10.6801,7.29077 18.2268,7.29072 h 27.4361 c 7.4185,5e-5 13.3662,-2.49414 17.8431,-7.48258 4.6045,-4.98833 6.9708,-11.19182 7.0988,-18.61051 V 373.57355 c -10e-5,-4.34861 2.1743,-6.52303 6.5233,-6.52328 h 40.6745 c 4.3487,2.5e-4 6.5231,2.17467 6.5233,6.52328 v 176.51211 c -2e-4,21.36056 -6.7793,38.24431 -20.3373,50.6513 -13.4304,12.40701 -32.8723,18.61051 -58.3257,18.61051 h -27.4361" />
      <path
         inkscape:connector-curvature="0"
         id="path3014"
         style="font-variant:normal;font-stretch:normal;font-size:392.93130493px;font-family:'Politics Head';-inkscape-font-specification:'Politics Head';text-align:center;text-anchor:middle;fill:#000000;fill-opacity:1;stroke:none"
         d="m 4104.6746,472.38196 c 7.4185,1.4e-4 13.7499,-2.30219 18.9943,-6.907 5.244,-4.60451 7.8661,-10.29638 7.8663,-17.07563 v -6.71513 c -2e-4,-6.77891 -2.6223,-12.40683 -7.8663,-16.88377 -5.1165,-4.60447 -11.4479,-6.9068 -18.9943,-6.90699 h -45.8547 c -4.349,1.9e-4 -6.5234,2.17462 -6.5233,6.52327 v 41.44197 c -1e-4,4.349 2.1743,6.52342 6.5233,6.52328 h 45.8547 m -99.5758,143.12829 c -4.3489,0 -6.5233,-2.17442 -6.5233,-6.52327 V 375.49216 c 0,-4.34861 2.1744,-6.52303 6.5233,-6.52328 h 99.0003 c 24.4301,2.5e-4 43.6162,6.84329 57.5582,20.52913 13.9417,13.55839 20.9127,31.97702 20.9129,55.25596 -2e-4,26.86069 -10.8084,46.87816 -32.4245,60.05249 -1.9188,1.15128 -2.8781,2.43035 -2.8779,3.83722 -2e-4,1.15127 0.3196,2.55825 0.9593,4.22094 l 37.6047,91.5177 c 1.6626,3.83722 2.494,6.52327 2.4942,8.05816 -2e-4,2.04652 -1.5351,3.06977 -4.6046,3.06977 h -46.4304 c -1.663,0 -2.942,-1.02325 -3.8372,-3.06977 l -37.4129,-90.17467 c -0.7676,-1.7906 -2.1106,-2.68595 -4.0291,-2.68605 h -33.1919 c -4.349,1e-4 -6.5234,2.17452 -6.5233,6.52327 v 82.88395 c -1e-4,4.34885 -2.1745,6.52327 -6.5233,6.52327 h -40.6745" />
      <path
         inkscape:connector-curvature="0"
         id="path3016"
         style="font-variant:normal;font-stretch:normal;font-size:392.93130493px;font-family:'Politics Head';-inkscape-font-specification:'Politics Head';text-align:center;text-anchor:middle;fill:#000000;fill-opacity:1;stroke:none"
         d="m 4305.5531,619.34747 c -26.349,0 -46.0467,-6.01164 -59.0932,-18.03493 -13.0465,-12.02326 -19.5698,-29.09887 -19.5698,-51.22688 V 434.39348 c 0,-21.36032 6.7151,-38.24407 20.1454,-50.6513 13.5581,-12.40677 33.064,-18.61027 58.5176,-18.61052 h 28.3954 c 19.186,2.5e-4 35.4942,4.41305 48.9246,13.23841 13.558,8.69793 22.5115,20.84911 26.8605,36.45359 0.7673,2.68625 1.151,4.60486 1.1512,5.75583 -2e-4,1.9188 -1.0874,3.26183 -3.2616,4.02908 l -34.9187,12.66283 -2.878,0.57558 c -2.942,1.8e-4 -4.9245,-1.47076 -5.9476,-4.4128 -3.8374,-12.91845 -13.8142,-19.37776 -29.9304,-19.37796 h -28.3954 c -7.4187,2e-4 -13.4303,2.55834 -18.0349,7.67444 -4.6048,4.98857 -6.9071,11.12812 -6.907,18.41865 v 104.18052 c -1e-4,7.6745 2.2383,13.94195 6.7151,18.80237 4.6046,4.86053 10.6802,7.29077 18.2268,7.29072 h 29.3547 c 7.5464,5e-5 13.5581,-2.49414 18.035,-7.48258 4.6045,-4.98833 6.9068,-11.19182 6.907,-18.61051 v -16.30819 c -2e-4,-4.34875 -2.1746,-6.52318 -6.5233,-6.52327 h -24.7501 c -4.3489,9e-5 -6.5234,-2.17433 -6.5232,-6.52327 v -29.73846 c -2e-4,-4.34871 2.1743,-6.52313 6.5232,-6.52327 h 76.5526 c 4.3486,1.4e-4 6.523,2.17456 6.5232,6.52327 v 64.84902 c -2e-4,21.36056 -6.7792,38.24431 -20.3372,50.6513 -13.4305,12.40701 -32.8724,18.61051 -58.3258,18.61051 h -27.4361" />
    </g>
  </g>
</svg>
