<?xml version="1.0" encoding="UTF-8" standalone="no"?>
<!-- Created with Inkscape (http://www.inkscape.org/) -->

<svg
   xmlns:dc="http://purl.org/dc/elements/1.1/"
   xmlns:cc="http://creativecommons.org/ns#"
   xmlns:rdf="http://www.w3.org/1999/02/22-rdf-syntax-ns#"
   xmlns:svg="http://www.w3.org/2000/svg"
   xmlns="http://www.w3.org/2000/svg"
   xmlns:sodipodi="http://sodipodi.sourceforge.net/DTD/sodipodi-0.dtd"
   xmlns:inkscape="http://www.inkscape.org/namespaces/inkscape"
   width="10mm"
   height="9.999999mm"
   viewBox="0 0 10 9.999999"
   version="1.1"
   id="svg4438"
   inkscape:version="0.92.1 r15371"
   sodipodi:docname="silk_n39_logo.svg">
  <defs
     id="defs4432" />
  <sodipodi:namedview
     id="base"
     pagecolor="#ffffff"
     bordercolor="#666666"
     borderopacity="1.0"
     inkscape:pageopacity="0.0"
     inkscape:pageshadow="2"
     inkscape:zoom="0.35"
     inkscape:cx="-587.46794"
     inkscape:cy="133.96072"
     inkscape:document-units="mm"
     inkscape:current-layer="layer1"
     showgrid="false"
     inkscape:window-width="1366"
     inkscape:window-height="705"
     inkscape:window-x="0"
     inkscape:window-y="0"
     inkscape:window-maximized="1" />
  <metadata
     id="metadata4435">
    <rdf:RDF>
      <cc:Work
         rdf:about="">
        <dc:format>image/svg+xml</dc:format>
        <dc:type
           rdf:resource="http://purl.org/dc/dcmitype/StillImage" />
        <dc:title></dc:title>
      </cc:Work>
    </rdf:RDF>
  </metadata>
  <g
     inkscape:label="SilkS"
     inkscape:groupmode="layer"
     id="layer1"
     transform="translate(-69.63363,-174.27711)">
    <g
       style="display:inline"
       transform="matrix(0.41666661,0,0,0.41666661,64.965027,129.75999)"
       id="g6003-9-5">
      <g
         transform="matrix(0.09457852,0,0,0.09457852,-33.358282,98.251228)"
         id="g4413-4-0"
         style="stroke-width:110.1446991;stroke-miterlimit:4;stroke-dasharray:none">
        <path
           d="m 534.12054,161.88159 v 10.40612 h 47.25268 c -9.52806,9.54312 -19.06966,19.07261 -28.62694,28.58644 h 12.59261 c 20.11218,0 36.40116,16.32948 36.40116,36.44165 0,20.11218 -16.28898,36.40117 -36.40116,36.40117 -20.11217,0 -36.44165,-16.28899 -36.44165,-36.40117 h -10.40612 c 0,25.8585 20.98928,46.8073 46.84777,46.8073 25.85849,0 46.80728,-20.9488 46.80728,-46.8073 0,-21.99252 -15.15229,-40.48031 -35.59135,-45.51157 l 29.96314,-29.92264 z"
           id="path4996-4-0-4-8-9-7-2-6-0-9-9-2-01-7"
           style="color:#000000;display:inline;overflow:visible;visibility:visible;fill:#003376;fill-opacity:1;fill-rule:evenodd;stroke:none;stroke-width:110.1446991;marker:none;enable-background:accumulate"
           inkscape:connector-curvature="0"
           sodipodi:nodetypes="ccccsssccssccc" />
        <g
           transform="rotate(180,565.31865,237.59126)"
           id="g4409-3-8"
           style="stroke-width:110.1446991;stroke-miterlimit:4;stroke-dasharray:none">
          <path
             d="m 565.33889,208.68886 c -15.80241,0 -28.62694,12.82454 -28.62694,28.62694 0,12.13086 7.56029,22.4873 18.22083,26.6429 v -11.74231 c -4.72379,-3.28183 -7.81471,-8.71082 -7.81471,-14.90059 0,-10.05608 8.16474,-18.22082 18.22082,-18.22082 10.05608,0 18.18034,8.16474 18.18034,18.22082 0,6.17974 -3.07517,11.61703 -7.77422,14.90059 v 11.74231 c 10.64945,-4.1556 18.18033,-14.51204 18.18033,-26.6429 0,-15.8024 -12.78404,-28.62694 -28.58645,-28.62694 z"
             id="path4996-4-0-4-2-1-9-8-5-8-9-656-6"
             style="color:#000000;display:inline;overflow:visible;visibility:visible;fill:#003376;fill-opacity:1;fill-rule:evenodd;stroke:none;stroke-width:110.1446991;marker:none;enable-background:accumulate"
             inkscape:connector-curvature="0" />
          <path
             d="m 565.33889,232.0925 c -2.87317,0 -5.2233,2.35013 -5.2233,5.2233 v 31.17786 h 10.40612 V 237.3158 c 0,-2.87317 -2.30965,-5.2233 -5.18282,-5.2233 z"
             id="rect5023-1-6-7-7-5-2-9-1-8-8-43-9"
             style="color:#000000;display:inline;overflow:visible;visibility:visible;fill:#003376;fill-opacity:1;fill-rule:evenodd;stroke:none;stroke-width:110.1446991;marker:none;enable-background:accumulate"
             inkscape:connector-curvature="0" />
        </g>
        <path
           d="m 630.85289,149.49143 c -5.72232,0.0544 -10.36388,0.85328 -11.49937,1.53864 -2.27103,1.37086 -2.80747,4.65767 -2.10552,5.42576 0.70195,0.76784 11.43046,7.65845 16.11531,9.92023 12.61445,6.09045 -1.28767,29.39594 -12.14722,25.22572 -7.69621,-2.95537 -16.42692,-11.75721 -17.8969,-11.82329 -1.46996,-0.0648 -3.36351,0.9263 -3.84662,3.4822 -0.48303,2.55591 3.00841,14.89689 11.7828,24.49689 10.52926,11.52022 26.92634,-1.20851 26.92634,9.31286 v 48.87231 a 13.017768,13.017768 0 0 0 26.03553,0 v -62.4367 -14.57666 c 0,-5.46709 6.70282,-27.38877 -15.46745,-36.56312 -5.37441,-2.22388 -12.17459,-2.92922 -17.8969,-2.87484 z"
           id="path5018-1-3-2-1-4-7-5-6-02-0"
           style="fill:#003376;fill-opacity:1;stroke:none"
           inkscape:connector-curvature="0" />
      </g>
      <path
         d="m 23.20465,106.8411 c -6.627199,0 -12.000001,5.3728 -12.000001,12 0,6.62719 5.372802,12 12.000001,12 6.627195,0 12.000002,-5.37281 12.000002,-12 0,-6.6272 -5.372807,-12 -12.000002,-12 z m 0,1.64429 c 5.718248,0 10.351999,4.63746 10.351999,10.35571 0,5.71824 -4.633751,10.352 -10.351999,10.352 -5.719374,0.0368 -10.275515,-5.29006 -10.355702,-10.352 0,-5.71825 4.63746,-10.35571 10.355708,-10.35571 z"
         id="path7438-70-0-9-0-2-9-7"
         style="color:#000000;display:inline;overflow:visible;visibility:visible;fill:#003376;fill-opacity:1;fill-rule:evenodd;stroke:none;stroke-width:10.41732311;marker:none;enable-background:accumulate"
         inkscape:connector-curvature="0" />
    </g>
  </g>
</svg>
