  0
SECTION
  2
HEADER
  9
$ACADVER
  1
AC1009
  9
$EXTMIN
 10
0.0
 20
0.0
 30
0.0
  9
$EXTMAX
 10
1000.0
 20
1000.0
 30
0.0
  9
$FILLMODE
 70
 0
  9
$SPLFRAME
 70
 1
  0
ENDSEC
  0
SECTION
  2
TABLES
  0
TABLE
  2
LAYER
 70
1
  0
LAYER
  2
0
 70
     0
 62
     7
  6
CONTINUOUS
  0
ENDTAB
  0
ENDSEC
  0
SECTION
  2
ENTITIES
  0
POLYLINE
  8
0
 62
     0
 66
     1
 10
0
 20
0
 30
0.0
 70
     1
 40
2.83465
 41
2.83465
  0
VERTEX
  8
0
 10
0.130859
 20
1.28651
 30
0.0
 40
0.0393701
 41
0.0393701
  0
VERTEX
  8
0
 10
0.144206
 20
1.43869
 30
0.0
 40
0.0393701
 41
0.0393701
  0
VERTEX
  8
0
 10
0.181586
 20
1.56603
 30
0.0
 40
0.0393701
 41
0.0393701
  0
VERTEX
  8
0
 10
0.238932
 20
1.66982
 30
0.0
 40
0.0393701
 41
0.0393701
  0
VERTEX
  8
0
 10
0.312067
 20
1.75162
 30
0.0
 40
0.0393701
 41
0.0393701
  0
VERTEX
  8
0
 10
0.396918
 20
1.81278
 30
0.0
 40
0.0393701
 41
0.0393701
  0
VERTEX
  8
0
 10
0.489421
 20
1.85471
 30
0.0
 40
0.0393701
 41
0.0393701
  0
VERTEX
  8
0
 10
0.585394
 20
1.87879
 30
0.0
 40
0.0393701
 41
0.0393701
  0
VERTEX
  8
0
 10
0.680826
 20
1.8865
 30
0.0
 40
0.0393701
 41
0.0393701
  0
VERTEX
  8
0
 10
0.77615
 20
1.87924
 30
0.0
 40
0.0393701
 41
0.0393701
  0
VERTEX
  8
0
 10
0.871961
 20
1.85622
 30
0.0
 40
0.0393701
 41
0.0393701
  0
VERTEX
  8
0
 10
0.964139
 20
1.81586
 30
0.0
 40
0.0393701
 41
0.0393701
  0
VERTEX
  8
0
 10
1.04877
 20
1.75651
 30
0.0
 40
0.0393701
 41
0.0393701
  0
VERTEX
  8
0
 10
1.12169
 20
1.67654
 30
0.0
 40
0.0393701
 41
0.0393701
  0
VERTEX
  8
0
 10
1.17887
 20
1.57433
 30
0.0
 40
0.0393701
 41
0.0393701
  0
VERTEX
  8
0
 10
1.21631
 20
1.44814
 30
0.0
 40
0.0393701
 41
0.0393701
  0
VERTEX
  8
0
 10
1.22993
 20
1.29639
 30
0.0
 40
0.0393701
 41
0.0393701
  0
VERTEX
  8
0
 10
1.2302
 20
1.12674
 30
0.0
 40
0.0393701
 41
0.0393701
  0
VERTEX
  8
0
 10
1.23041
 20
0.934461
 30
0.0
 40
0.0393701
 41
0.0393701
  0
VERTEX
  8
0
 10
1.23058
 20
0.733507
 30
0.0
 40
0.0393701
 41
0.0393701
  0
VERTEX
  8
0
 10
1.23069
 20
0.537761
 30
0.0
 40
0.0393701
 41
0.0393701
  0
VERTEX
  8
0
 10
1.23079
 20
0.361274
 30
0.0
 40
0.0393701
 41
0.0393701
  0
VERTEX
  8
0
 10
1.23079
 20
0.217936
 30
0.0
 40
0.0393701
 41
0.0393701
  0
VERTEX
  8
0
 10
1.23079
 20
0.121745
 30
0.0
 40
0.0393701
 41
0.0393701
  0
VERTEX
  8
0
 10
1.23085
 20
0.0865343
 30
0.0
 40
0.0393701
 41
0.0393701
  0
VERTEX
  8
0
 10
1.21983
 20
0.0910915
 30
0.0
 40
0.0393701
 41
0.0393701
  0
VERTEX
  8
0
 10
1.18967
 20
0.102973
 30
0.0
 40
0.0393701
 41
0.0393701
  0
VERTEX
  8
0
 10
1.14426
 20
0.119629
 30
0.0
 40
0.0393701
 41
0.0393701
  0
VERTEX
  8
0
 10
1.08767
 20
0.138618
 30
0.0
 40
0.0393701
 41
0.0393701
  0
VERTEX
  8
0
 10
1.02403
 20
0.157335
 30
0.0
 40
0.0393701
 41
0.0393701
  0
VERTEX
  8
0
 10
0.957303
 20
0.173232
 30
0.0
 40
0.0393701
 41
0.0393701
  0
VERTEX
  8
0
 10
0.891547
 20
0.183811
 30
0.0
 40
0.0393701
 41
0.0393701
  0
VERTEX
  8
0
 10
0.830838
 20
0.186524
 30
0.0
 40
0.0393701
 41
0.0393701
  0
VERTEX
  8
0
 10
0.743599
 20
0.169325
 30
0.0
 40
0.0393701
 41
0.0393701
  0
VERTEX
  8
0
 10
0.662489
 20
0.135634
 30
0.0
 40
0.0393701
 41
0.0393701
  0
VERTEX
  8
0
 10
0.578071
 20
0.102431
 30
0.0
 40
0.0393701
 41
0.0393701
  0
VERTEX
  8
0
 10
0.480849
 20
0.0865343
 30
0.0
 40
0.0393701
 41
0.0393701
  0
VERTEX
  8
0
 10
0.436035
 20
0.0904406
 30
0.0
 40
0.0393701
 41
0.0393701
  0
VERTEX
  8
0
 10
0.382378
 20
0.101563
 30
0.0
 40
0.0393701
 41
0.0393701
  0
VERTEX
  8
0
 10
0.324544
 20
0.117513
 30
0.0
 40
0.0393701
 41
0.0393701
  0
VERTEX
  8
0
 10
0.266928
 20
0.135959
 30
0.0
 40
0.0393701
 41
0.0393701
  0
VERTEX
  8
0
 10
0.214247
 20
0.154514
 30
0.0
 40
0.0393701
 41
0.0393701
  0
VERTEX
  8
0
 10
0.170953
 20
0.170736
 30
0.0
 40
0.0393701
 41
0.0393701
  0
VERTEX
  8
0
 10
0.141601
 20
0.182183
 30
0.0
 40
0.0393701
 41
0.0393701
  0
VERTEX
  8
0
 10
0.130859
 20
0.186524
 30
0.0
 40
0.0393701
 41
0.0393701
  0
VERTEX
  8
0
 10
0.130859
 20
1.28651
 30
0.0
 40
0.0393701
 41
0.0393701
  0
SEQEND
 8
0
  0
POLYLINE
  8
0
 62
     0
 66
     1
 10
0
 20
0
 30
0.0
 70
     1
 40
4.13745
 41
4.13745
  0
VERTEX
  8
0
 10
0.745931
 20
1.72825
 30
0.0
 40
0.0574646
 41
0.0574646
  0
VERTEX
  8
0
 10
0.740886
 20
1.7034
 30
0.0
 40
0.0574646
 41
0.0574646
  0
VERTEX
  8
0
 10
0.727214
 20
1.68306
 30
0.0
 40
0.0574646
 41
0.0574646
  0
VERTEX
  8
0
 10
0.706868
 20
1.66932
 30
0.0
 40
0.0574646
 41
0.0574646
  0
VERTEX
  8
0
 10
0.682021
 20
1.66428
 30
0.0
 40
0.0574646
 41
0.0574646
  0
VERTEX
  8
0
 10
0.657118
 20
1.66932
 30
0.0
 40
0.0574646
 41
0.0574646
  0
VERTEX
  8
0
 10
0.636774
 20
1.68306
 30
0.0
 40
0.0574646
 41
0.0574646
  0
VERTEX
  8
0
 10
0.623101
 20
1.7034
 30
0.0
 40
0.0574646
 41
0.0574646
  0
VERTEX
  8
0
 10
0.61811
 20
1.72825
 30
0.0
 40
0.0574646
 41
0.0574646
  0
VERTEX
  8
0
 10
0.623101
 20
1.75315
 30
0.0
 40
0.0574646
 41
0.0574646
  0
VERTEX
  8
0
 10
0.636774
 20
1.77349
 30
0.0
 40
0.0574646
 41
0.0574646
  0
VERTEX
  8
0
 10
0.657118
 20
1.78717
 30
0.0
 40
0.0574646
 41
0.0574646
  0
VERTEX
  8
0
 10
0.682021
 20
1.79215
 30
0.0
 40
0.0574646
 41
0.0574646
  0
VERTEX
  8
0
 10
0.706868
 20
1.78717
 30
0.0
 40
0.0574646
 41
0.0574646
  0
VERTEX
  8
0
 10
0.727214
 20
1.77349
 30
0.0
 40
0.0574646
 41
0.0574646
  0
VERTEX
  8
0
 10
0.740886
 20
1.75315
 30
0.0
 40
0.0574646
 41
0.0574646
  0
VERTEX
  8
0
 10
0.745931
 20
1.72825
 30
0.0
 40
0.0574646
 41
0.0574646
  0
SEQEND
 8
0
  0
POLYLINE
  8
0
 62
     0
 66
     1
 10
0
 20
0
 30
0.0
 70
     1
 40
2.83465
 41
2.83465
  0
VERTEX
  8
0
 10
0.430826
 20
1.21983
 30
0.0
 40
0.0393701
 41
0.0393701
  0
VERTEX
  8
0
 10
0.930826
 20
1.21983
 30
0.0
 40
0.0393701
 41
0.0393701
  0
VERTEX
  8
0
 10
0.930339
 20
1.21126
 30
0.0
 40
0.0393701
 41
0.0393701
  0
VERTEX
  8
0
 10
0.926921
 20
1.18864
 30
0.0
 40
0.0393701
 41
0.0393701
  0
VERTEX
  8
0
 10
0.917643
 20
1.15657
 30
0.0
 40
0.0393701
 41
0.0393701
  0
VERTEX
  8
0
 10
0.899576
 20
1.11985
 30
0.0
 40
0.0393701
 41
0.0393701
  0
VERTEX
  8
0
 10
0.869792
 20
1.08317
 30
0.0
 40
0.0393701
 41
0.0393701
  0
VERTEX
  8
0
 10
0.825358
 20
1.05111
 30
0.0
 40
0.0393701
 41
0.0393701
  0
VERTEX
  8
0
 10
0.763346
 20
1.02848
 30
0.0
 40
0.0393701
 41
0.0393701
  0
VERTEX
  8
0
 10
0.680826
 20
1.01986
 30
0.0
 40
0.0393701
 41
0.0393701
  0
VERTEX
  8
0
 10
0.598307
 20
1.02848
 30
0.0
 40
0.0393701
 41
0.0393701
  0
VERTEX
  8
0
 10
0.536296
 20
1.05111
 30
0.0
 40
0.0393701
 41
0.0393701
  0
VERTEX
  8
0
 10
0.491863
 20
1.08317
 30
0.0
 40
0.0393701
 41
0.0393701
  0
VERTEX
  8
0
 10
0.462076
 20
1.11985
 30
0.0
 40
0.0393701
 41
0.0393701
  0
VERTEX
  8
0
 10
0.444011
 20
1.15657
 30
0.0
 40
0.0393701
 41
0.0393701
  0
VERTEX
  8
0
 10
0.434733
 20
1.18864
 30
0.0
 40
0.0393701
 41
0.0393701
  0
VERTEX
  8
0
 10
0.431315
 20
1.21126
 30
0.0
 40
0.0393701
 41
0.0393701
  0
VERTEX
  8
0
 10
0.430826
 20
1.21983
 30
0.0
 40
0.0393701
 41
0.0393701
  0
SEQEND
 8
0
  0
POLYLINE
  8
0
 62
     0
 66
     1
 10
0
 20
0
 30
0.0
 70
     1
 40
1.41837
 41
1.41837
  0
VERTEX
  8
0
 10
0.315864
 20
0.873481
 30
0.0
 40
0.0196996
 41
0.0196996
  0
VERTEX
  8
0
 10
0.30561
 20
0.863226
 30
0.0
 40
0.0196996
 41
0.0196996
  0
VERTEX
  8
0
 10
0.295301
 20
0.873481
 30
0.0
 40
0.0196996
 41
0.0196996
  0
VERTEX
  8
0
 10
0.30561
 20
0.883735
 30
0.0
 40
0.0196996
 41
0.0196996
  0
VERTEX
  8
0
 10
0.315864
 20
0.873481
 30
0.0
 40
0.0196996
 41
0.0196996
  0
SEQEND
 8
0
  0
POLYLINE
  8
0
 62
     0
 66
     1
 10
0
 20
0
 30
0.0
 70
     1
 40
1.41837
 41
1.41837
  0
VERTEX
  8
0
 10
0.315864
 20
1.30653
 30
0.0
 40
0.0196996
 41
0.0196996
  0
VERTEX
  8
0
 10
0.30561
 20
1.29628
 30
0.0
 40
0.0196996
 41
0.0196996
  0
VERTEX
  8
0
 10
0.295301
 20
1.30653
 30
0.0
 40
0.0196996
 41
0.0196996
  0
VERTEX
  8
0
 10
0.30561
 20
1.31684
 30
0.0
 40
0.0196996
 41
0.0196996
  0
VERTEX
  8
0
 10
0.315864
 20
1.30653
 30
0.0
 40
0.0196996
 41
0.0196996
  0
SEQEND
 8
0
  0
POLYLINE
  8
0
 62
     0
 66
     1
 10
0
 20
0
 30
0.0
 70
     1
 40
1.41837
 41
1.41837
  0
VERTEX
  8
0
 10
1.06673
 20
0.879503
 30
0.0
 40
0.0196996
 41
0.0196996
  0
VERTEX
  8
0
 10
1.05642
 20
0.869249
 30
0.0
 40
0.0196996
 41
0.0196996
  0
VERTEX
  8
0
 10
1.04617
 20
0.879503
 30
0.0
 40
0.0196996
 41
0.0196996
  0
VERTEX
  8
0
 10
1.05642
 20
0.889811
 30
0.0
 40
0.0196996
 41
0.0196996
  0
VERTEX
  8
0
 10
1.06673
 20
0.879503
 30
0.0
 40
0.0196996
 41
0.0196996
  0
SEQEND
 8
0
  0
POLYLINE
  8
0
 62
     0
 66
     1
 10
0
 20
0
 30
0.0
 70
     1
 40
1.41837
 41
1.41837
  0
VERTEX
  8
0
 10
1.06673
 20
1.31261
 30
0.0
 40
0.0196996
 41
0.0196996
  0
VERTEX
  8
0
 10
1.05642
 20
1.3023
 30
0.0
 40
0.0196996
 41
0.0196996
  0
VERTEX
  8
0
 10
1.04617
 20
1.31261
 30
0.0
 40
0.0196996
 41
0.0196996
  0
VERTEX
  8
0
 10
1.05642
 20
1.32286
 30
0.0
 40
0.0196996
 41
0.0196996
  0
VERTEX
  8
0
 10
1.06673
 20
1.31261
 30
0.0
 40
0.0196996
 41
0.0196996
  0
SEQEND
 8
0
  0
POLYLINE
  8
0
 62
     0
 66
     1
 10
0
 20
0
 30
0.0
 70
     1
 40
1.41732
 41
1.41732
  0
VERTEX
  8
0
 10
0.427789
 20
0.305774
 30
0.0
 40
0.019685
 41
0.019685
  0
VERTEX
  8
0
 10
0.416124
 20
0.299371
 30
0.0
 40
0.019685
 41
0.019685
  0
VERTEX
  8
0
 10
0.403321
 20
0.303006
 30
0.0
 40
0.019685
 41
0.019685
  0
VERTEX
  8
0
 10
0.39681
 20
0.314671
 30
0.0
 40
0.019685
 41
0.019685
  0
VERTEX
  8
0
 10
0.400553
 20
0.327474
 30
0.0
 40
0.019685
 41
0.019685
  0
VERTEX
  8
0
 10
0.412164
 20
0.333931
 30
0.0
 40
0.019685
 41
0.019685
  0
VERTEX
  8
0
 10
0.424968
 20
0.33024
 30
0.0
 40
0.019685
 41
0.019685
  0
VERTEX
  8
0
 10
0.431424
 20
0.318632
 30
0.0
 40
0.019685
 41
0.019685
  0
VERTEX
  8
0
 10
0.427789
 20
0.305774
 30
0.0
 40
0.019685
 41
0.019685
  0
SEQEND
 8
0
  0
POLYLINE
  8
0
 62
     0
 66
     1
 10
0
 20
0
 30
0.0
 70
     1
 40
1.41732
 41
1.41732
  0
VERTEX
  8
0
 10
0.700956
 20
0.649414
 30
0.0
 40
0.019685
 41
0.019685
  0
VERTEX
  8
0
 10
0.68929
 20
0.642958
 30
0.0
 40
0.019685
 41
0.019685
  0
VERTEX
  8
0
 10
0.676542
 20
0.646593
 30
0.0
 40
0.019685
 41
0.019685
  0
VERTEX
  8
0
 10
0.670031
 20
0.658258
 30
0.0
 40
0.019685
 41
0.019685
  0
VERTEX
  8
0
 10
0.673719
 20
0.671063
 30
0.0
 40
0.019685
 41
0.019685
  0
VERTEX
  8
0
 10
0.685331
 20
0.677572
 30
0.0
 40
0.019685
 41
0.019685
  0
VERTEX
  8
0
 10
0.698189
 20
0.673828
 30
0.0
 40
0.019685
 41
0.019685
  0
VERTEX
  8
0
 10
0.70459
 20
0.662218
 30
0.0
 40
0.019685
 41
0.019685
  0
VERTEX
  8
0
 10
0.700956
 20
0.649414
 30
0.0
 40
0.019685
 41
0.019685
  0
SEQEND
 8
0
  0
POLYLINE
  8
0
 62
     0
 66
     1
 10
0
 20
0
 30
0.0
 70
     1
 40
1.24985
 41
1.24985
  0
VERTEX
  8
0
 10
0.563476
 20
0.758736
 30
0.0
 40
0.017359
 41
0.017359
  0
VERTEX
  8
0
 10
0.542861
 20
0.747342
 30
0.0
 40
0.017359
 41
0.017359
  0
VERTEX
  8
0
 10
0.520346
 20
0.753799
 30
0.0
 40
0.017359
 41
0.017359
  0
VERTEX
  8
0
 10
0.508897
 20
0.774415
 30
0.0
 40
0.017359
 41
0.017359
  0
VERTEX
  8
0
 10
0.515408
 20
0.796929
 30
0.0
 40
0.017359
 41
0.017359
  0
VERTEX
  8
0
 10
0.535917
 20
0.808376
 30
0.0
 40
0.017359
 41
0.017359
  0
VERTEX
  8
0
 10
0.55854
 20
0.801867
 30
0.0
 40
0.017359
 41
0.017359
  0
VERTEX
  8
0
 10
0.569879
 20
0.78136
 30
0.0
 40
0.017359
 41
0.017359
  0
VERTEX
  8
0
 10
0.563476
 20
0.758736
 30
0.0
 40
0.017359
 41
0.017359
  0
SEQEND
 8
0
  0
POLYLINE
  8
0
 62
     0
 66
     1
 10
0
 20
0
 30
0.0
 70
     1
 40
1.24985
 41
1.24985
  0
VERTEX
  8
0
 10
0.703343
 20
0.441243
 30
0.0
 40
0.017359
 41
0.017359
  0
VERTEX
  8
0
 10
0.682781
 20
0.429904
 30
0.0
 40
0.017359
 41
0.017359
  0
VERTEX
  8
0
 10
0.660211
 20
0.436361
 30
0.0
 40
0.017359
 41
0.017359
  0
VERTEX
  8
0
 10
0.648817
 20
0.456922
 30
0.0
 40
0.017359
 41
0.017359
  0
VERTEX
  8
0
 10
0.655328
 20
0.479492
 30
0.0
 40
0.017359
 41
0.017359
  0
VERTEX
  8
0
 10
0.675836
 20
0.490886
 30
0.0
 40
0.017359
 41
0.017359
  0
VERTEX
  8
0
 10
0.69846
 20
0.484375
 30
0.0
 40
0.017359
 41
0.017359
  0
VERTEX
  8
0
 10
0.709799
 20
0.463867
 30
0.0
 40
0.017359
 41
0.017359
  0
VERTEX
  8
0
 10
0.703343
 20
0.441243
 30
0.0
 40
0.017359
 41
0.017359
  0
SEQEND
 8
0
  0
POLYLINE
  8
0
 62
     0
 66
     1
 10
0
 20
0
 30
0.0
 70
     1
 40
1.24985
 41
1.24985
  0
VERTEX
  8
0
 10
0.904297
 20
0.693957
 30
0.0
 40
0.017359
 41
0.017359
  0
VERTEX
  8
0
 10
0.883681
 20
0.682618
 30
0.0
 40
0.017359
 41
0.017359
  0
VERTEX
  8
0
 10
0.861165
 20
0.689019
 30
0.0
 40
0.017359
 41
0.017359
  0
VERTEX
  8
0
 10
0.849718
 20
0.709636
 30
0.0
 40
0.017359
 41
0.017359
  0
VERTEX
  8
0
 10
0.856229
 20
0.73215
 30
0.0
 40
0.017359
 41
0.017359
  0
VERTEX
  8
0
 10
0.876736
 20
0.743599
 30
0.0
 40
0.017359
 41
0.017359
  0
VERTEX
  8
0
 10
0.89936
 20
0.737088
 30
0.0
 40
0.017359
 41
0.017359
  0
VERTEX
  8
0
 10
0.910699
 20
0.716581
 30
0.0
 40
0.017359
 41
0.017359
  0
VERTEX
  8
0
 10
0.904297
 20
0.693957
 30
0.0
 40
0.017359
 41
0.017359
  0
SEQEND
 8
0
  0
POLYLINE
  8
0
 62
     0
 66
     1
 10
0
 20
0
 30
0.0
 70
     1
 40
2.83465
 41
2.83465
  0
VERTEX
  8
0
 10
1.37229
 20
1.2946
 30
0.0
 40
0.0393701
 41
0.0393701
  0
VERTEX
  8
0
 10
1.38563
 20
1.44678
 30
0.0
 40
0.0393701
 41
0.0393701
  0
VERTEX
  8
0
 10
1.42301
 20
1.57411
 30
0.0
 40
0.0393701
 41
0.0393701
  0
VERTEX
  8
0
 10
1.48036
 20
1.6779
 30
0.0
 40
0.0393701
 41
0.0393701
  0
VERTEX
  8
0
 10
1.5535
 20
1.75971
 30
0.0
 40
0.0393701
 41
0.0393701
  0
VERTEX
  8
0
 10
1.63835
 20
1.82086
 30
0.0
 40
0.0393701
 41
0.0393701
  0
VERTEX
  8
0
 10
1.73085
 20
1.86279
 30
0.0
 40
0.0393701
 41
0.0393701
  0
VERTEX
  8
0
 10
1.82682
 20
1.88687
 30
0.0
 40
0.0393701
 41
0.0393701
  0
VERTEX
  8
0
 10
1.92225
 20
1.89458
 30
0.0
 40
0.0393701
 41
0.0393701
  0
VERTEX
  8
0
 10
2.01758
 20
1.88732
 30
0.0
 40
0.0393701
 41
0.0393701
  0
VERTEX
  8
0
 10
2.11339
 20
1.86431
 30
0.0
 40
0.0393701
 41
0.0393701
  0
VERTEX
  8
0
 10
2.20557
 20
1.82394
 30
0.0
 40
0.0393701
 41
0.0393701
  0
VERTEX
  8
0
 10
2.29021
 20
1.7646
 30
0.0
 40
0.0393701
 41
0.0393701
  0
VERTEX
  8
0
 10
2.36313
 20
1.68463
 30
0.0
 40
0.0393701
 41
0.0393701
  0
VERTEX
  8
0
 10
2.42031
 20
1.58242
 30
0.0
 40
0.0393701
 41
0.0393701
  0
VERTEX
  8
0
 10
2.45774
 20
1.45622
 30
0.0
 40
0.0393701
 41
0.0393701
  0
VERTEX
  8
0
 10
2.47136
 20
1.30447
 30
0.0
 40
0.0393701
 41
0.0393701
  0
VERTEX
  8
0
 10
2.47163
 20
1.13482
 30
0.0
 40
0.0393701
 41
0.0393701
  0
VERTEX
  8
0
 10
2.47185
 20
0.942546
 30
0.0
 40
0.0393701
 41
0.0393701
  0
VERTEX
  8
0
 10
2.472
 20
0.74159
 30
0.0
 40
0.0393701
 41
0.0393701
  0
VERTEX
  8
0
 10
2.47211
 20
0.545844
 30
0.0
 40
0.0393701
 41
0.0393701
  0
VERTEX
  8
0
 10
2.47222
 20
0.369358
 30
0.0
 40
0.0393701
 41
0.0393701
  0
VERTEX
  8
0
 10
2.47222
 20
0.226019
 30
0.0
 40
0.0393701
 41
0.0393701
  0
VERTEX
  8
0
 10
2.47222
 20
0.129829
 30
0.0
 40
0.0393701
 41
0.0393701
  0
VERTEX
  8
0
 10
2.47228
 20
0.0946181
 30
0.0
 40
0.0393701
 41
0.0393701
  0
VERTEX
  8
0
 10
2.46126
 20
0.0991753
 30
0.0
 40
0.0393701
 41
0.0393701
  0
VERTEX
  8
0
 10
2.4311
 20
0.111057
 30
0.0
 40
0.0393701
 41
0.0393701
  0
VERTEX
  8
0
 10
2.38569
 20
0.127713
 30
0.0
 40
0.0393701
 41
0.0393701
  0
VERTEX
  8
0
 10
2.3291
 20
0.146701
 30
0.0
 40
0.0393701
 41
0.0393701
  0
VERTEX
  8
0
 10
2.26546
 20
0.165419
 30
0.0
 40
0.0393701
 41
0.0393701
  0
VERTEX
  8
0
 10
2.19874
 20
0.181315
 30
0.0
 40
0.0393701
 41
0.0393701
  0
VERTEX
  8
0
 10
2.13297
 20
0.191894
 30
0.0
 40
0.0393701
 41
0.0393701
  0
VERTEX
  8
0
 10
2.07226
 20
0.194607
 30
0.0
 40
0.0393701
 41
0.0393701
  0
VERTEX
  8
0
 10
1.98503
 20
0.177408
 30
0.0
 40
0.0393701
 41
0.0393701
  0
VERTEX
  8
0
 10
1.90392
 20
0.143718
 30
0.0
 40
0.0393701
 41
0.0393701
  0
VERTEX
  8
0
 10
1.8195
 20
0.110514
 30
0.0
 40
0.0393701
 41
0.0393701
  0
VERTEX
  8
0
 10
1.72228
 20
0.0946181
 30
0.0
 40
0.0393701
 41
0.0393701
  0
VERTEX
  8
0
 10
1.67746
 20
0.0985243
 30
0.0
 40
0.0393701
 41
0.0393701
  0
VERTEX
  8
0
 10
1.62381
 20
0.109646
 30
0.0
 40
0.0393701
 41
0.0393701
  0
VERTEX
  8
0
 10
1.56597
 20
0.125597
 30
0.0
 40
0.0393701
 41
0.0393701
  0
VERTEX
  8
0
 10
1.50836
 20
0.144043
 30
0.0
 40
0.0393701
 41
0.0393701
  0
VERTEX
  8
0
 10
1.45568
 20
0.162597
 30
0.0
 40
0.0393701
 41
0.0393701
  0
VERTEX
  8
0
 10
1.41238
 20
0.178819
 30
0.0
 40
0.0393701
 41
0.0393701
  0
VERTEX
  8
0
 10
1.38303
 20
0.190267
 30
0.0
 40
0.0393701
 41
0.0393701
  0
VERTEX
  8
0
 10
1.37229
 20
0.194607
 30
0.0
 40
0.0393701
 41
0.0393701
  0
VERTEX
  8
0
 10
1.37229
 20
1.2946
 30
0.0
 40
0.0393701
 41
0.0393701
  0
SEQEND
 8
0
  0
POLYLINE
  8
0
 62
     0
 66
     1
 10
0
 20
0
 30
0.0
 70
     1
 40
4.13745
 41
4.13745
  0
VERTEX
  8
0
 10
1.98736
 20
1.73633
 30
0.0
 40
0.0574646
 41
0.0574646
  0
VERTEX
  8
0
 10
1.98232
 20
1.71149
 30
0.0
 40
0.0574646
 41
0.0574646
  0
VERTEX
  8
0
 10
1.96864
 20
1.69114
 30
0.0
 40
0.0574646
 41
0.0574646
  0
VERTEX
  8
0
 10
1.94829
 20
1.6774
 30
0.0
 40
0.0574646
 41
0.0574646
  0
VERTEX
  8
0
 10
1.92344
 20
1.67236
 30
0.0
 40
0.0574646
 41
0.0574646
  0
VERTEX
  8
0
 10
1.89854
 20
1.6774
 30
0.0
 40
0.0574646
 41
0.0574646
  0
VERTEX
  8
0
 10
1.87819
 20
1.69114
 30
0.0
 40
0.0574646
 41
0.0574646
  0
VERTEX
  8
0
 10
1.86453
 20
1.71149
 30
0.0
 40
0.0574646
 41
0.0574646
  0
VERTEX
  8
0
 10
1.85954
 20
1.73633
 30
0.0
 40
0.0574646
 41
0.0574646
  0
VERTEX
  8
0
 10
1.86453
 20
1.76124
 30
0.0
 40
0.0574646
 41
0.0574646
  0
VERTEX
  8
0
 10
1.87819
 20
1.78157
 30
0.0
 40
0.0574646
 41
0.0574646
  0
VERTEX
  8
0
 10
1.89854
 20
1.79525
 30
0.0
 40
0.0574646
 41
0.0574646
  0
VERTEX
  8
0
 10
1.92344
 20
1.80024
 30
0.0
 40
0.0574646
 41
0.0574646
  0
VERTEX
  8
0
 10
1.94829
 20
1.79525
 30
0.0
 40
0.0574646
 41
0.0574646
  0
VERTEX
  8
0
 10
1.96864
 20
1.78157
 30
0.0
 40
0.0574646
 41
0.0574646
  0
VERTEX
  8
0
 10
1.98232
 20
1.76124
 30
0.0
 40
0.0574646
 41
0.0574646
  0
VERTEX
  8
0
 10
1.98736
 20
1.73633
 30
0.0
 40
0.0574646
 41
0.0574646
  0
SEQEND
 8
0
  0
POLYLINE
  8
0
 62
     0
 66
     1
 10
0
 20
0
 30
0.0
 70
     1
 40
2.83465
 41
2.83465
  0
VERTEX
  8
0
 10
1.67225
 20
1.22792
 30
0.0
 40
0.0393701
 41
0.0393701
  0
VERTEX
  8
0
 10
2.17225
 20
1.22792
 30
0.0
 40
0.0393701
 41
0.0393701
  0
VERTEX
  8
0
 10
2.17176
 20
1.21935
 30
0.0
 40
0.0393701
 41
0.0393701
  0
VERTEX
  8
0
 10
2.16835
 20
1.19672
 30
0.0
 40
0.0393701
 41
0.0393701
  0
VERTEX
  8
0
 10
2.15907
 20
1.16466
 30
0.0
 40
0.0393701
 41
0.0393701
  0
VERTEX
  8
0
 10
2.141
 20
1.12793
 30
0.0
 40
0.0393701
 41
0.0393701
  0
VERTEX
  8
0
 10
2.11122
 20
1.09125
 30
0.0
 40
0.0393701
 41
0.0393701
  0
VERTEX
  8
0
 10
2.06679
 20
1.05919
 30
0.0
 40
0.0393701
 41
0.0393701
  0
VERTEX
  8
0
 10
2.00478
 20
1.03657
 30
0.0
 40
0.0393701
 41
0.0393701
  0
VERTEX
  8
0
 10
1.92225
 20
1.02794
 30
0.0
 40
0.0393701
 41
0.0393701
  0
VERTEX
  8
0
 10
1.83974
 20
1.03657
 30
0.0
 40
0.0393701
 41
0.0393701
  0
VERTEX
  8
0
 10
1.77772
 20
1.05919
 30
0.0
 40
0.0393701
 41
0.0393701
  0
VERTEX
  8
0
 10
1.73329
 20
1.09125
 30
0.0
 40
0.0393701
 41
0.0393701
  0
VERTEX
  8
0
 10
1.7035
 20
1.12793
 30
0.0
 40
0.0393701
 41
0.0393701
  0
VERTEX
  8
0
 10
1.68544
 20
1.16466
 30
0.0
 40
0.0393701
 41
0.0393701
  0
VERTEX
  8
0
 10
1.67617
 20
1.19672
 30
0.0
 40
0.0393701
 41
0.0393701
  0
VERTEX
  8
0
 10
1.67275
 20
1.21935
 30
0.0
 40
0.0393701
 41
0.0393701
  0
VERTEX
  8
0
 10
1.67225
 20
1.22792
 30
0.0
 40
0.0393701
 41
0.0393701
  0
SEQEND
 8
0
  0
POLYLINE
  8
0
 62
     0
 66
     1
 10
0
 20
0
 30
0.0
 70
     1
 40
1.41837
 41
1.41837
  0
VERTEX
  8
0
 10
1.55729
 20
0.881565
 30
0.0
 40
0.0196996
 41
0.0196996
  0
VERTEX
  8
0
 10
1.54704
 20
0.871311
 30
0.0
 40
0.0196996
 41
0.0196996
  0
VERTEX
  8
0
 10
1.53674
 20
0.881565
 30
0.0
 40
0.0196996
 41
0.0196996
  0
VERTEX
  8
0
 10
1.54704
 20
0.891818
 30
0.0
 40
0.0196996
 41
0.0196996
  0
VERTEX
  8
0
 10
1.55729
 20
0.881565
 30
0.0
 40
0.0196996
 41
0.0196996
  0
SEQEND
 8
0
  0
POLYLINE
  8
0
 62
     0
 66
     1
 10
0
 20
0
 30
0.0
 70
     1
 40
1.41837
 41
1.41837
  0
VERTEX
  8
0
 10
1.55729
 20
1.31462
 30
0.0
 40
0.0196996
 41
0.0196996
  0
VERTEX
  8
0
 10
1.54704
 20
1.30436
 30
0.0
 40
0.0196996
 41
0.0196996
  0
VERTEX
  8
0
 10
1.53674
 20
1.31462
 30
0.0
 40
0.0196996
 41
0.0196996
  0
VERTEX
  8
0
 10
1.54704
 20
1.32492
 30
0.0
 40
0.0196996
 41
0.0196996
  0
VERTEX
  8
0
 10
1.55729
 20
1.31462
 30
0.0
 40
0.0196996
 41
0.0196996
  0
SEQEND
 8
0
  0
POLYLINE
  8
0
 62
     0
 66
     1
 10
0
 20
0
 30
0.0
 70
     1
 40
1.41837
 41
1.41837
  0
VERTEX
  8
0
 10
2.30817
 20
0.887586
 30
0.0
 40
0.0196996
 41
0.0196996
  0
VERTEX
  8
0
 10
2.29785
 20
0.877333
 30
0.0
 40
0.0196996
 41
0.0196996
  0
VERTEX
  8
0
 10
2.2876
 20
0.887586
 30
0.0
 40
0.0196996
 41
0.0196996
  0
VERTEX
  8
0
 10
2.29785
 20
0.897894
 30
0.0
 40
0.0196996
 41
0.0196996
  0
VERTEX
  8
0
 10
2.30817
 20
0.887586
 30
0.0
 40
0.0196996
 41
0.0196996
  0
SEQEND
 8
0
  0
POLYLINE
  8
0
 62
     0
 66
     1
 10
0
 20
0
 30
0.0
 70
     1
 40
1.41837
 41
1.41837
  0
VERTEX
  8
0
 10
2.30817
 20
1.32069
 30
0.0
 40
0.0196996
 41
0.0196996
  0
VERTEX
  8
0
 10
2.29785
 20
1.31038
 30
0.0
 40
0.0196996
 41
0.0196996
  0
VERTEX
  8
0
 10
2.2876
 20
1.32069
 30
0.0
 40
0.0196996
 41
0.0196996
  0
VERTEX
  8
0
 10
2.29785
 20
1.33095
 30
0.0
 40
0.0196996
 41
0.0196996
  0
VERTEX
  8
0
 10
2.30817
 20
1.32069
 30
0.0
 40
0.0196996
 41
0.0196996
  0
SEQEND
 8
0
  0
POLYLINE
  8
0
 62
     0
 66
     1
 10
0
 20
0
 30
0.0
 70
     1
 40
1.41732
 41
1.41732
  0
VERTEX
  8
0
 10
1.66922
 20
0.313857
 30
0.0
 40
0.019685
 41
0.019685
  0
VERTEX
  8
0
 10
1.65756
 20
0.307454
 30
0.0
 40
0.019685
 41
0.019685
  0
VERTEX
  8
0
 10
1.64475
 20
0.311089
 30
0.0
 40
0.019685
 41
0.019685
  0
VERTEX
  8
0
 10
1.63824
 20
0.322754
 30
0.0
 40
0.019685
 41
0.019685
  0
VERTEX
  8
0
 10
1.64193
 20
0.335558
 30
0.0
 40
0.019685
 41
0.019685
  0
VERTEX
  8
0
 10
1.6536
 20
0.342014
 30
0.0
 40
0.019685
 41
0.019685
  0
VERTEX
  8
0
 10
1.66639
 20
0.338325
 30
0.0
 40
0.019685
 41
0.019685
  0
VERTEX
  8
0
 10
1.67285
 20
0.326714
 30
0.0
 40
0.019685
 41
0.019685
  0
VERTEX
  8
0
 10
1.66922
 20
0.313857
 30
0.0
 40
0.019685
 41
0.019685
  0
SEQEND
 8
0
  0
POLYLINE
  8
0
 62
     0
 66
     1
 10
0
 20
0
 30
0.0
 70
     1
 40
1.41732
 41
1.41732
  0
VERTEX
  8
0
 10
1.94239
 20
0.657499
 30
0.0
 40
0.019685
 41
0.019685
  0
VERTEX
  8
0
 10
1.93072
 20
0.651043
 30
0.0
 40
0.019685
 41
0.019685
  0
VERTEX
  8
0
 10
1.91797
 20
0.654676
 30
0.0
 40
0.019685
 41
0.019685
  0
VERTEX
  8
0
 10
1.91146
 20
0.666342
 30
0.0
 40
0.019685
 41
0.019685
  0
VERTEX
  8
0
 10
1.91515
 20
0.679146
 30
0.0
 40
0.019685
 41
0.019685
  0
VERTEX
  8
0
 10
1.92676
 20
0.685656
 30
0.0
 40
0.019685
 41
0.019685
  0
VERTEX
  8
0
 10
1.93961
 20
0.681912
 30
0.0
 40
0.019685
 41
0.019685
  0
VERTEX
  8
0
 10
1.94601
 20
0.670301
 30
0.0
 40
0.019685
 41
0.019685
  0
VERTEX
  8
0
 10
1.94239
 20
0.657499
 30
0.0
 40
0.019685
 41
0.019685
  0
SEQEND
 8
0
  0
POLYLINE
  8
0
 62
     0
 66
     1
 10
0
 20
0
 30
0.0
 70
     1
 40
1.24985
 41
1.24985
  0
VERTEX
  8
0
 10
1.8049
 20
0.766819
 30
0.0
 40
0.017359
 41
0.017359
  0
VERTEX
  8
0
 10
1.78429
 20
0.755426
 30
0.0
 40
0.017359
 41
0.017359
  0
VERTEX
  8
0
 10
1.76178
 20
0.761882
 30
0.0
 40
0.017359
 41
0.017359
  0
VERTEX
  8
0
 10
1.75032
 20
0.782499
 30
0.0
 40
0.017359
 41
0.017359
  0
VERTEX
  8
0
 10
1.75683
 20
0.805014
 30
0.0
 40
0.017359
 41
0.017359
  0
VERTEX
  8
0
 10
1.77735
 20
0.816461
 30
0.0
 40
0.017359
 41
0.017359
  0
VERTEX
  8
0
 10
1.79997
 20
0.809951
 30
0.0
 40
0.017359
 41
0.017359
  0
VERTEX
  8
0
 10
1.81131
 20
0.789443
 30
0.0
 40
0.017359
 41
0.017359
  0
VERTEX
  8
0
 10
1.8049
 20
0.766819
 30
0.0
 40
0.017359
 41
0.017359
  0
SEQEND
 8
0
  0
POLYLINE
  8
0
 62
     0
 66
     1
 10
0
 20
0
 30
0.0
 70
     1
 40
1.24985
 41
1.24985
  0
VERTEX
  8
0
 10
1.94476
 20
0.449382
 30
0.0
 40
0.017359
 41
0.017359
  0
VERTEX
  8
0
 10
1.92421
 20
0.437989
 30
0.0
 40
0.017359
 41
0.017359
  0
VERTEX
  8
0
 10
1.90164
 20
0.444446
 30
0.0
 40
0.017359
 41
0.017359
  0
VERTEX
  8
0
 10
1.89025
 20
0.465007
 30
0.0
 40
0.017359
 41
0.017359
  0
VERTEX
  8
0
 10
1.89675
 20
0.487576
 30
0.0
 40
0.017359
 41
0.017359
  0
VERTEX
  8
0
 10
1.91726
 20
0.498969
 30
0.0
 40
0.017359
 41
0.017359
  0
VERTEX
  8
0
 10
1.93989
 20
0.492458
 30
0.0
 40
0.017359
 41
0.017359
  0
VERTEX
  8
0
 10
1.95122
 20
0.471951
 30
0.0
 40
0.017359
 41
0.017359
  0
VERTEX
  8
0
 10
1.94476
 20
0.449382
 30
0.0
 40
0.017359
 41
0.017359
  0
SEQEND
 8
0
  0
POLYLINE
  8
0
 62
     0
 66
     1
 10
0
 20
0
 30
0.0
 70
     1
 40
1.24985
 41
1.24985
  0
VERTEX
  8
0
 10
2.14572
 20
0.70204
 30
0.0
 40
0.017359
 41
0.017359
  0
VERTEX
  8
0
 10
2.12511
 20
0.690701
 30
0.0
 40
0.017359
 41
0.017359
  0
VERTEX
  8
0
 10
2.1026
 20
0.697103
 30
0.0
 40
0.017359
 41
0.017359
  0
VERTEX
  8
0
 10
2.09115
 20
0.717719
 30
0.0
 40
0.017359
 41
0.017359
  0
VERTEX
  8
0
 10
2.09765
 20
0.740235
 30
0.0
 40
0.017359
 41
0.017359
  0
VERTEX
  8
0
 10
2.11817
 20
0.751683
 30
0.0
 40
0.017359
 41
0.017359
  0
VERTEX
  8
0
 10
2.14079
 20
0.745172
 30
0.0
 40
0.017359
 41
0.017359
  0
VERTEX
  8
0
 10
2.15213
 20
0.724664
 30
0.0
 40
0.017359
 41
0.017359
  0
VERTEX
  8
0
 10
2.14572
 20
0.70204
 30
0.0
 40
0.017359
 41
0.017359
  0
SEQEND
 8
0
  0
POLYLINE
  8
0
 62
     0
 66
     1
 10
0
 20
0
 30
0.0
 70
     1
 40
2.83465
 41
2.83465
  0
VERTEX
  8
0
 10
2.61669
 20
1.31684
 30
0.0
 40
0.0393701
 41
0.0393701
  0
VERTEX
  8
0
 10
2.63004
 20
1.46903
 30
0.0
 40
0.0393701
 41
0.0393701
  0
VERTEX
  8
0
 10
2.66749
 20
1.59631
 30
0.0
 40
0.0393701
 41
0.0393701
  0
VERTEX
  8
0
 10
2.72478
 20
1.70014
 30
0.0
 40
0.0393701
 41
0.0393701
  0
VERTEX
  8
0
 10
2.79796
 20
1.7819
 30
0.0
 40
0.0393701
 41
0.0393701
  0
VERTEX
  8
0
 10
2.88281
 20
1.8431
 30
0.0
 40
0.0393701
 41
0.0393701
  0
VERTEX
  8
0
 10
2.97526
 20
1.88499
 30
0.0
 40
0.0393701
 41
0.0393701
  0
VERTEX
  8
0
 10
3.07129
 20
1.90913
 30
0.0
 40
0.0393701
 41
0.0393701
  0
VERTEX
  8
0
 10
3.16672
 20
1.91683
 30
0.0
 40
0.0393701
 41
0.0393701
  0
VERTEX
  8
0
 10
3.26204
 20
1.90956
 30
0.0
 40
0.0393701
 41
0.0393701
  0
VERTEX
  8
0
 10
3.35781
 20
1.88656
 30
0.0
 40
0.0393701
 41
0.0393701
  0
VERTEX
  8
0
 10
3.45003
 20
1.84619
 30
0.0
 40
0.0393701
 41
0.0393701
  0
VERTEX
  8
0
 10
3.53461
 20
1.78683
 30
0.0
 40
0.0393701
 41
0.0393701
  0
VERTEX
  8
0
 10
3.60753
 20
1.70687
 30
0.0
 40
0.0393701
 41
0.0393701
  0
VERTEX
  8
0
 10
3.66476
 20
1.6046
 30
0.0
 40
0.0393701
 41
0.0393701
  0
VERTEX
  8
0
 10
3.70215
 20
1.4784
 30
0.0
 40
0.0393701
 41
0.0393701
  0
VERTEX
  8
0
 10
3.71582
 20
1.32666
 30
0.0
 40
0.0393701
 41
0.0393701
  0
VERTEX
  8
0
 10
3.7161
 20
1.15701
 30
0.0
 40
0.0393701
 41
0.0393701
  0
VERTEX
  8
0
 10
3.71631
 20
0.964735
 30
0.0
 40
0.0393701
 41
0.0393701
  0
VERTEX
  8
0
 10
3.71647
 20
0.763781
 30
0.0
 40
0.0393701
 41
0.0393701
  0
VERTEX
  8
0
 10
3.71658
 20
0.568088
 30
0.0
 40
0.0393701
 41
0.0393701
  0
VERTEX
  8
0
 10
3.71664
 20
0.391601
 30
0.0
 40
0.0393701
 41
0.0393701
  0
VERTEX
  8
0
 10
3.71664
 20
0.248264
 30
0.0
 40
0.0393701
 41
0.0393701
  0
VERTEX
  8
0
 10
3.71664
 20
0.152018
 30
0.0
 40
0.0393701
 41
0.0393701
  0
VERTEX
  8
0
 10
3.71669
 20
0.116808
 30
0.0
 40
0.0393701
 41
0.0393701
  0
VERTEX
  8
0
 10
3.70568
 20
0.121365
 30
0.0
 40
0.0393701
 41
0.0393701
  0
VERTEX
  8
0
 10
3.67551
 20
0.133247
 30
0.0
 40
0.0393701
 41
0.0393701
  0
VERTEX
  8
0
 10
3.6301
 20
0.149903
 30
0.0
 40
0.0393701
 41
0.0393701
  0
VERTEX
  8
0
 10
3.57357
 20
0.168892
 30
0.0
 40
0.0393701
 41
0.0393701
  0
VERTEX
  8
0
 10
3.50988
 20
0.187608
 30
0.0
 40
0.0393701
 41
0.0393701
  0
VERTEX
  8
0
 10
3.44319
 20
0.203558
 30
0.0
 40
0.0393701
 41
0.0393701
  0
VERTEX
  8
0
 10
3.37744
 20
0.214139
 30
0.0
 40
0.0393701
 41
0.0393701
  0
VERTEX
  8
0
 10
3.31674
 20
0.216851
 30
0.0
 40
0.0393701
 41
0.0393701
  0
VERTEX
  8
0
 10
3.22949
 20
0.199653
 30
0.0
 40
0.0393701
 41
0.0393701
  0
VERTEX
  8
0
 10
3.14839
 20
0.165961
 30
0.0
 40
0.0393701
 41
0.0393701
  0
VERTEX
  8
0
 10
3.06392
 20
0.132704
 30
0.0
 40
0.0393701
 41
0.0393701
  0
VERTEX
  8
0
 10
2.96669
 20
0.116808
 30
0.0
 40
0.0393701
 41
0.0393701
  0
VERTEX
  8
0
 10
2.92188
 20
0.120714
 30
0.0
 40
0.0393701
 41
0.0393701
  0
VERTEX
  8
0
 10
2.86828
 20
0.131836
 30
0.0
 40
0.0393701
 41
0.0393701
  0
VERTEX
  8
0
 10
2.81039
 20
0.14784
 30
0.0
 40
0.0393701
 41
0.0393701
  0
VERTEX
  8
0
 10
2.75282
 20
0.166288
 30
0.0
 40
0.0393701
 41
0.0393701
  0
VERTEX
  8
0
 10
2.70008
 20
0.184842
 30
0.0
 40
0.0393701
 41
0.0393701
  0
VERTEX
  8
0
 10
2.65679
 20
0.201064
 30
0.0
 40
0.0393701
 41
0.0393701
  0
VERTEX
  8
0
 10
2.62744
 20
0.212511
 30
0.0
 40
0.0393701
 41
0.0393701
  0
VERTEX
  8
0
 10
2.61669
 20
0.216851
 30
0.0
 40
0.0393701
 41
0.0393701
  0
VERTEX
  8
0
 10
2.61669
 20
1.31684
 30
0.0
 40
0.0393701
 41
0.0393701
  0
SEQEND
 8
0
  0
POLYLINE
  8
0
 62
     0
 66
     1
 10
0
 20
0
 30
0.0
 70
     1
 40
4.13745
 41
4.13745
  0
VERTEX
  8
0
 10
3.23182
 20
1.75851
 30
0.0
 40
0.0574646
 41
0.0574646
  0
VERTEX
  8
0
 10
3.22678
 20
1.73367
 30
0.0
 40
0.0574646
 41
0.0574646
  0
VERTEX
  8
0
 10
3.21306
 20
1.71337
 30
0.0
 40
0.0574646
 41
0.0574646
  0
VERTEX
  8
0
 10
3.19276
 20
1.69965
 30
0.0
 40
0.0574646
 41
0.0574646
  0
VERTEX
  8
0
 10
3.16792
 20
1.69461
 30
0.0
 40
0.0574646
 41
0.0574646
  0
VERTEX
  8
0
 10
3.14301
 20
1.69965
 30
0.0
 40
0.0574646
 41
0.0574646
  0
VERTEX
  8
0
 10
3.12267
 20
1.71337
 30
0.0
 40
0.0574646
 41
0.0574646
  0
VERTEX
  8
0
 10
3.10894
 20
1.73367
 30
0.0
 40
0.0574646
 41
0.0574646
  0
VERTEX
  8
0
 10
3.10394
 20
1.75851
 30
0.0
 40
0.0574646
 41
0.0574646
  0
VERTEX
  8
0
 10
3.10894
 20
1.78342
 30
0.0
 40
0.0574646
 41
0.0574646
  0
VERTEX
  8
0
 10
3.12267
 20
1.80376
 30
0.0
 40
0.0574646
 41
0.0574646
  0
VERTEX
  8
0
 10
3.14301
 20
1.81749
 30
0.0
 40
0.0574646
 41
0.0574646
  0
VERTEX
  8
0
 10
3.16792
 20
1.82249
 30
0.0
 40
0.0574646
 41
0.0574646
  0
VERTEX
  8
0
 10
3.19276
 20
1.81749
 30
0.0
 40
0.0574646
 41
0.0574646
  0
VERTEX
  8
0
 10
3.21306
 20
1.80376
 30
0.0
 40
0.0574646
 41
0.0574646
  0
VERTEX
  8
0
 10
3.22678
 20
1.78342
 30
0.0
 40
0.0574646
 41
0.0574646
  0
VERTEX
  8
0
 10
3.23182
 20
1.75851
 30
0.0
 40
0.0574646
 41
0.0574646
  0
SEQEND
 8
0
  0
POLYLINE
  8
0
 62
     0
 66
     1
 10
0
 20
0
 30
0.0
 70
     1
 40
2.83465
 41
2.83465
  0
VERTEX
  8
0
 10
2.91672
 20
1.25016
 30
0.0
 40
0.0393701
 41
0.0393701
  0
VERTEX
  8
0
 10
3.41672
 20
1.25016
 30
0.0
 40
0.0393701
 41
0.0393701
  0
VERTEX
  8
0
 10
3.41624
 20
1.24159
 30
0.0
 40
0.0393701
 41
0.0393701
  0
VERTEX
  8
0
 10
3.41282
 20
1.21897
 30
0.0
 40
0.0393701
 41
0.0393701
  0
VERTEX
  8
0
 10
3.40354
 20
1.1869
 30
0.0
 40
0.0393701
 41
0.0393701
  0
VERTEX
  8
0
 10
3.38547
 20
1.15017
 30
0.0
 40
0.0393701
 41
0.0393701
  0
VERTEX
  8
0
 10
3.35568
 20
1.1135
 30
0.0
 40
0.0393701
 41
0.0393701
  0
VERTEX
  8
0
 10
3.31125
 20
1.08143
 30
0.0
 40
0.0393701
 41
0.0393701
  0
VERTEX
  8
0
 10
3.24924
 20
1.05881
 30
0.0
 40
0.0393701
 41
0.0393701
  0
VERTEX
  8
0
 10
3.16672
 20
1.05018
 30
0.0
 40
0.0393701
 41
0.0393701
  0
VERTEX
  8
0
 10
3.08419
 20
1.05881
 30
0.0
 40
0.0393701
 41
0.0393701
  0
VERTEX
  8
0
 10
3.02219
 20
1.08143
 30
0.0
 40
0.0393701
 41
0.0393701
  0
VERTEX
  8
0
 10
2.97775
 20
1.1135
 30
0.0
 40
0.0393701
 41
0.0393701
  0
VERTEX
  8
0
 10
2.94797
 20
1.15017
 30
0.0
 40
0.0393701
 41
0.0393701
  0
VERTEX
  8
0
 10
2.9299
 20
1.1869
 30
0.0
 40
0.0393701
 41
0.0393701
  0
VERTEX
  8
0
 10
2.92063
 20
1.21897
 30
0.0
 40
0.0393701
 41
0.0393701
  0
VERTEX
  8
0
 10
2.91721
 20
1.24159
 30
0.0
 40
0.0393701
 41
0.0393701
  0
VERTEX
  8
0
 10
2.91672
 20
1.25016
 30
0.0
 40
0.0393701
 41
0.0393701
  0
SEQEND
 8
0
  0
POLYLINE
  8
0
 62
     0
 66
     1
 10
0
 20
0
 30
0.0
 70
     1
 40
1.41837
 41
1.41837
  0
VERTEX
  8
0
 10
2.80176
 20
0.903808
 30
0.0
 40
0.0196996
 41
0.0196996
  0
VERTEX
  8
0
 10
2.79144
 20
0.8935
 30
0.0
 40
0.0196996
 41
0.0196996
  0
VERTEX
  8
0
 10
2.78119
 20
0.903808
 30
0.0
 40
0.0196996
 41
0.0196996
  0
VERTEX
  8
0
 10
2.79144
 20
0.914063
 30
0.0
 40
0.0196996
 41
0.0196996
  0
VERTEX
  8
0
 10
2.80176
 20
0.903808
 30
0.0
 40
0.0196996
 41
0.0196996
  0
SEQEND
 8
0
  0
POLYLINE
  8
0
 62
     0
 66
     1
 10
0
 20
0
 30
0.0
 70
     1
 40
1.41837
 41
1.41837
  0
VERTEX
  8
0
 10
2.80176
 20
1.33686
 30
0.0
 40
0.0196996
 41
0.0196996
  0
VERTEX
  8
0
 10
2.79144
 20
1.32661
 30
0.0
 40
0.0196996
 41
0.0196996
  0
VERTEX
  8
0
 10
2.78119
 20
1.33686
 30
0.0
 40
0.0196996
 41
0.0196996
  0
VERTEX
  8
0
 10
2.79144
 20
1.34711
 30
0.0
 40
0.0196996
 41
0.0196996
  0
VERTEX
  8
0
 10
2.80176
 20
1.33686
 30
0.0
 40
0.0196996
 41
0.0196996
  0
SEQEND
 8
0
  0
POLYLINE
  8
0
 62
     0
 66
     1
 10
0
 20
0
 30
0.0
 70
     1
 40
1.41837
 41
1.41837
  0
VERTEX
  8
0
 10
3.55257
 20
0.909831
 30
0.0
 40
0.0196996
 41
0.0196996
  0
VERTEX
  8
0
 10
3.54232
 20
0.899576
 30
0.0
 40
0.0196996
 41
0.0196996
  0
VERTEX
  8
0
 10
3.53207
 20
0.909831
 30
0.0
 40
0.0196996
 41
0.0196996
  0
VERTEX
  8
0
 10
3.54232
 20
0.920085
 30
0.0
 40
0.0196996
 41
0.0196996
  0
VERTEX
  8
0
 10
3.55257
 20
0.909831
 30
0.0
 40
0.0196996
 41
0.0196996
  0
SEQEND
 8
0
  0
POLYLINE
  8
0
 62
     0
 66
     1
 10
0
 20
0
 30
0.0
 70
     1
 40
1.41837
 41
1.41837
  0
VERTEX
  8
0
 10
3.55257
 20
1.34288
 30
0.0
 40
0.0196996
 41
0.0196996
  0
VERTEX
  8
0
 10
3.54232
 20
1.33263
 30
0.0
 40
0.0196996
 41
0.0196996
  0
VERTEX
  8
0
 10
3.53207
 20
1.34288
 30
0.0
 40
0.0196996
 41
0.0196996
  0
VERTEX
  8
0
 10
3.54232
 20
1.35319
 30
0.0
 40
0.0196996
 41
0.0196996
  0
VERTEX
  8
0
 10
3.55257
 20
1.34288
 30
0.0
 40
0.0196996
 41
0.0196996
  0
SEQEND
 8
0
  0
POLYLINE
  8
0
 62
     0
 66
     1
 10
0
 20
0
 30
0.0
 70
     1
 40
1.41732
 41
1.41732
  0
VERTEX
  8
0
 10
2.91363
 20
0.3361
 30
0.0
 40
0.019685
 41
0.019685
  0
VERTEX
  8
0
 10
2.90196
 20
0.329644
 30
0.0
 40
0.019685
 41
0.019685
  0
VERTEX
  8
0
 10
2.88921
 20
0.333333
 30
0.0
 40
0.019685
 41
0.019685
  0
VERTEX
  8
0
 10
2.88271
 20
0.344997
 30
0.0
 40
0.019685
 41
0.019685
  0
VERTEX
  8
0
 10
2.88639
 20
0.357747
 30
0.0
 40
0.019685
 41
0.019685
  0
VERTEX
  8
0
 10
2.898
 20
0.364258
 30
0.0
 40
0.019685
 41
0.019685
  0
VERTEX
  8
0
 10
2.91086
 20
0.360569
 30
0.0
 40
0.019685
 41
0.019685
  0
VERTEX
  8
0
 10
2.91726
 20
0.348906
 30
0.0
 40
0.019685
 41
0.019685
  0
VERTEX
  8
0
 10
2.91363
 20
0.3361
 30
0.0
 40
0.019685
 41
0.019685
  0
SEQEND
 8
0
  0
POLYLINE
  8
0
 62
     0
 66
     1
 10
0
 20
0
 30
0.0
 70
     1
 40
1.41732
 41
1.41732
  0
VERTEX
  8
0
 10
3.18685
 20
0.679688
 30
0.0
 40
0.019685
 41
0.019685
  0
VERTEX
  8
0
 10
3.17518
 20
0.673286
 30
0.0
 40
0.019685
 41
0.019685
  0
VERTEX
  8
0
 10
3.16237
 20
0.676921
 30
0.0
 40
0.019685
 41
0.019685
  0
VERTEX
  8
0
 10
3.15588
 20
0.688586
 30
0.0
 40
0.019685
 41
0.019685
  0
VERTEX
  8
0
 10
3.15961
 20
0.701335
 30
0.0
 40
0.019685
 41
0.019685
  0
VERTEX
  8
0
 10
3.17122
 20
0.707846
 30
0.0
 40
0.019685
 41
0.019685
  0
VERTEX
  8
0
 10
3.18403
 20
0.704156
 30
0.0
 40
0.019685
 41
0.019685
  0
VERTEX
  8
0
 10
3.19049
 20
0.692546
 30
0.0
 40
0.019685
 41
0.019685
  0
VERTEX
  8
0
 10
3.18685
 20
0.679688
 30
0.0
 40
0.019685
 41
0.019685
  0
SEQEND
 8
0
  0
POLYLINE
  8
0
 62
     0
 66
     1
 10
0
 20
0
 30
0.0
 70
     1
 40
1.24985
 41
1.24985
  0
VERTEX
  8
0
 10
3.04932
 20
0.789063
 30
0.0
 40
0.017359
 41
0.017359
  0
VERTEX
  8
0
 10
3.02875
 20
0.777669
 30
0.0
 40
0.017359
 41
0.017359
  0
VERTEX
  8
0
 10
3.00618
 20
0.784126
 30
0.0
 40
0.017359
 41
0.017359
  0
VERTEX
  8
0
 10
2.99479
 20
0.804688
 30
0.0
 40
0.017359
 41
0.017359
  0
VERTEX
  8
0
 10
3.00131
 20
0.827257
 30
0.0
 40
0.017359
 41
0.017359
  0
VERTEX
  8
0
 10
3.02181
 20
0.83865
 30
0.0
 40
0.017359
 41
0.017359
  0
VERTEX
  8
0
 10
3.04438
 20
0.83214
 30
0.0
 40
0.017359
 41
0.017359
  0
VERTEX
  8
0
 10
3.05578
 20
0.811633
 30
0.0
 40
0.017359
 41
0.017359
  0
VERTEX
  8
0
 10
3.04932
 20
0.789063
 30
0.0
 40
0.017359
 41
0.017359
  0
SEQEND
 8
0
  0
POLYLINE
  8
0
 62
     0
 66
     1
 10
0
 20
0
 30
0.0
 70
     1
 40
1.24985
 41
1.24985
  0
VERTEX
  8
0
 10
3.18924
 20
0.471572
 30
0.0
 40
0.017359
 41
0.017359
  0
VERTEX
  8
0
 10
3.16868
 20
0.460233
 30
0.0
 40
0.017359
 41
0.017359
  0
VERTEX
  8
0
 10
3.14611
 20
0.466635
 30
0.0
 40
0.017359
 41
0.017359
  0
VERTEX
  8
0
 10
3.13471
 20
0.487251
 30
0.0
 40
0.017359
 41
0.017359
  0
VERTEX
  8
0
 10
3.14117
 20
0.509767
 30
0.0
 40
0.017359
 41
0.017359
  0
VERTEX
  8
0
 10
3.16174
 20
0.521215
 30
0.0
 40
0.017359
 41
0.017359
  0
VERTEX
  8
0
 10
3.18431
 20
0.514703
 30
0.0
 40
0.017359
 41
0.017359
  0
VERTEX
  8
0
 10
3.19569
 20
0.494194
 30
0.0
 40
0.017359
 41
0.017359
  0
VERTEX
  8
0
 10
3.18924
 20
0.471572
 30
0.0
 40
0.017359
 41
0.017359
  0
SEQEND
 8
0
  0
POLYLINE
  8
0
 62
     0
 66
     1
 10
0
 20
0
 30
0.0
 70
     1
 40
1.24985
 41
1.24985
  0
VERTEX
  8
0
 10
3.39014
 20
0.724285
 30
0.0
 40
0.017359
 41
0.017359
  0
VERTEX
  8
0
 10
3.36957
 20
0.71289
 30
0.0
 40
0.017359
 41
0.017359
  0
VERTEX
  8
0
 10
3.347
 20
0.719349
 30
0.0
 40
0.017359
 41
0.017359
  0
VERTEX
  8
0
 10
3.33561
 20
0.73991
 30
0.0
 40
0.017359
 41
0.017359
  0
VERTEX
  8
0
 10
3.34212
 20
0.762478
 30
0.0
 40
0.017359
 41
0.017359
  0
VERTEX
  8
0
 10
3.36262
 20
0.773872
 30
0.0
 40
0.017359
 41
0.017359
  0
VERTEX
  8
0
 10
3.38519
 20
0.767417
 30
0.0
 40
0.017359
 41
0.017359
  0
VERTEX
  8
0
 10
3.3966
 20
0.746854
 30
0.0
 40
0.017359
 41
0.017359
  0
VERTEX
  8
0
 10
3.39014
 20
0.724285
 30
0.0
 40
0.017359
 41
0.017359
  0
SEQEND
 8
0
  0
POLYLINE
  8
0
 62
     0
 66
     1
 10
0
 20
0
 30
0.0
 70
     1
 40
2.83465
 41
2.83465
  0
VERTEX
  8
0
 10
3.84451
 20
1.31684
 30
0.0
 40
0.0393701
 41
0.0393701
  0
VERTEX
  8
0
 10
3.85786
 20
1.46903
 30
0.0
 40
0.0393701
 41
0.0393701
  0
VERTEX
  8
0
 10
3.89524
 20
1.59631
 30
0.0
 40
0.0393701
 41
0.0393701
  0
VERTEX
  8
0
 10
3.95258
 20
1.70014
 30
0.0
 40
0.0393701
 41
0.0393701
  0
VERTEX
  8
0
 10
4.02572
 20
1.7819
 30
0.0
 40
0.0393701
 41
0.0393701
  0
VERTEX
  8
0
 10
4.11057
 20
1.8431
 30
0.0
 40
0.0393701
 41
0.0393701
  0
VERTEX
  8
0
 10
4.20307
 20
1.88499
 30
0.0
 40
0.0393701
 41
0.0393701
  0
VERTEX
  8
0
 10
4.29904
 20
1.90913
 30
0.0
 40
0.0393701
 41
0.0393701
  0
VERTEX
  8
0
 10
4.39447
 20
1.91683
 30
0.0
 40
0.0393701
 41
0.0393701
  0
VERTEX
  8
0
 10
4.48981
 20
1.90956
 30
0.0
 40
0.0393701
 41
0.0393701
  0
VERTEX
  8
0
 10
4.58561
 20
1.88656
 30
0.0
 40
0.0393701
 41
0.0393701
  0
VERTEX
  8
0
 10
4.67779
 20
1.84619
 30
0.0
 40
0.0393701
 41
0.0393701
  0
VERTEX
  8
0
 10
4.76243
 20
1.78683
 30
0.0
 40
0.0393701
 41
0.0393701
  0
VERTEX
  8
0
 10
4.83535
 20
1.70687
 30
0.0
 40
0.0393701
 41
0.0393701
  0
VERTEX
  8
0
 10
4.89253
 20
1.6046
 30
0.0
 40
0.0393701
 41
0.0393701
  0
VERTEX
  8
0
 10
4.92996
 20
1.4784
 30
0.0
 40
0.0393701
 41
0.0393701
  0
VERTEX
  8
0
 10
4.94358
 20
1.32666
 30
0.0
 40
0.0393701
 41
0.0393701
  0
VERTEX
  8
0
 10
4.94385
 20
1.15701
 30
0.0
 40
0.0393701
 41
0.0393701
  0
VERTEX
  8
0
 10
4.94407
 20
0.964735
 30
0.0
 40
0.0393701
 41
0.0393701
  0
VERTEX
  8
0
 10
4.94422
 20
0.763781
 30
0.0
 40
0.0393701
 41
0.0393701
  0
VERTEX
  8
0
 10
4.94433
 20
0.568088
 30
0.0
 40
0.0393701
 41
0.0393701
  0
VERTEX
  8
0
 10
4.94444
 20
0.391601
 30
0.0
 40
0.0393701
 41
0.0393701
  0
VERTEX
  8
0
 10
4.94444
 20
0.248264
 30
0.0
 40
0.0393701
 41
0.0393701
  0
VERTEX
  8
0
 10
4.94444
 20
0.152018
 30
0.0
 40
0.0393701
 41
0.0393701
  0
VERTEX
  8
0
 10
4.9445
 20
0.116808
 30
0.0
 40
0.0393701
 41
0.0393701
  0
VERTEX
  8
0
 10
4.93349
 20
0.121365
 30
0.0
 40
0.0393701
 41
0.0393701
  0
VERTEX
  8
0
 10
4.90332
 20
0.133247
 30
0.0
 40
0.0393701
 41
0.0393701
  0
VERTEX
  8
0
 10
4.85792
 20
0.149903
 30
0.0
 40
0.0393701
 41
0.0393701
  0
VERTEX
  8
0
 10
4.80132
 20
0.168892
 30
0.0
 40
0.0393701
 41
0.0393701
  0
VERTEX
  8
0
 10
4.73768
 20
0.187608
 30
0.0
 40
0.0393701
 41
0.0393701
  0
VERTEX
  8
0
 10
4.67096
 20
0.203558
 30
0.0
 40
0.0393701
 41
0.0393701
  0
VERTEX
  8
0
 10
4.60519
 20
0.214139
 30
0.0
 40
0.0393701
 41
0.0393701
  0
VERTEX
  8
0
 10
4.54449
 20
0.216851
 30
0.0
 40
0.0393701
 41
0.0393701
  0
VERTEX
  8
0
 10
4.45725
 20
0.199653
 30
0.0
 40
0.0393701
 41
0.0393701
  0
VERTEX
  8
0
 10
4.37614
 20
0.165961
 30
0.0
 40
0.0393701
 41
0.0393701
  0
VERTEX
  8
0
 10
4.29172
 20
0.132704
 30
0.0
 40
0.0393701
 41
0.0393701
  0
VERTEX
  8
0
 10
4.1945
 20
0.116808
 30
0.0
 40
0.0393701
 41
0.0393701
  0
VERTEX
  8
0
 10
4.14968
 20
0.120714
 30
0.0
 40
0.0393701
 41
0.0393701
  0
VERTEX
  8
0
 10
4.09603
 20
0.131836
 30
0.0
 40
0.0393701
 41
0.0393701
  0
VERTEX
  8
0
 10
4.03819
 20
0.14784
 30
0.0
 40
0.0393701
 41
0.0393701
  0
VERTEX
  8
0
 10
3.98058
 20
0.166288
 30
0.0
 40
0.0393701
 41
0.0393701
  0
VERTEX
  8
0
 10
3.9279
 20
0.184842
 30
0.0
 40
0.0393701
 41
0.0393701
  0
VERTEX
  8
0
 10
3.8846
 20
0.201064
 30
0.0
 40
0.0393701
 41
0.0393701
  0
VERTEX
  8
0
 10
3.85525
 20
0.212511
 30
0.0
 40
0.0393701
 41
0.0393701
  0
VERTEX
  8
0
 10
3.84451
 20
0.216851
 30
0.0
 40
0.0393701
 41
0.0393701
  0
VERTEX
  8
0
 10
3.84451
 20
1.31684
 30
0.0
 40
0.0393701
 41
0.0393701
  0
SEQEND
 8
0
  0
POLYLINE
  8
0
 62
     0
 66
     1
 10
0
 20
0
 30
0.0
 70
     1
 40
4.13745
 41
4.13745
  0
VERTEX
  8
0
 10
4.45958
 20
1.75851
 30
0.0
 40
0.0574646
 41
0.0574646
  0
VERTEX
  8
0
 10
4.45454
 20
1.73367
 30
0.0
 40
0.0574646
 41
0.0574646
  0
VERTEX
  8
0
 10
4.44086
 20
1.71337
 30
0.0
 40
0.0574646
 41
0.0574646
  0
VERTEX
  8
0
 10
4.42051
 20
1.69965
 30
0.0
 40
0.0574646
 41
0.0574646
  0
VERTEX
  8
0
 10
4.39567
 20
1.69461
 30
0.0
 40
0.0574646
 41
0.0574646
  0
VERTEX
  8
0
 10
4.37076
 20
1.69965
 30
0.0
 40
0.0574646
 41
0.0574646
  0
VERTEX
  8
0
 10
4.35042
 20
1.71337
 30
0.0
 40
0.0574646
 41
0.0574646
  0
VERTEX
  8
0
 10
4.33675
 20
1.73367
 30
0.0
 40
0.0574646
 41
0.0574646
  0
VERTEX
  8
0
 10
4.33176
 20
1.75851
 30
0.0
 40
0.0574646
 41
0.0574646
  0
VERTEX
  8
0
 10
4.33675
 20
1.78342
 30
0.0
 40
0.0574646
 41
0.0574646
  0
VERTEX
  8
0
 10
4.35042
 20
1.80376
 30
0.0
 40
0.0574646
 41
0.0574646
  0
VERTEX
  8
0
 10
4.37076
 20
1.81749
 30
0.0
 40
0.0574646
 41
0.0574646
  0
VERTEX
  8
0
 10
4.39567
 20
1.82249
 30
0.0
 40
0.0574646
 41
0.0574646
  0
VERTEX
  8
0
 10
4.42051
 20
1.81749
 30
0.0
 40
0.0574646
 41
0.0574646
  0
VERTEX
  8
0
 10
4.44086
 20
1.80376
 30
0.0
 40
0.0574646
 41
0.0574646
  0
VERTEX
  8
0
 10
4.45454
 20
1.78342
 30
0.0
 40
0.0574646
 41
0.0574646
  0
VERTEX
  8
0
 10
4.45958
 20
1.75851
 30
0.0
 40
0.0574646
 41
0.0574646
  0
SEQEND
 8
0
  0
POLYLINE
  8
0
 62
     0
 66
     1
 10
0
 20
0
 30
0.0
 70
     1
 40
2.83465
 41
2.83465
  0
VERTEX
  8
0
 10
4.14447
 20
1.25016
 30
0.0
 40
0.0393701
 41
0.0393701
  0
VERTEX
  8
0
 10
4.64447
 20
1.25016
 30
0.0
 40
0.0393701
 41
0.0393701
  0
VERTEX
  8
0
 10
4.64399
 20
1.24159
 30
0.0
 40
0.0393701
 41
0.0393701
  0
VERTEX
  8
0
 10
4.64057
 20
1.21897
 30
0.0
 40
0.0393701
 41
0.0393701
  0
VERTEX
  8
0
 10
4.63129
 20
1.1869
 30
0.0
 40
0.0393701
 41
0.0393701
  0
VERTEX
  8
0
 10
4.61322
 20
1.15017
 30
0.0
 40
0.0393701
 41
0.0393701
  0
VERTEX
  8
0
 10
4.58344
 20
1.1135
 30
0.0
 40
0.0393701
 41
0.0393701
  0
VERTEX
  8
0
 10
4.53901
 20
1.08143
 30
0.0
 40
0.0393701
 41
0.0393701
  0
VERTEX
  8
0
 10
4.477
 20
1.05881
 30
0.0
 40
0.0393701
 41
0.0393701
  0
VERTEX
  8
0
 10
4.39447
 20
1.05018
 30
0.0
 40
0.0393701
 41
0.0393701
  0
VERTEX
  8
0
 10
4.31196
 20
1.05881
 30
0.0
 40
0.0393701
 41
0.0393701
  0
VERTEX
  8
0
 10
4.24994
 20
1.08143
 30
0.0
 40
0.0393701
 41
0.0393701
  0
VERTEX
  8
0
 10
4.20551
 20
1.1135
 30
0.0
 40
0.0393701
 41
0.0393701
  0
VERTEX
  8
0
 10
4.17572
 20
1.15017
 30
0.0
 40
0.0393701
 41
0.0393701
  0
VERTEX
  8
0
 10
4.15767
 20
1.1869
 30
0.0
 40
0.0393701
 41
0.0393701
  0
VERTEX
  8
0
 10
4.14839
 20
1.21897
 30
0.0
 40
0.0393701
 41
0.0393701
  0
VERTEX
  8
0
 10
4.14497
 20
1.24159
 30
0.0
 40
0.0393701
 41
0.0393701
  0
VERTEX
  8
0
 10
4.14447
 20
1.25016
 30
0.0
 40
0.0393701
 41
0.0393701
  0
SEQEND
 8
0
  0
POLYLINE
  8
0
 62
     0
 66
     1
 10
0
 20
0
 30
0.0
 70
     1
 40
1.41837
 41
1.41837
  0
VERTEX
  8
0
 10
4.02951
 20
0.903808
 30
0.0
 40
0.0196996
 41
0.0196996
  0
VERTEX
  8
0
 10
4.01926
 20
0.8935
 30
0.0
 40
0.0196996
 41
0.0196996
  0
VERTEX
  8
0
 10
4.00896
 20
0.903808
 30
0.0
 40
0.0196996
 41
0.0196996
  0
VERTEX
  8
0
 10
4.01926
 20
0.914063
 30
0.0
 40
0.0196996
 41
0.0196996
  0
VERTEX
  8
0
 10
4.02951
 20
0.903808
 30
0.0
 40
0.0196996
 41
0.0196996
  0
SEQEND
 8
0
  0
POLYLINE
  8
0
 62
     0
 66
     1
 10
0
 20
0
 30
0.0
 70
     1
 40
1.41837
 41
1.41837
  0
VERTEX
  8
0
 10
4.02951
 20
1.33686
 30
0.0
 40
0.0196996
 41
0.0196996
  0
VERTEX
  8
0
 10
4.01926
 20
1.32661
 30
0.0
 40
0.0196996
 41
0.0196996
  0
VERTEX
  8
0
 10
4.00896
 20
1.33686
 30
0.0
 40
0.0196996
 41
0.0196996
  0
VERTEX
  8
0
 10
4.01926
 20
1.34711
 30
0.0
 40
0.0196996
 41
0.0196996
  0
VERTEX
  8
0
 10
4.02951
 20
1.33686
 30
0.0
 40
0.0196996
 41
0.0196996
  0
SEQEND
 8
0
  0
POLYLINE
  8
0
 62
     0
 66
     1
 10
0
 20
0
 30
0.0
 70
     1
 40
1.41837
 41
1.41837
  0
VERTEX
  8
0
 10
4.78039
 20
0.909831
 30
0.0
 40
0.0196996
 41
0.0196996
  0
VERTEX
  8
0
 10
4.77007
 20
0.899576
 30
0.0
 40
0.0196996
 41
0.0196996
  0
VERTEX
  8
0
 10
4.75982
 20
0.909831
 30
0.0
 40
0.0196996
 41
0.0196996
  0
VERTEX
  8
0
 10
4.77007
 20
0.920085
 30
0.0
 40
0.0196996
 41
0.0196996
  0
VERTEX
  8
0
 10
4.78039
 20
0.909831
 30
0.0
 40
0.0196996
 41
0.0196996
  0
SEQEND
 8
0
  0
POLYLINE
  8
0
 62
     0
 66
     1
 10
0
 20
0
 30
0.0
 70
     1
 40
1.41837
 41
1.41837
  0
VERTEX
  8
0
 10
4.78039
 20
1.34288
 30
0.0
 40
0.0196996
 41
0.0196996
  0
VERTEX
  8
0
 10
4.77007
 20
1.33263
 30
0.0
 40
0.0196996
 41
0.0196996
  0
VERTEX
  8
0
 10
4.75982
 20
1.34288
 30
0.0
 40
0.0196996
 41
0.0196996
  0
VERTEX
  8
0
 10
4.77007
 20
1.35319
 30
0.0
 40
0.0196996
 41
0.0196996
  0
VERTEX
  8
0
 10
4.78039
 20
1.34288
 30
0.0
 40
0.0196996
 41
0.0196996
  0
SEQEND
 8
0
  0
POLYLINE
  8
0
 62
     0
 66
     1
 10
0
 20
0
 30
0.0
 70
     1
 40
1.41732
 41
1.41732
  0
VERTEX
  8
0
 10
4.14144
 20
0.336101
 30
0.0
 40
0.019685
 41
0.019685
  0
VERTEX
  8
0
 10
4.12978
 20
0.329644
 30
0.0
 40
0.019685
 41
0.019685
  0
VERTEX
  8
0
 10
4.11697
 20
0.333333
 30
0.0
 40
0.019685
 41
0.019685
  0
VERTEX
  8
0
 10
4.11046
 20
0.344997
 30
0.0
 40
0.019685
 41
0.019685
  0
VERTEX
  8
0
 10
4.11415
 20
0.357747
 30
0.0
 40
0.019685
 41
0.019685
  0
VERTEX
  8
0
 10
4.12582
 20
0.364258
 30
0.0
 40
0.019685
 41
0.019685
  0
VERTEX
  8
0
 10
4.13861
 20
0.360569
 30
0.0
 40
0.019685
 41
0.019685
  0
VERTEX
  8
0
 10
4.14507
 20
0.348906
 30
0.0
 40
0.019685
 41
0.019685
  0
VERTEX
  8
0
 10
4.14144
 20
0.336101
 30
0.0
 40
0.019685
 41
0.019685
  0
SEQEND
 8
0
  0
POLYLINE
  8
0
 62
     0
 66
     1
 10
0
 20
0
 30
0.0
 70
     1
 40
1.41732
 41
1.41732
  0
VERTEX
  8
0
 10
4.41461
 20
0.679689
 30
0.0
 40
0.019685
 41
0.019685
  0
VERTEX
  8
0
 10
4.40294
 20
0.673286
 30
0.0
 40
0.019685
 41
0.019685
  0
VERTEX
  8
0
 10
4.39019
 20
0.676921
 30
0.0
 40
0.019685
 41
0.019685
  0
VERTEX
  8
0
 10
4.38368
 20
0.688585
 30
0.0
 40
0.019685
 41
0.019685
  0
VERTEX
  8
0
 10
4.38737
 20
0.701335
 30
0.0
 40
0.019685
 41
0.019685
  0
VERTEX
  8
0
 10
4.39899
 20
0.707846
 30
0.0
 40
0.019685
 41
0.019685
  0
VERTEX
  8
0
 10
4.41183
 20
0.704157
 30
0.0
 40
0.019685
 41
0.019685
  0
VERTEX
  8
0
 10
4.41824
 20
0.692546
 30
0.0
 40
0.019685
 41
0.019685
  0
VERTEX
  8
0
 10
4.41461
 20
0.679689
 30
0.0
 40
0.019685
 41
0.019685
  0
SEQEND
 8
0
  0
POLYLINE
  8
0
 62
     0
 66
     1
 10
0
 20
0
 30
0.0
 70
     1
 40
1.24985
 41
1.24985
  0
VERTEX
  8
0
 10
4.27713
 20
0.789063
 30
0.0
 40
0.017359
 41
0.017359
  0
VERTEX
  8
0
 10
4.25651
 20
0.777669
 30
0.0
 40
0.017359
 41
0.017359
  0
VERTEX
  8
0
 10
4.234
 20
0.784125
 30
0.0
 40
0.017359
 41
0.017359
  0
VERTEX
  8
0
 10
4.22254
 20
0.804689
 30
0.0
 40
0.017359
 41
0.017359
  0
VERTEX
  8
0
 10
4.22906
 20
0.827257
 30
0.0
 40
0.017359
 41
0.017359
  0
VERTEX
  8
0
 10
4.24957
 20
0.838651
 30
0.0
 40
0.017359
 41
0.017359
  0
VERTEX
  8
0
 10
4.27219
 20
0.83214
 30
0.0
 40
0.017359
 41
0.017359
  0
VERTEX
  8
0
 10
4.28353
 20
0.811633
 30
0.0
 40
0.017359
 41
0.017359
  0
VERTEX
  8
0
 10
4.27713
 20
0.789063
 30
0.0
 40
0.017359
 41
0.017359
  0
SEQEND
 8
0
  0
POLYLINE
  8
0
 62
     0
 66
     1
 10
0
 20
0
 30
0.0
 70
     1
 40
1.24985
 41
1.24985
  0
VERTEX
  8
0
 10
4.41699
 20
0.471572
 30
0.0
 40
0.017359
 41
0.017359
  0
VERTEX
  8
0
 10
4.39643
 20
0.460232
 30
0.0
 40
0.017359
 41
0.017359
  0
VERTEX
  8
0
 10
4.37386
 20
0.466635
 30
0.0
 40
0.017359
 41
0.017359
  0
VERTEX
  8
0
 10
4.36247
 20
0.48725
 30
0.0
 40
0.017359
 41
0.017359
  0
VERTEX
  8
0
 10
4.36897
 20
0.509767
 30
0.0
 40
0.017359
 41
0.017359
  0
VERTEX
  8
0
 10
4.38949
 20
0.521214
 30
0.0
 40
0.017359
 41
0.017359
  0
VERTEX
  8
0
 10
4.41211
 20
0.514704
 30
0.0
 40
0.017359
 41
0.017359
  0
VERTEX
  8
0
 10
4.42344
 20
0.494196
 30
0.0
 40
0.017359
 41
0.017359
  0
VERTEX
  8
0
 10
4.41699
 20
0.471572
 30
0.0
 40
0.017359
 41
0.017359
  0
SEQEND
 8
0
  0
POLYLINE
  8
0
 62
     0
 66
     1
 10
0
 20
0
 30
0.0
 70
     1
 40
1.24985
 41
1.24985
  0
VERTEX
  8
0
 10
4.61794
 20
0.724283
 30
0.0
 40
0.017359
 41
0.017359
  0
VERTEX
  8
0
 10
4.59733
 20
0.71289
 30
0.0
 40
0.017359
 41
0.017359
  0
VERTEX
  8
0
 10
4.57482
 20
0.719349
 30
0.0
 40
0.017359
 41
0.017359
  0
VERTEX
  8
0
 10
4.56336
 20
0.739911
 30
0.0
 40
0.017359
 41
0.017359
  0
VERTEX
  8
0
 10
4.56988
 20
0.762478
 30
0.0
 40
0.017359
 41
0.017359
  0
VERTEX
  8
0
 10
4.59039
 20
0.773872
 30
0.0
 40
0.017359
 41
0.017359
  0
VERTEX
  8
0
 10
4.61301
 20
0.767415
 30
0.0
 40
0.017359
 41
0.017359
  0
VERTEX
  8
0
 10
4.62435
 20
0.746854
 30
0.0
 40
0.017359
 41
0.017359
  0
VERTEX
  8
0
 10
4.61794
 20
0.724283
 30
0.0
 40
0.017359
 41
0.017359
  0
SEQEND
 8
0
  0
POLYLINE
  8
0
 62
     0
 66
     1
 10
0
 20
0
 30
0.0
 70
     1
 40
2.83465
 41
2.83465
  0
VERTEX
  8
0
 10
5.09451
 20
1.31125
 30
0.0
 40
0.0393701
 41
0.0393701
  0
VERTEX
  8
0
 10
5.10786
 20
1.46343
 30
0.0
 40
0.0393701
 41
0.0393701
  0
VERTEX
  8
0
 10
5.14524
 20
1.59076
 30
0.0
 40
0.0393701
 41
0.0393701
  0
VERTEX
  8
0
 10
5.20258
 20
1.69461
 30
0.0
 40
0.0393701
 41
0.0393701
  0
VERTEX
  8
0
 10
5.27572
 20
1.77636
 30
0.0
 40
0.0393701
 41
0.0393701
  0
VERTEX
  8
0
 10
5.36057
 20
1.83751
 30
0.0
 40
0.0393701
 41
0.0393701
  0
VERTEX
  8
0
 10
5.45307
 20
1.87944
 30
0.0
 40
0.0393701
 41
0.0393701
  0
VERTEX
  8
0
 10
5.54904
 20
1.9036
 30
0.0
 40
0.0393701
 41
0.0393701
  0
VERTEX
  8
0
 10
5.64447
 20
1.91129
 30
0.0
 40
0.0393701
 41
0.0393701
  0
VERTEX
  8
0
 10
5.73981
 20
1.90403
 30
0.0
 40
0.0393701
 41
0.0393701
  0
VERTEX
  8
0
 10
5.83561
 20
1.88103
 30
0.0
 40
0.0393701
 41
0.0393701
  0
VERTEX
  8
0
 10
5.92779
 20
1.84065
 30
0.0
 40
0.0393701
 41
0.0393701
  0
VERTEX
  8
0
 10
6.01243
 20
1.78131
 30
0.0
 40
0.0393701
 41
0.0393701
  0
VERTEX
  8
0
 10
6.08535
 20
1.70133
 30
0.0
 40
0.0393701
 41
0.0393701
  0
VERTEX
  8
0
 10
6.14253
 20
1.59907
 30
0.0
 40
0.0393701
 41
0.0393701
  0
VERTEX
  8
0
 10
6.17996
 20
1.47287
 30
0.0
 40
0.0393701
 41
0.0393701
  0
VERTEX
  8
0
 10
6.19358
 20
1.32113
 30
0.0
 40
0.0393701
 41
0.0393701
  0
VERTEX
  8
0
 10
6.19385
 20
1.15147
 30
0.0
 40
0.0393701
 41
0.0393701
  0
VERTEX
  8
0
 10
6.19407
 20
0.959201
 30
0.0
 40
0.0393701
 41
0.0393701
  0
VERTEX
  8
0
 10
6.19422
 20
0.758247
 30
0.0
 40
0.0393701
 41
0.0393701
  0
VERTEX
  8
0
 10
6.19433
 20
0.562554
 30
0.0
 40
0.0393701
 41
0.0393701
  0
VERTEX
  8
0
 10
6.19444
 20
0.386068
 30
0.0
 40
0.0393701
 41
0.0393701
  0
VERTEX
  8
0
 10
6.19444
 20
0.242731
 30
0.0
 40
0.0393701
 41
0.0393701
  0
VERTEX
  8
0
 10
6.19444
 20
0.146485
 30
0.0
 40
0.0393701
 41
0.0393701
  0
VERTEX
  8
0
 10
6.1945
 20
0.111274
 30
0.0
 40
0.0393701
 41
0.0393701
  0
VERTEX
  8
0
 10
6.18349
 20
0.115831
 30
0.0
 40
0.0393701
 41
0.0393701
  0
VERTEX
  8
0
 10
6.15332
 20
0.127713
 30
0.0
 40
0.0393701
 41
0.0393701
  0
VERTEX
  8
0
 10
6.10792
 20
0.144368
 30
0.0
 40
0.0393701
 41
0.0393701
  0
VERTEX
  8
0
 10
6.05132
 20
0.163357
 30
0.0
 40
0.0393701
 41
0.0393701
  0
VERTEX
  8
0
 10
5.98768
 20
0.182075
 30
0.0
 40
0.0393701
 41
0.0393701
  0
VERTEX
  8
0
 10
5.92096
 20
0.197971
 30
0.0
 40
0.0393701
 41
0.0393701
  0
VERTEX
  8
0
 10
5.85519
 20
0.20855
 30
0.0
 40
0.0393701
 41
0.0393701
  0
VERTEX
  8
0
 10
5.79449
 20
0.211263
 30
0.0
 40
0.0393701
 41
0.0393701
  0
VERTEX
  8
0
 10
5.70725
 20
0.194065
 30
0.0
 40
0.0393701
 41
0.0393701
  0
VERTEX
  8
0
 10
5.62614
 20
0.160374
 30
0.0
 40
0.0393701
 41
0.0393701
  0
VERTEX
  8
0
 10
5.54172
 20
0.12717
 30
0.0
 40
0.0393701
 41
0.0393701
  0
VERTEX
  8
0
 10
5.4445
 20
0.111274
 30
0.0
 40
0.0393701
 41
0.0393701
  0
VERTEX
  8
0
 10
5.39968
 20
0.11518
 30
0.0
 40
0.0393701
 41
0.0393701
  0
VERTEX
  8
0
 10
5.34603
 20
0.126302
 30
0.0
 40
0.0393701
 41
0.0393701
  0
VERTEX
  8
0
 10
5.28819
 20
0.142253
 30
0.0
 40
0.0393701
 41
0.0393701
  0
VERTEX
  8
0
 10
5.23058
 20
0.160699
 30
0.0
 40
0.0393701
 41
0.0393701
  0
VERTEX
  8
0
 10
5.1779
 20
0.179253
 30
0.0
 40
0.0393701
 41
0.0393701
  0
VERTEX
  8
0
 10
5.1346
 20
0.195475
 30
0.0
 40
0.0393701
 41
0.0393701
  0
VERTEX
  8
0
 10
5.10525
 20
0.206922
 30
0.0
 40
0.0393701
 41
0.0393701
  0
VERTEX
  8
0
 10
5.09451
 20
0.211263
 30
0.0
 40
0.0393701
 41
0.0393701
  0
VERTEX
  8
0
 10
5.09451
 20
1.31125
 30
0.0
 40
0.0393701
 41
0.0393701
  0
SEQEND
 8
0
  0
POLYLINE
  8
0
 62
     0
 66
     1
 10
0
 20
0
 30
0.0
 70
     1
 40
4.13745
 41
4.13745
  0
VERTEX
  8
0
 10
5.70958
 20
1.75299
 30
0.0
 40
0.0574646
 41
0.0574646
  0
VERTEX
  8
0
 10
5.70454
 20
1.72814
 30
0.0
 40
0.0574646
 41
0.0574646
  0
VERTEX
  8
0
 10
5.69086
 20
1.70779
 30
0.0
 40
0.0574646
 41
0.0574646
  0
VERTEX
  8
0
 10
5.67051
 20
1.69412
 30
0.0
 40
0.0574646
 41
0.0574646
  0
VERTEX
  8
0
 10
5.64567
 20
1.68907
 30
0.0
 40
0.0574646
 41
0.0574646
  0
VERTEX
  8
0
 10
5.62076
 20
1.69412
 30
0.0
 40
0.0574646
 41
0.0574646
  0
VERTEX
  8
0
 10
5.60042
 20
1.70779
 30
0.0
 40
0.0574646
 41
0.0574646
  0
VERTEX
  8
0
 10
5.58675
 20
1.72814
 30
0.0
 40
0.0574646
 41
0.0574646
  0
VERTEX
  8
0
 10
5.58176
 20
1.75299
 30
0.0
 40
0.0574646
 41
0.0574646
  0
VERTEX
  8
0
 10
5.58675
 20
1.77789
 30
0.0
 40
0.0574646
 41
0.0574646
  0
VERTEX
  8
0
 10
5.60042
 20
1.79824
 30
0.0
 40
0.0574646
 41
0.0574646
  0
VERTEX
  8
0
 10
5.62076
 20
1.8119
 30
0.0
 40
0.0574646
 41
0.0574646
  0
VERTEX
  8
0
 10
5.64567
 20
1.81689
 30
0.0
 40
0.0574646
 41
0.0574646
  0
VERTEX
  8
0
 10
5.67051
 20
1.8119
 30
0.0
 40
0.0574646
 41
0.0574646
  0
VERTEX
  8
0
 10
5.69086
 20
1.79824
 30
0.0
 40
0.0574646
 41
0.0574646
  0
VERTEX
  8
0
 10
5.70454
 20
1.77789
 30
0.0
 40
0.0574646
 41
0.0574646
  0
VERTEX
  8
0
 10
5.70958
 20
1.75299
 30
0.0
 40
0.0574646
 41
0.0574646
  0
SEQEND
 8
0
  0
POLYLINE
  8
0
 62
     0
 66
     1
 10
0
 20
0
 30
0.0
 70
     1
 40
2.83465
 41
2.83465
  0
VERTEX
  8
0
 10
5.39447
 20
1.24463
 30
0.0
 40
0.0393701
 41
0.0393701
  0
VERTEX
  8
0
 10
5.89447
 20
1.24463
 30
0.0
 40
0.0393701
 41
0.0393701
  0
VERTEX
  8
0
 10
5.89399
 20
1.23606
 30
0.0
 40
0.0393701
 41
0.0393701
  0
VERTEX
  8
0
 10
5.89057
 20
1.21338
 30
0.0
 40
0.0393701
 41
0.0393701
  0
VERTEX
  8
0
 10
5.88129
 20
1.18137
 30
0.0
 40
0.0393701
 41
0.0393701
  0
VERTEX
  8
0
 10
5.86322
 20
1.14464
 30
0.0
 40
0.0393701
 41
0.0393701
  0
VERTEX
  8
0
 10
5.83344
 20
1.10791
 30
0.0
 40
0.0393701
 41
0.0393701
  0
VERTEX
  8
0
 10
5.78901
 20
1.0759
 30
0.0
 40
0.0393701
 41
0.0393701
  0
VERTEX
  8
0
 10
5.727
 20
1.05322
 30
0.0
 40
0.0393701
 41
0.0393701
  0
VERTEX
  8
0
 10
5.64447
 20
1.0446
 30
0.0
 40
0.0393701
 41
0.0393701
  0
VERTEX
  8
0
 10
5.56196
 20
1.05322
 30
0.0
 40
0.0393701
 41
0.0393701
  0
VERTEX
  8
0
 10
5.49994
 20
1.0759
 30
0.0
 40
0.0393701
 41
0.0393701
  0
VERTEX
  8
0
 10
5.45551
 20
1.10791
 30
0.0
 40
0.0393701
 41
0.0393701
  0
VERTEX
  8
0
 10
5.42572
 20
1.14464
 30
0.0
 40
0.0393701
 41
0.0393701
  0
VERTEX
  8
0
 10
5.40767
 20
1.18137
 30
0.0
 40
0.0393701
 41
0.0393701
  0
VERTEX
  8
0
 10
5.39839
 20
1.21338
 30
0.0
 40
0.0393701
 41
0.0393701
  0
VERTEX
  8
0
 10
5.39497
 20
1.23606
 30
0.0
 40
0.0393701
 41
0.0393701
  0
VERTEX
  8
0
 10
5.39447
 20
1.24463
 30
0.0
 40
0.0393701
 41
0.0393701
  0
SEQEND
 8
0
  0
POLYLINE
  8
0
 62
     0
 66
     1
 10
0
 20
0
 30
0.0
 70
     1
 40
1.41837
 41
1.41837
  0
VERTEX
  8
0
 10
5.27951
 20
0.898221
 30
0.0
 40
0.0196996
 41
0.0196996
  0
VERTEX
  8
0
 10
5.26926
 20
0.887967
 30
0.0
 40
0.0196996
 41
0.0196996
  0
VERTEX
  8
0
 10
5.25896
 20
0.898221
 30
0.0
 40
0.0196996
 41
0.0196996
  0
VERTEX
  8
0
 10
5.26926
 20
0.908475
 30
0.0
 40
0.0196996
 41
0.0196996
  0
VERTEX
  8
0
 10
5.27951
 20
0.898221
 30
0.0
 40
0.0196996
 41
0.0196996
  0
SEQEND
 8
0
  0
POLYLINE
  8
0
 62
     0
 66
     1
 10
0
 20
0
 30
0.0
 70
     1
 40
1.41837
 41
1.41837
  0
VERTEX
  8
0
 10
5.27951
 20
1.33133
 30
0.0
 40
0.0196996
 41
0.0196996
  0
VERTEX
  8
0
 10
5.26926
 20
1.32102
 30
0.0
 40
0.0196996
 41
0.0196996
  0
VERTEX
  8
0
 10
5.25896
 20
1.33133
 30
0.0
 40
0.0196996
 41
0.0196996
  0
VERTEX
  8
0
 10
5.26926
 20
1.34158
 30
0.0
 40
0.0196996
 41
0.0196996
  0
VERTEX
  8
0
 10
5.27951
 20
1.33133
 30
0.0
 40
0.0196996
 41
0.0196996
  0
SEQEND
 8
0
  0
POLYLINE
  8
0
 62
     0
 66
     1
 10
0
 20
0
 30
0.0
 70
     1
 40
1.41837
 41
1.41837
  0
VERTEX
  8
0
 10
6.03039
 20
0.904243
 30
0.0
 40
0.0196996
 41
0.0196996
  0
VERTEX
  8
0
 10
6.02007
 20
0.893989
 30
0.0
 40
0.0196996
 41
0.0196996
  0
VERTEX
  8
0
 10
6.00982
 20
0.904243
 30
0.0
 40
0.0196996
 41
0.0196996
  0
VERTEX
  8
0
 10
6.02007
 20
0.914551
 30
0.0
 40
0.0196996
 41
0.0196996
  0
VERTEX
  8
0
 10
6.03039
 20
0.904243
 30
0.0
 40
0.0196996
 41
0.0196996
  0
SEQEND
 8
0
  0
POLYLINE
  8
0
 62
     0
 66
     1
 10
0
 20
0
 30
0.0
 70
     1
 40
1.41837
 41
1.41837
  0
VERTEX
  8
0
 10
6.03039
 20
1.33735
 30
0.0
 40
0.0196996
 41
0.0196996
  0
VERTEX
  8
0
 10
6.02007
 20
1.32709
 30
0.0
 40
0.0196996
 41
0.0196996
  0
VERTEX
  8
0
 10
6.00982
 20
1.33735
 30
0.0
 40
0.0196996
 41
0.0196996
  0
VERTEX
  8
0
 10
6.02007
 20
1.3476
 30
0.0
 40
0.0196996
 41
0.0196996
  0
VERTEX
  8
0
 10
6.03039
 20
1.33735
 30
0.0
 40
0.0196996
 41
0.0196996
  0
SEQEND
 8
0
  0
POLYLINE
  8
0
 62
     0
 66
     1
 10
0
 20
0
 30
0.0
 70
     1
 40
1.41732
 41
1.41732
  0
VERTEX
  8
0
 10
5.39144
 20
0.330568
 30
0.0
 40
0.019685
 41
0.019685
  0
VERTEX
  8
0
 10
5.37978
 20
0.324111
 30
0.0
 40
0.019685
 41
0.019685
  0
VERTEX
  8
0
 10
5.36697
 20
0.327747
 30
0.0
 40
0.019685
 41
0.019685
  0
VERTEX
  8
0
 10
5.36046
 20
0.339411
 30
0.0
 40
0.019685
 41
0.019685
  0
VERTEX
  8
0
 10
5.36415
 20
0.352214
 30
0.0
 40
0.019685
 41
0.019685
  0
VERTEX
  8
0
 10
5.37582
 20
0.358671
 30
0.0
 40
0.019685
 41
0.019685
  0
VERTEX
  8
0
 10
5.38861
 20
0.354982
 30
0.0
 40
0.019685
 41
0.019685
  0
VERTEX
  8
0
 10
5.39507
 20
0.343371
 30
0.0
 40
0.019685
 41
0.019685
  0
VERTEX
  8
0
 10
5.39144
 20
0.330568
 30
0.0
 40
0.019685
 41
0.019685
  0
SEQEND
 8
0
  0
POLYLINE
  8
0
 62
     0
 66
     1
 10
0
 20
0
 30
0.0
 70
     1
 40
1.41732
 41
1.41732
  0
VERTEX
  8
0
 10
5.66461
 20
0.674154
 30
0.0
 40
0.019685
 41
0.019685
  0
VERTEX
  8
0
 10
5.65294
 20
0.667699
 30
0.0
 40
0.019685
 41
0.019685
  0
VERTEX
  8
0
 10
5.64019
 20
0.671333
 30
0.0
 40
0.019685
 41
0.019685
  0
VERTEX
  8
0
 10
5.63368
 20
0.682999
 30
0.0
 40
0.019685
 41
0.019685
  0
VERTEX
  8
0
 10
5.63737
 20
0.695801
 30
0.0
 40
0.019685
 41
0.019685
  0
VERTEX
  8
0
 10
5.64899
 20
0.702313
 30
0.0
 40
0.019685
 41
0.019685
  0
VERTEX
  8
0
 10
5.66183
 20
0.698622
 30
0.0
 40
0.019685
 41
0.019685
  0
VERTEX
  8
0
 10
5.66824
 20
0.686958
 30
0.0
 40
0.019685
 41
0.019685
  0
VERTEX
  8
0
 10
5.66461
 20
0.674154
 30
0.0
 40
0.019685
 41
0.019685
  0
SEQEND
 8
0
  0
POLYLINE
  8
0
 62
     0
 66
     1
 10
0
 20
0
 30
0.0
 70
     1
 40
1.24985
 41
1.24985
  0
VERTEX
  8
0
 10
5.52713
 20
0.783476
 30
0.0
 40
0.017359
 41
0.017359
  0
VERTEX
  8
0
 10
5.50651
 20
0.772136
 30
0.0
 40
0.017359
 41
0.017359
  0
VERTEX
  8
0
 10
5.484
 20
0.778537
 30
0.0
 40
0.017359
 41
0.017359
  0
VERTEX
  8
0
 10
5.47254
 20
0.799156
 30
0.0
 40
0.017359
 41
0.017359
  0
VERTEX
  8
0
 10
5.47906
 20
0.821669
 30
0.0
 40
0.017359
 41
0.017359
  0
VERTEX
  8
0
 10
5.49957
 20
0.833118
 30
0.0
 40
0.017359
 41
0.017359
  0
VERTEX
  8
0
 10
5.52219
 20
0.826606
 30
0.0
 40
0.017359
 41
0.017359
  0
VERTEX
  8
0
 10
5.53353
 20
0.806099
 30
0.0
 40
0.017359
 41
0.017359
  0
VERTEX
  8
0
 10
5.52713
 20
0.783476
 30
0.0
 40
0.017359
 41
0.017359
  0
SEQEND
 8
0
  0
POLYLINE
  8
0
 62
     0
 66
     1
 10
0
 20
0
 30
0.0
 70
     1
 40
1.24985
 41
1.24985
  0
VERTEX
  8
0
 10
5.66699
 20
0.466037
 30
0.0
 40
0.017359
 41
0.017359
  0
VERTEX
  8
0
 10
5.64643
 20
0.454644
 30
0.0
 40
0.017359
 41
0.017359
  0
VERTEX
  8
0
 10
5.62386
 20
0.461101
 30
0.0
 40
0.017359
 41
0.017359
  0
VERTEX
  8
0
 10
5.61247
 20
0.481664
 30
0.0
 40
0.017359
 41
0.017359
  0
VERTEX
  8
0
 10
5.61897
 20
0.504232
 30
0.0
 40
0.017359
 41
0.017359
  0
VERTEX
  8
0
 10
5.63949
 20
0.515625
 30
0.0
 40
0.017359
 41
0.017359
  0
VERTEX
  8
0
 10
5.66211
 20
0.509169
 30
0.0
 40
0.017359
 41
0.017359
  0
VERTEX
  8
0
 10
5.67344
 20
0.488607
 30
0.0
 40
0.017359
 41
0.017359
  0
VERTEX
  8
0
 10
5.66699
 20
0.466037
 30
0.0
 40
0.017359
 41
0.017359
  0
SEQEND
 8
0
  0
POLYLINE
  8
0
 62
     0
 66
     1
 10
0
 20
0
 30
0.0
 70
     1
 40
1.24985
 41
1.24985
  0
VERTEX
  8
0
 10
5.86794
 20
0.718697
 30
0.0
 40
0.017359
 41
0.017359
  0
VERTEX
  8
0
 10
5.84733
 20
0.707357
 30
0.0
 40
0.017359
 41
0.017359
  0
VERTEX
  8
0
 10
5.82482
 20
0.713814
 30
0.0
 40
0.017359
 41
0.017359
  0
VERTEX
  8
0
 10
5.81337
 20
0.734375
 30
0.0
 40
0.017359
 41
0.017359
  0
VERTEX
  8
0
 10
5.81988
 20
0.756892
 30
0.0
 40
0.017359
 41
0.017359
  0
VERTEX
  8
0
 10
5.84039
 20
0.768338
 30
0.0
 40
0.017359
 41
0.017359
  0
VERTEX
  8
0
 10
5.86301
 20
0.761828
 30
0.0
 40
0.017359
 41
0.017359
  0
VERTEX
  8
0
 10
5.87435
 20
0.741321
 30
0.0
 40
0.017359
 41
0.017359
  0
VERTEX
  8
0
 10
5.86794
 20
0.718697
 30
0.0
 40
0.017359
 41
0.017359
  0
SEQEND
 8
0
  0
POLYLINE
  8
0
 62
     0
 66
     1
 10
0
 20
0
 30
0.0
 70
     1
 40
2.83465
 41
2.83465
  0
VERTEX
  8
0
 10
0.112684
 20
3.21832
 30
0.0
 40
0.0393701
 41
0.0393701
  0
VERTEX
  8
0
 10
0.126031
 20
3.3705
 30
0.0
 40
0.0393701
 41
0.0393701
  0
VERTEX
  8
0
 10
0.163411
 20
3.49783
 30
0.0
 40
0.0393701
 41
0.0393701
  0
VERTEX
  8
0
 10
0.220757
 20
3.60167
 30
0.0
 40
0.0393701
 41
0.0393701
  0
VERTEX
  8
0
 10
0.293892
 20
3.68343
 30
0.0
 40
0.0393701
 41
0.0393701
  0
VERTEX
  8
0
 10
0.378743
 20
3.74457
 30
0.0
 40
0.0393701
 41
0.0393701
  0
VERTEX
  8
0
 10
0.471246
 20
3.78651
 30
0.0
 40
0.0393701
 41
0.0393701
  0
VERTEX
  8
0
 10
0.567219
 20
3.81065
 30
0.0
 40
0.0393701
 41
0.0393701
  0
VERTEX
  8
0
 10
0.662651
 20
3.81836
 30
0.0
 40
0.0393701
 41
0.0393701
  0
VERTEX
  8
0
 10
0.757975
 20
3.81108
 30
0.0
 40
0.0393701
 41
0.0393701
  0
VERTEX
  8
0
 10
0.853787
 20
3.78808
 30
0.0
 40
0.0393701
 41
0.0393701
  0
VERTEX
  8
0
 10
0.945964
 20
3.74772
 30
0.0
 40
0.0393701
 41
0.0393701
  0
VERTEX
  8
0
 10
1.0306
 20
3.68836
 30
0.0
 40
0.0393701
 41
0.0393701
  0
VERTEX
  8
0
 10
1.10352
 20
3.6084
 30
0.0
 40
0.0393701
 41
0.0393701
  0
VERTEX
  8
0
 10
1.1607
 20
3.50612
 30
0.0
 40
0.0393701
 41
0.0393701
  0
VERTEX
  8
0
 10
1.19813
 20
3.37993
 30
0.0
 40
0.0393701
 41
0.0393701
  0
VERTEX
  8
0
 10
1.21175
 20
3.22819
 30
0.0
 40
0.0393701
 41
0.0393701
  0
VERTEX
  8
0
 10
1.21202
 20
3.05854
 30
0.0
 40
0.0393701
 41
0.0393701
  0
VERTEX
  8
0
 10
1.21224
 20
2.86626
 30
0.0
 40
0.0393701
 41
0.0393701
  0
VERTEX
  8
0
 10
1.2124
 20
2.66531
 30
0.0
 40
0.0393701
 41
0.0393701
  0
VERTEX
  8
0
 10
1.21251
 20
2.46961
 30
0.0
 40
0.0393701
 41
0.0393701
  0
VERTEX
  8
0
 10
1.21262
 20
2.29312
 30
0.0
 40
0.0393701
 41
0.0393701
  0
VERTEX
  8
0
 10
1.21262
 20
2.14979
 30
0.0
 40
0.0393701
 41
0.0393701
  0
VERTEX
  8
0
 10
1.21262
 20
2.05354
 30
0.0
 40
0.0393701
 41
0.0393701
  0
VERTEX
  8
0
 10
1.21267
 20
2.01833
 30
0.0
 40
0.0393701
 41
0.0393701
  0
VERTEX
  8
0
 10
1.20166
 20
2.02289
 30
0.0
 40
0.0393701
 41
0.0393701
  0
VERTEX
  8
0
 10
1.1715
 20
2.03478
 30
0.0
 40
0.0393701
 41
0.0393701
  0
VERTEX
  8
0
 10
1.12608
 20
2.05143
 30
0.0
 40
0.0393701
 41
0.0393701
  0
VERTEX
  8
0
 10
1.0695
 20
2.07042
 30
0.0
 40
0.0393701
 41
0.0393701
  0
VERTEX
  8
0
 10
1.00586
 20
2.08914
 30
0.0
 40
0.0393701
 41
0.0393701
  0
VERTEX
  8
0
 10
0.939128
 20
2.10503
 30
0.0
 40
0.0393701
 41
0.0393701
  0
VERTEX
  8
0
 10
0.873372
 20
2.11561
 30
0.0
 40
0.0393701
 41
0.0393701
  0
VERTEX
  8
0
 10
0.812663
 20
2.11833
 30
0.0
 40
0.0393701
 41
0.0393701
  0
VERTEX
  8
0
 10
0.725424
 20
2.10113
 30
0.0
 40
0.0393701
 41
0.0393701
  0
VERTEX
  8
0
 10
0.644314
 20
2.06743
 30
0.0
 40
0.0393701
 41
0.0393701
  0
VERTEX
  8
0
 10
0.559896
 20
2.03424
 30
0.0
 40
0.0393701
 41
0.0393701
  0
VERTEX
  8
0
 10
0.462674
 20
2.01833
 30
0.0
 40
0.0393701
 41
0.0393701
  0
VERTEX
  8
0
 10
0.41786
 20
2.02225
 30
0.0
 40
0.0393701
 41
0.0393701
  0
VERTEX
  8
0
 10
0.364204
 20
2.03336
 30
0.0
 40
0.0393701
 41
0.0393701
  0
VERTEX
  8
0
 10
0.306369
 20
2.04932
 30
0.0
 40
0.0393701
 41
0.0393701
  0
VERTEX
  8
0
 10
0.248753
 20
2.06776
 30
0.0
 40
0.0393701
 41
0.0393701
  0
VERTEX
  8
0
 10
0.196072
 20
2.08632
 30
0.0
 40
0.0393701
 41
0.0393701
  0
VERTEX
  8
0
 10
0.152778
 20
2.10254
 30
0.0
 40
0.0393701
 41
0.0393701
  0
VERTEX
  8
0
 10
0.123427
 20
2.11399
 30
0.0
 40
0.0393701
 41
0.0393701
  0
VERTEX
  8
0
 10
0.112684
 20
2.11833
 30
0.0
 40
0.0393701
 41
0.0393701
  0
VERTEX
  8
0
 10
0.112684
 20
3.21832
 30
0.0
 40
0.0393701
 41
0.0393701
  0
SEQEND
 8
0
  0
POLYLINE
  8
0
 62
     0
 66
     1
 10
0
 20
0
 30
0.0
 70
     1
 40
4.13745
 41
4.13745
  0
VERTEX
  8
0
 10
0.727756
 20
3.66004
 30
0.0
 40
0.0574646
 41
0.0574646
  0
VERTEX
  8
0
 10
0.722711
 20
3.63519
 30
0.0
 40
0.0574646
 41
0.0574646
  0
VERTEX
  8
0
 10
0.709039
 20
3.61486
 30
0.0
 40
0.0574646
 41
0.0574646
  0
VERTEX
  8
0
 10
0.688693
 20
3.60118
 30
0.0
 40
0.0574646
 41
0.0574646
  0
VERTEX
  8
0
 10
0.663846
 20
3.59614
 30
0.0
 40
0.0574646
 41
0.0574646
  0
VERTEX
  8
0
 10
0.638943
 20
3.60118
 30
0.0
 40
0.0574646
 41
0.0574646
  0
VERTEX
  8
0
 10
0.618599
 20
3.61486
 30
0.0
 40
0.0574646
 41
0.0574646
  0
VERTEX
  8
0
 10
0.604926
 20
3.63519
 30
0.0
 40
0.0574646
 41
0.0574646
  0
VERTEX
  8
0
 10
0.599935
 20
3.66004
 30
0.0
 40
0.0574646
 41
0.0574646
  0
VERTEX
  8
0
 10
0.604926
 20
3.68494
 30
0.0
 40
0.0574646
 41
0.0574646
  0
VERTEX
  8
0
 10
0.618599
 20
3.70529
 30
0.0
 40
0.0574646
 41
0.0574646
  0
VERTEX
  8
0
 10
0.638943
 20
3.71903
 30
0.0
 40
0.0574646
 41
0.0574646
  0
VERTEX
  8
0
 10
0.663846
 20
3.72401
 30
0.0
 40
0.0574646
 41
0.0574646
  0
VERTEX
  8
0
 10
0.688693
 20
3.71903
 30
0.0
 40
0.0574646
 41
0.0574646
  0
VERTEX
  8
0
 10
0.709039
 20
3.70529
 30
0.0
 40
0.0574646
 41
0.0574646
  0
VERTEX
  8
0
 10
0.722711
 20
3.68494
 30
0.0
 40
0.0574646
 41
0.0574646
  0
VERTEX
  8
0
 10
0.727756
 20
3.66004
 30
0.0
 40
0.0574646
 41
0.0574646
  0
SEQEND
 8
0
  0
POLYLINE
  8
0
 62
     0
 66
     1
 10
0
 20
0
 30
0.0
 70
     1
 40
2.83465
 41
2.83465
  0
VERTEX
  8
0
 10
0.412651
 20
3.15169
 30
0.0
 40
0.0393701
 41
0.0393701
  0
VERTEX
  8
0
 10
0.912651
 20
3.15169
 30
0.0
 40
0.0393701
 41
0.0393701
  0
VERTEX
  8
0
 10
0.912164
 20
3.14312
 30
0.0
 40
0.0393701
 41
0.0393701
  0
VERTEX
  8
0
 10
0.908746
 20
3.12044
 30
0.0
 40
0.0393701
 41
0.0393701
  0
VERTEX
  8
0
 10
0.899468
 20
3.08843
 30
0.0
 40
0.0393701
 41
0.0393701
  0
VERTEX
  8
0
 10
0.881401
 20
3.05171
 30
0.0
 40
0.0393701
 41
0.0393701
  0
VERTEX
  8
0
 10
0.851617
 20
3.01497
 30
0.0
 40
0.0393701
 41
0.0393701
  0
VERTEX
  8
0
 10
0.807183
 20
2.98296
 30
0.0
 40
0.0393701
 41
0.0393701
  0
VERTEX
  8
0
 10
0.745171
 20
2.96029
 30
0.0
 40
0.0393701
 41
0.0393701
  0
VERTEX
  8
0
 10
0.662651
 20
2.95167
 30
0.0
 40
0.0393701
 41
0.0393701
  0
VERTEX
  8
0
 10
0.580132
 20
2.96029
 30
0.0
 40
0.0393701
 41
0.0393701
  0
VERTEX
  8
0
 10
0.518121
 20
2.98296
 30
0.0
 40
0.0393701
 41
0.0393701
  0
VERTEX
  8
0
 10
0.473687
 20
3.01497
 30
0.0
 40
0.0393701
 41
0.0393701
  0
VERTEX
  8
0
 10
0.443901
 20
3.05171
 30
0.0
 40
0.0393701
 41
0.0393701
  0
VERTEX
  8
0
 10
0.425836
 20
3.08843
 30
0.0
 40
0.0393701
 41
0.0393701
  0
VERTEX
  8
0
 10
0.416558
 20
3.12044
 30
0.0
 40
0.0393701
 41
0.0393701
  0
VERTEX
  8
0
 10
0.41314
 20
3.14312
 30
0.0
 40
0.0393701
 41
0.0393701
  0
VERTEX
  8
0
 10
0.412651
 20
3.15169
 30
0.0
 40
0.0393701
 41
0.0393701
  0
SEQEND
 8
0
  0
POLYLINE
  8
0
 62
     0
 66
     1
 10
0
 20
0
 30
0.0
 70
     1
 40
1.41837
 41
1.41837
  0
VERTEX
  8
0
 10
0.297689
 20
2.80528
 30
0.0
 40
0.0196996
 41
0.0196996
  0
VERTEX
  8
0
 10
0.287435
 20
2.79503
 30
0.0
 40
0.0196996
 41
0.0196996
  0
VERTEX
  8
0
 10
0.277126
 20
2.80528
 30
0.0
 40
0.0196996
 41
0.0196996
  0
VERTEX
  8
0
 10
0.287435
 20
2.8156
 30
0.0
 40
0.0196996
 41
0.0196996
  0
VERTEX
  8
0
 10
0.297689
 20
2.80528
 30
0.0
 40
0.0196996
 41
0.0196996
  0
SEQEND
 8
0
  0
POLYLINE
  8
0
 62
     0
 66
     1
 10
0
 20
0
 30
0.0
 70
     1
 40
1.41837
 41
1.41837
  0
VERTEX
  8
0
 10
0.297689
 20
3.23839
 30
0.0
 40
0.0196996
 41
0.0196996
  0
VERTEX
  8
0
 10
0.287435
 20
3.22808
 30
0.0
 40
0.0196996
 41
0.0196996
  0
VERTEX
  8
0
 10
0.277126
 20
3.23839
 30
0.0
 40
0.0196996
 41
0.0196996
  0
VERTEX
  8
0
 10
0.287435
 20
3.24864
 30
0.0
 40
0.0196996
 41
0.0196996
  0
VERTEX
  8
0
 10
0.297689
 20
3.23839
 30
0.0
 40
0.0196996
 41
0.0196996
  0
SEQEND
 8
0
  0
POLYLINE
  8
0
 62
     0
 66
     1
 10
0
 20
0
 30
0.0
 70
     1
 40
1.41837
 41
1.41837
  0
VERTEX
  8
0
 10
1.04856
 20
2.81136
 30
0.0
 40
0.0196996
 41
0.0196996
  0
VERTEX
  8
0
 10
1.03825
 20
2.80106
 30
0.0
 40
0.0196996
 41
0.0196996
  0
VERTEX
  8
0
 10
1.02799
 20
2.81136
 30
0.0
 40
0.0196996
 41
0.0196996
  0
VERTEX
  8
0
 10
1.03825
 20
2.82161
 30
0.0
 40
0.0196996
 41
0.0196996
  0
VERTEX
  8
0
 10
1.04856
 20
2.81136
 30
0.0
 40
0.0196996
 41
0.0196996
  0
SEQEND
 8
0
  0
POLYLINE
  8
0
 62
     0
 66
     1
 10
0
 20
0
 30
0.0
 70
     1
 40
1.41837
 41
1.41837
  0
VERTEX
  8
0
 10
1.04856
 20
3.24442
 30
0.0
 40
0.0196996
 41
0.0196996
  0
VERTEX
  8
0
 10
1.03825
 20
3.23415
 30
0.0
 40
0.0196996
 41
0.0196996
  0
VERTEX
  8
0
 10
1.02799
 20
3.24442
 30
0.0
 40
0.0196996
 41
0.0196996
  0
VERTEX
  8
0
 10
1.03825
 20
3.25467
 30
0.0
 40
0.0196996
 41
0.0196996
  0
VERTEX
  8
0
 10
1.04856
 20
3.24442
 30
0.0
 40
0.0196996
 41
0.0196996
  0
SEQEND
 8
0
  0
POLYLINE
  8
0
 62
     0
 66
     1
 10
0
 20
0
 30
0.0
 70
     1
 40
1.41732
 41
1.41732
  0
VERTEX
  8
0
 10
0.409614
 20
2.23762
 30
0.0
 40
0.019685
 41
0.019685
  0
VERTEX
  8
0
 10
0.39795
 20
2.23118
 30
0.0
 40
0.019685
 41
0.019685
  0
VERTEX
  8
0
 10
0.385146
 20
2.23481
 30
0.0
 40
0.019685
 41
0.019685
  0
VERTEX
  8
0
 10
0.378635
 20
2.24647
 30
0.0
 40
0.019685
 41
0.019685
  0
VERTEX
  8
0
 10
0.382379
 20
2.25928
 30
0.0
 40
0.019685
 41
0.019685
  0
VERTEX
  8
0
 10
0.393989
 20
2.26579
 30
0.0
 40
0.019685
 41
0.019685
  0
VERTEX
  8
0
 10
0.406793
 20
2.26204
 30
0.0
 40
0.019685
 41
0.019685
  0
VERTEX
  8
0
 10
0.413249
 20
2.25043
 30
0.0
 40
0.019685
 41
0.019685
  0
VERTEX
  8
0
 10
0.409614
 20
2.23762
 30
0.0
 40
0.019685
 41
0.019685
  0
SEQEND
 8
0
  0
POLYLINE
  8
0
 62
     0
 66
     1
 10
0
 20
0
 30
0.0
 70
     1
 40
1.41732
 41
1.41732
  0
VERTEX
  8
0
 10
0.682781
 20
2.58122
 30
0.0
 40
0.019685
 41
0.019685
  0
VERTEX
  8
0
 10
0.671115
 20
2.57476
 30
0.0
 40
0.019685
 41
0.019685
  0
VERTEX
  8
0
 10
0.658367
 20
2.5784
 30
0.0
 40
0.019685
 41
0.019685
  0
VERTEX
  8
0
 10
0.651856
 20
2.59011
 30
0.0
 40
0.019685
 41
0.019685
  0
VERTEX
  8
0
 10
0.655544
 20
2.60286
 30
0.0
 40
0.019685
 41
0.019685
  0
VERTEX
  8
0
 10
0.667156
 20
2.60938
 30
0.0
 40
0.019685
 41
0.019685
  0
VERTEX
  8
0
 10
0.680014
 20
2.60568
 30
0.0
 40
0.019685
 41
0.019685
  0
VERTEX
  8
0
 10
0.686415
 20
2.59403
 30
0.0
 40
0.019685
 41
0.019685
  0
VERTEX
  8
0
 10
0.682781
 20
2.58122
 30
0.0
 40
0.019685
 41
0.019685
  0
SEQEND
 8
0
  0
POLYLINE
  8
0
 62
     0
 66
     1
 10
0
 20
0
 30
0.0
 70
     1
 40
1.24985
 41
1.24985
  0
VERTEX
  8
0
 10
0.545301
 20
2.69054
 30
0.0
 40
0.017359
 41
0.017359
  0
VERTEX
  8
0
 10
0.524686
 20
2.67919
 30
0.0
 40
0.017359
 41
0.017359
  0
VERTEX
  8
0
 10
0.502171
 20
2.68565
 30
0.0
 40
0.017359
 41
0.017359
  0
VERTEX
  8
0
 10
0.490724
 20
2.70622
 30
0.0
 40
0.017359
 41
0.017359
  0
VERTEX
  8
0
 10
0.497233
 20
2.72874
 30
0.0
 40
0.017359
 41
0.017359
  0
VERTEX
  8
0
 10
0.517742
 20
2.74018
 30
0.0
 40
0.017359
 41
0.017359
  0
VERTEX
  8
0
 10
0.540364
 20
2.73367
 30
0.0
 40
0.017359
 41
0.017359
  0
VERTEX
  8
0
 10
0.551704
 20
2.71317
 30
0.0
 40
0.017359
 41
0.017359
  0
VERTEX
  8
0
 10
0.545301
 20
2.69054
 30
0.0
 40
0.017359
 41
0.017359
  0
SEQEND
 8
0
  0
POLYLINE
  8
0
 62
     0
 66
     1
 10
0
 20
0
 30
0.0
 70
     1
 40
1.24985
 41
1.24985
  0
VERTEX
  8
0
 10
0.685167
 20
2.3731
 30
0.0
 40
0.017359
 41
0.017359
  0
VERTEX
  8
0
 10
0.664606
 20
2.36171
 30
0.0
 40
0.017359
 41
0.017359
  0
VERTEX
  8
0
 10
0.642036
 20
2.36817
 30
0.0
 40
0.017359
 41
0.017359
  0
VERTEX
  8
0
 10
0.630643
 20
2.38872
 30
0.0
 40
0.017359
 41
0.017359
  0
VERTEX
  8
0
 10
0.637153
 20
2.41129
 30
0.0
 40
0.017359
 41
0.017359
  0
VERTEX
  8
0
 10
0.657661
 20
2.42269
 30
0.0
 40
0.017359
 41
0.017359
  0
VERTEX
  8
0
 10
0.680285
 20
2.41624
 30
0.0
 40
0.017359
 41
0.017359
  0
VERTEX
  8
0
 10
0.691624
 20
2.39567
 30
0.0
 40
0.017359
 41
0.017359
  0
VERTEX
  8
0
 10
0.685167
 20
2.3731
 30
0.0
 40
0.017359
 41
0.017359
  0
SEQEND
 8
0
  0
POLYLINE
  8
0
 62
     0
 66
     1
 10
0
 20
0
 30
0.0
 70
     1
 40
1.24985
 41
1.24985
  0
VERTEX
  8
0
 10
0.886122
 20
2.62576
 30
0.0
 40
0.017359
 41
0.017359
  0
VERTEX
  8
0
 10
0.865506
 20
2.61442
 30
0.0
 40
0.017359
 41
0.017359
  0
VERTEX
  8
0
 10
0.84299
 20
2.62088
 30
0.0
 40
0.017359
 41
0.017359
  0
VERTEX
  8
0
 10
0.831543
 20
2.64144
 30
0.0
 40
0.017359
 41
0.017359
  0
VERTEX
  8
0
 10
0.838054
 20
2.66401
 30
0.0
 40
0.017359
 41
0.017359
  0
VERTEX
  8
0
 10
0.858561
 20
2.6754
 30
0.0
 40
0.017359
 41
0.017359
  0
VERTEX
  8
0
 10
0.881186
 20
2.66889
 30
0.0
 40
0.017359
 41
0.017359
  0
VERTEX
  8
0
 10
0.892524
 20
2.64839
 30
0.0
 40
0.017359
 41
0.017359
  0
VERTEX
  8
0
 10
0.886122
 20
2.62576
 30
0.0
 40
0.017359
 41
0.017359
  0
SEQEND
 8
0
  0
POLYLINE
  8
0
 62
     0
 66
     1
 10
0
 20
0
 30
0.0
 70
     1
 40
2.83465
 41
2.83465
  0
VERTEX
  8
0
 10
1.35411
 20
3.2264
 30
0.0
 40
0.0393701
 41
0.0393701
  0
VERTEX
  8
0
 10
1.36746
 20
3.37858
 30
0.0
 40
0.0393701
 41
0.0393701
  0
VERTEX
  8
0
 10
1.40483
 20
3.50592
 30
0.0
 40
0.0393701
 41
0.0393701
  0
VERTEX
  8
0
 10
1.46218
 20
3.60975
 30
0.0
 40
0.0393701
 41
0.0393701
  0
VERTEX
  8
0
 10
1.53532
 20
3.69151
 30
0.0
 40
0.0393701
 41
0.0393701
  0
VERTEX
  8
0
 10
1.62017
 20
3.75265
 30
0.0
 40
0.0393701
 41
0.0393701
  0
VERTEX
  8
0
 10
1.71267
 20
3.7946
 30
0.0
 40
0.0393701
 41
0.0393701
  0
VERTEX
  8
0
 10
1.80865
 20
3.81874
 30
0.0
 40
0.0393701
 41
0.0393701
  0
VERTEX
  8
0
 10
1.90408
 20
3.82644
 30
0.0
 40
0.0393701
 41
0.0393701
  0
VERTEX
  8
0
 10
1.9994
 20
3.81917
 30
0.0
 40
0.0393701
 41
0.0393701
  0
VERTEX
  8
0
 10
2.09521
 20
3.79617
 30
0.0
 40
0.0393701
 41
0.0393701
  0
VERTEX
  8
0
 10
2.18739
 20
3.75581
 30
0.0
 40
0.0393701
 41
0.0393701
  0
VERTEX
  8
0
 10
2.27203
 20
3.69646
 30
0.0
 40
0.0393701
 41
0.0393701
  0
VERTEX
  8
0
 10
2.34494
 20
3.61649
 30
0.0
 40
0.0393701
 41
0.0393701
  0
VERTEX
  8
0
 10
2.40213
 20
3.51421
 30
0.0
 40
0.0393701
 41
0.0393701
  0
VERTEX
  8
0
 10
2.43956
 20
3.38803
 30
0.0
 40
0.0393701
 41
0.0393701
  0
VERTEX
  8
0
 10
2.45318
 20
3.23628
 30
0.0
 40
0.0393701
 41
0.0393701
  0
VERTEX
  8
0
 10
2.45344
 20
3.06662
 30
0.0
 40
0.0393701
 41
0.0393701
  0
VERTEX
  8
0
 10
2.45367
 20
2.87435
 30
0.0
 40
0.0393701
 41
0.0393701
  0
VERTEX
  8
0
 10
2.45383
 20
2.67339
 30
0.0
 40
0.0393701
 41
0.0393701
  0
VERTEX
  8
0
 10
2.45394
 20
2.47771
 30
0.0
 40
0.0393701
 41
0.0393701
  0
VERTEX
  8
0
 10
2.45404
 20
2.30122
 30
0.0
 40
0.0393701
 41
0.0393701
  0
VERTEX
  8
0
 10
2.45404
 20
2.15788
 30
0.0
 40
0.0393701
 41
0.0393701
  0
VERTEX
  8
0
 10
2.45404
 20
2.06164
 30
0.0
 40
0.0393701
 41
0.0393701
  0
VERTEX
  8
0
 10
2.4541
 20
2.02642
 30
0.0
 40
0.0393701
 41
0.0393701
  0
VERTEX
  8
0
 10
2.44308
 20
2.03097
 30
0.0
 40
0.0393701
 41
0.0393701
  0
VERTEX
  8
0
 10
2.41292
 20
2.04286
 30
0.0
 40
0.0393701
 41
0.0393701
  0
VERTEX
  8
0
 10
2.36751
 20
2.05951
 30
0.0
 40
0.0393701
 41
0.0393701
  0
VERTEX
  8
0
 10
2.31093
 20
2.0785
 30
0.0
 40
0.0393701
 41
0.0393701
  0
VERTEX
  8
0
 10
2.24729
 20
2.09722
 30
0.0
 40
0.0393701
 41
0.0393701
  0
VERTEX
  8
0
 10
2.18056
 20
2.11313
 30
0.0
 40
0.0393701
 41
0.0393701
  0
VERTEX
  8
0
 10
2.11481
 20
2.12369
 30
0.0
 40
0.0393701
 41
0.0393701
  0
VERTEX
  8
0
 10
2.0541
 20
2.12642
 30
0.0
 40
0.0393701
 41
0.0393701
  0
VERTEX
  8
0
 10
1.96685
 20
2.10921
 30
0.0
 40
0.0393701
 41
0.0393701
  0
VERTEX
  8
0
 10
1.88574
 20
2.07553
 30
0.0
 40
0.0393701
 41
0.0393701
  0
VERTEX
  8
0
 10
1.80132
 20
2.04232
 30
0.0
 40
0.0393701
 41
0.0393701
  0
VERTEX
  8
0
 10
1.7041
 20
2.02642
 30
0.0
 40
0.0393701
 41
0.0393701
  0
VERTEX
  8
0
 10
1.65929
 20
2.03033
 30
0.0
 40
0.0393701
 41
0.0393701
  0
VERTEX
  8
0
 10
1.60563
 20
2.04144
 30
0.0
 40
0.0393701
 41
0.0393701
  0
VERTEX
  8
0
 10
1.54779
 20
2.0574
 30
0.0
 40
0.0393701
 41
0.0393701
  0
VERTEX
  8
0
 10
1.49018
 20
2.07585
 30
0.0
 40
0.0393701
 41
0.0393701
  0
VERTEX
  8
0
 10
1.4375
 20
2.0944
 30
0.0
 40
0.0393701
 41
0.0393701
  0
VERTEX
  8
0
 10
1.39421
 20
2.11062
 30
0.0
 40
0.0393701
 41
0.0393701
  0
VERTEX
  8
0
 10
1.36485
 20
2.12207
 30
0.0
 40
0.0393701
 41
0.0393701
  0
VERTEX
  8
0
 10
1.35411
 20
2.12642
 30
0.0
 40
0.0393701
 41
0.0393701
  0
VERTEX
  8
0
 10
1.35411
 20
3.2264
 30
0.0
 40
0.0393701
 41
0.0393701
  0
SEQEND
 8
0
  0
POLYLINE
  8
0
 62
     0
 66
     1
 10
0
 20
0
 30
0.0
 70
     1
 40
4.13745
 41
4.13745
  0
VERTEX
  8
0
 10
1.96918
 20
3.66813
 30
0.0
 40
0.0574646
 41
0.0574646
  0
VERTEX
  8
0
 10
1.96414
 20
3.64328
 30
0.0
 40
0.0574646
 41
0.0574646
  0
VERTEX
  8
0
 10
1.95047
 20
3.62294
 30
0.0
 40
0.0574646
 41
0.0574646
  0
VERTEX
  8
0
 10
1.93012
 20
3.60926
 30
0.0
 40
0.0574646
 41
0.0574646
  0
VERTEX
  8
0
 10
1.90528
 20
3.60422
 30
0.0
 40
0.0574646
 41
0.0574646
  0
VERTEX
  8
0
 10
1.88037
 20
3.60926
 30
0.0
 40
0.0574646
 41
0.0574646
  0
VERTEX
  8
0
 10
1.86003
 20
3.62294
 30
0.0
 40
0.0574646
 41
0.0574646
  0
VERTEX
  8
0
 10
1.84636
 20
3.64328
 30
0.0
 40
0.0574646
 41
0.0574646
  0
VERTEX
  8
0
 10
1.84136
 20
3.66813
 30
0.0
 40
0.0574646
 41
0.0574646
  0
VERTEX
  8
0
 10
1.84636
 20
3.69303
 30
0.0
 40
0.0574646
 41
0.0574646
  0
VERTEX
  8
0
 10
1.86003
 20
3.71338
 30
0.0
 40
0.0574646
 41
0.0574646
  0
VERTEX
  8
0
 10
1.88037
 20
3.72711
 30
0.0
 40
0.0574646
 41
0.0574646
  0
VERTEX
  8
0
 10
1.90528
 20
3.7321
 30
0.0
 40
0.0574646
 41
0.0574646
  0
VERTEX
  8
0
 10
1.93012
 20
3.72711
 30
0.0
 40
0.0574646
 41
0.0574646
  0
VERTEX
  8
0
 10
1.95047
 20
3.71338
 30
0.0
 40
0.0574646
 41
0.0574646
  0
VERTEX
  8
0
 10
1.96414
 20
3.69303
 30
0.0
 40
0.0574646
 41
0.0574646
  0
VERTEX
  8
0
 10
1.96918
 20
3.66813
 30
0.0
 40
0.0574646
 41
0.0574646
  0
SEQEND
 8
0
  0
POLYLINE
  8
0
 62
     0
 66
     1
 10
0
 20
0
 30
0.0
 70
     1
 40
2.83465
 41
2.83465
  0
VERTEX
  8
0
 10
1.65408
 20
3.15978
 30
0.0
 40
0.0393701
 41
0.0393701
  0
VERTEX
  8
0
 10
2.15408
 20
3.15978
 30
0.0
 40
0.0393701
 41
0.0393701
  0
VERTEX
  8
0
 10
2.1536
 20
3.15121
 30
0.0
 40
0.0393701
 41
0.0393701
  0
VERTEX
  8
0
 10
2.15017
 20
3.12853
 30
0.0
 40
0.0393701
 41
0.0393701
  0
VERTEX
  8
0
 10
2.1409
 20
3.09651
 30
0.0
 40
0.0393701
 41
0.0393701
  0
VERTEX
  8
0
 10
2.12283
 20
3.05979
 30
0.0
 40
0.0393701
 41
0.0393701
  0
VERTEX
  8
0
 10
2.09304
 20
3.02306
 30
0.0
 40
0.0393701
 41
0.0393701
  0
VERTEX
  8
0
 10
2.04861
 20
2.99104
 30
0.0
 40
0.0393701
 41
0.0393701
  0
VERTEX
  8
0
 10
1.9866
 20
2.96838
 30
0.0
 40
0.0393701
 41
0.0393701
  0
VERTEX
  8
0
 10
1.90408
 20
2.95975
 30
0.0
 40
0.0393701
 41
0.0393701
  0
VERTEX
  8
0
 10
1.82156
 20
2.96838
 30
0.0
 40
0.0393701
 41
0.0393701
  0
VERTEX
  8
0
 10
1.75956
 20
2.99104
 30
0.0
 40
0.0393701
 41
0.0393701
  0
VERTEX
  8
0
 10
1.71511
 20
3.02306
 30
0.0
 40
0.0393701
 41
0.0393701
  0
VERTEX
  8
0
 10
1.68533
 20
3.05979
 30
0.0
 40
0.0393701
 41
0.0393701
  0
VERTEX
  8
0
 10
1.66726
 20
3.09651
 30
0.0
 40
0.0393701
 41
0.0393701
  0
VERTEX
  8
0
 10
1.65799
 20
3.12853
 30
0.0
 40
0.0393701
 41
0.0393701
  0
VERTEX
  8
0
 10
1.65457
 20
3.15121
 30
0.0
 40
0.0393701
 41
0.0393701
  0
VERTEX
  8
0
 10
1.65408
 20
3.15978
 30
0.0
 40
0.0393701
 41
0.0393701
  0
SEQEND
 8
0
  0
POLYLINE
  8
0
 62
     0
 66
     1
 10
0
 20
0
 30
0.0
 70
     1
 40
1.41837
 41
1.41837
  0
VERTEX
  8
0
 10
1.53911
 20
2.81336
 30
0.0
 40
0.0196996
 41
0.0196996
  0
VERTEX
  8
0
 10
1.52886
 20
2.80311
 30
0.0
 40
0.0196996
 41
0.0196996
  0
VERTEX
  8
0
 10
1.51856
 20
2.81336
 30
0.0
 40
0.0196996
 41
0.0196996
  0
VERTEX
  8
0
 10
1.52886
 20
2.82368
 30
0.0
 40
0.0196996
 41
0.0196996
  0
VERTEX
  8
0
 10
1.53911
 20
2.81336
 30
0.0
 40
0.0196996
 41
0.0196996
  0
SEQEND
 8
0
  0
POLYLINE
  8
0
 62
     0
 66
     1
 10
0
 20
0
 30
0.0
 70
     1
 40
1.41837
 41
1.41837
  0
VERTEX
  8
0
 10
1.53911
 20
3.24647
 30
0.0
 40
0.0196996
 41
0.0196996
  0
VERTEX
  8
0
 10
1.52886
 20
3.23617
 30
0.0
 40
0.0196996
 41
0.0196996
  0
VERTEX
  8
0
 10
1.51856
 20
3.24647
 30
0.0
 40
0.0196996
 41
0.0196996
  0
VERTEX
  8
0
 10
1.52886
 20
3.25672
 30
0.0
 40
0.0196996
 41
0.0196996
  0
VERTEX
  8
0
 10
1.53911
 20
3.24647
 30
0.0
 40
0.0196996
 41
0.0196996
  0
SEQEND
 8
0
  0
POLYLINE
  8
0
 62
     0
 66
     1
 10
0
 20
0
 30
0.0
 70
     1
 40
1.41837
 41
1.41837
  0
VERTEX
  8
0
 10
2.28999
 20
2.81944
 30
0.0
 40
0.0196996
 41
0.0196996
  0
VERTEX
  8
0
 10
2.27968
 20
2.80914
 30
0.0
 40
0.0196996
 41
0.0196996
  0
VERTEX
  8
0
 10
2.26942
 20
2.81944
 30
0.0
 40
0.0196996
 41
0.0196996
  0
VERTEX
  8
0
 10
2.27968
 20
2.82969
 30
0.0
 40
0.0196996
 41
0.0196996
  0
VERTEX
  8
0
 10
2.28999
 20
2.81944
 30
0.0
 40
0.0196996
 41
0.0196996
  0
SEQEND
 8
0
  0
POLYLINE
  8
0
 62
     0
 66
     1
 10
0
 20
0
 30
0.0
 70
     1
 40
1.41837
 41
1.41837
  0
VERTEX
  8
0
 10
2.28999
 20
3.2525
 30
0.0
 40
0.0196996
 41
0.0196996
  0
VERTEX
  8
0
 10
2.27968
 20
3.24224
 30
0.0
 40
0.0196996
 41
0.0196996
  0
VERTEX
  8
0
 10
2.26942
 20
3.2525
 30
0.0
 40
0.0196996
 41
0.0196996
  0
VERTEX
  8
0
 10
2.27968
 20
3.26275
 30
0.0
 40
0.0196996
 41
0.0196996
  0
VERTEX
  8
0
 10
2.28999
 20
3.2525
 30
0.0
 40
0.0196996
 41
0.0196996
  0
SEQEND
 8
0
  0
POLYLINE
  8
0
 62
     0
 66
     1
 10
0
 20
0
 30
0.0
 70
     1
 40
1.41732
 41
1.41732
  0
VERTEX
  8
0
 10
1.65104
 20
2.24571
 30
0.0
 40
0.019685
 41
0.019685
  0
VERTEX
  8
0
 10
1.63938
 20
2.23926
 30
0.0
 40
0.019685
 41
0.019685
  0
VERTEX
  8
0
 10
1.62657
 20
2.24289
 30
0.0
 40
0.019685
 41
0.019685
  0
VERTEX
  8
0
 10
1.62007
 20
2.25456
 30
0.0
 40
0.019685
 41
0.019685
  0
VERTEX
  8
0
 10
1.62375
 20
2.26736
 30
0.0
 40
0.019685
 41
0.019685
  0
VERTEX
  8
0
 10
1.63542
 20
2.27387
 30
0.0
 40
0.019685
 41
0.019685
  0
VERTEX
  8
0
 10
1.64822
 20
2.27013
 30
0.0
 40
0.019685
 41
0.019685
  0
VERTEX
  8
0
 10
1.65468
 20
2.25851
 30
0.0
 40
0.019685
 41
0.019685
  0
VERTEX
  8
0
 10
1.65104
 20
2.24571
 30
0.0
 40
0.019685
 41
0.019685
  0
SEQEND
 8
0
  0
POLYLINE
  8
0
 62
     0
 66
     1
 10
0
 20
0
 30
0.0
 70
     1
 40
1.41732
 41
1.41732
  0
VERTEX
  8
0
 10
1.92421
 20
2.58931
 30
0.0
 40
0.019685
 41
0.019685
  0
VERTEX
  8
0
 10
1.91254
 20
2.58285
 30
0.0
 40
0.019685
 41
0.019685
  0
VERTEX
  8
0
 10
1.89979
 20
2.58654
 30
0.0
 40
0.019685
 41
0.019685
  0
VERTEX
  8
0
 10
1.89328
 20
2.59819
 30
0.0
 40
0.019685
 41
0.019685
  0
VERTEX
  8
0
 10
1.89697
 20
2.61094
 30
0.0
 40
0.019685
 41
0.019685
  0
VERTEX
  8
0
 10
1.90858
 20
2.61746
 30
0.0
 40
0.019685
 41
0.019685
  0
VERTEX
  8
0
 10
1.92144
 20
2.61376
 30
0.0
 40
0.019685
 41
0.019685
  0
VERTEX
  8
0
 10
1.92785
 20
2.60211
 30
0.0
 40
0.019685
 41
0.019685
  0
VERTEX
  8
0
 10
1.92421
 20
2.58931
 30
0.0
 40
0.019685
 41
0.019685
  0
SEQEND
 8
0
  0
POLYLINE
  8
0
 62
     0
 66
     1
 10
0
 20
0
 30
0.0
 70
     1
 40
1.24985
 41
1.24985
  0
VERTEX
  8
0
 10
1.78668
 20
2.69862
 30
0.0
 40
0.017359
 41
0.017359
  0
VERTEX
  8
0
 10
1.76611
 20
2.68728
 30
0.0
 40
0.017359
 41
0.017359
  0
VERTEX
  8
0
 10
1.7436
 20
2.69374
 30
0.0
 40
0.017359
 41
0.017359
  0
VERTEX
  8
0
 10
1.73215
 20
2.71431
 30
0.0
 40
0.017359
 41
0.017359
  0
VERTEX
  8
0
 10
1.73867
 20
2.73682
 30
0.0
 40
0.017359
 41
0.017359
  0
VERTEX
  8
0
 10
1.75917
 20
2.74826
 30
0.0
 40
0.017359
 41
0.017359
  0
VERTEX
  8
0
 10
1.78179
 20
2.74175
 30
0.0
 40
0.017359
 41
0.017359
  0
VERTEX
  8
0
 10
1.79312
 20
2.72125
 30
0.0
 40
0.017359
 41
0.017359
  0
VERTEX
  8
0
 10
1.78668
 20
2.69862
 30
0.0
 40
0.017359
 41
0.017359
  0
SEQEND
 8
0
  0
POLYLINE
  8
0
 62
     0
 66
     1
 10
0
 20
0
 30
0.0
 70
     1
 40
1.24985
 41
1.24985
  0
VERTEX
  8
0
 10
1.9266
 20
2.38118
 30
0.0
 40
0.017359
 41
0.017359
  0
VERTEX
  8
0
 10
1.90603
 20
2.36979
 30
0.0
 40
0.017359
 41
0.017359
  0
VERTEX
  8
0
 10
1.88346
 20
2.37625
 30
0.0
 40
0.017359
 41
0.017359
  0
VERTEX
  8
0
 10
1.87207
 20
2.39681
 30
0.0
 40
0.017359
 41
0.017359
  0
VERTEX
  8
0
 10
1.87858
 20
2.41938
 30
0.0
 40
0.017359
 41
0.017359
  0
VERTEX
  8
0
 10
1.89908
 20
2.43078
 30
0.0
 40
0.017359
 41
0.017359
  0
VERTEX
  8
0
 10
1.92171
 20
2.42432
 30
0.0
 40
0.017359
 41
0.017359
  0
VERTEX
  8
0
 10
1.93306
 20
2.40375
 30
0.0
 40
0.017359
 41
0.017359
  0
VERTEX
  8
0
 10
1.9266
 20
2.38118
 30
0.0
 40
0.017359
 41
0.017359
  0
SEQEND
 8
0
  0
POLYLINE
  8
0
 62
     0
 66
     1
 10
0
 20
0
 30
0.0
 70
     1
 40
1.24985
 41
1.24985
  0
VERTEX
  8
0
 10
2.12756
 20
2.63385
 30
0.0
 40
0.017359
 41
0.017359
  0
VERTEX
  8
0
 10
2.10693
 20
2.6225
 30
0.0
 40
0.017359
 41
0.017359
  0
VERTEX
  8
0
 10
2.08442
 20
2.62896
 30
0.0
 40
0.017359
 41
0.017359
  0
VERTEX
  8
0
 10
2.07297
 20
2.64953
 30
0.0
 40
0.017359
 41
0.017359
  0
VERTEX
  8
0
 10
2.07949
 20
2.6721
 30
0.0
 40
0.017359
 41
0.017359
  0
VERTEX
  8
0
 10
2.09999
 20
2.68349
 30
0.0
 40
0.017359
 41
0.017359
  0
VERTEX
  8
0
 10
2.12261
 20
2.67697
 30
0.0
 40
0.017359
 41
0.017359
  0
VERTEX
  8
0
 10
2.13396
 20
2.65647
 30
0.0
 40
0.017359
 41
0.017359
  0
VERTEX
  8
0
 10
2.12756
 20
2.63385
 30
0.0
 40
0.017359
 41
0.017359
  0
SEQEND
 8
0
  0
POLYLINE
  8
0
 62
     0
 66
     1
 10
0
 20
0
 30
0.0
 70
     1
 40
2.83465
 41
2.83465
  0
VERTEX
  8
0
 10
2.59853
 20
3.24864
 30
0.0
 40
0.0393701
 41
0.0393701
  0
VERTEX
  8
0
 10
2.61187
 20
3.40082
 30
0.0
 40
0.0393701
 41
0.0393701
  0
VERTEX
  8
0
 10
2.64931
 20
3.52815
 30
0.0
 40
0.0393701
 41
0.0393701
  0
VERTEX
  8
0
 10
2.7066
 20
3.63194
 30
0.0
 40
0.0393701
 41
0.0393701
  0
VERTEX
  8
0
 10
2.77979
 20
3.71376
 30
0.0
 40
0.0393701
 41
0.0393701
  0
VERTEX
  8
0
 10
2.86464
 20
3.7749
 30
0.0
 40
0.0393701
 41
0.0393701
  0
VERTEX
  8
0
 10
2.95708
 20
3.81683
 30
0.0
 40
0.0393701
 41
0.0393701
  0
VERTEX
  8
0
 10
3.05311
 20
3.84093
 30
0.0
 40
0.0393701
 41
0.0393701
  0
VERTEX
  8
0
 10
3.14854
 20
3.84864
 30
0.0
 40
0.0393701
 41
0.0393701
  0
VERTEX
  8
0
 10
3.24388
 20
3.84136
 30
0.0
 40
0.0393701
 41
0.0393701
  0
VERTEX
  8
0
 10
3.33963
 20
3.81836
 30
0.0
 40
0.0393701
 41
0.0393701
  0
VERTEX
  8
0
 10
3.43186
 20
3.778
 30
0.0
 40
0.0393701
 41
0.0393701
  0
VERTEX
  8
0
 10
3.51644
 20
3.71864
 30
0.0
 40
0.0393701
 41
0.0393701
  0
VERTEX
  8
0
 10
3.58936
 20
3.63867
 30
0.0
 40
0.0393701
 41
0.0393701
  0
VERTEX
  8
0
 10
3.6466
 20
3.5364
 30
0.0
 40
0.0393701
 41
0.0393701
  0
VERTEX
  8
0
 10
3.68397
 20
3.41026
 30
0.0
 40
0.0393701
 41
0.0393701
  0
VERTEX
  8
0
 10
3.69764
 20
3.25851
 30
0.0
 40
0.0393701
 41
0.0393701
  0
VERTEX
  8
0
 10
3.69792
 20
3.08886
 30
0.0
 40
0.0393701
 41
0.0393701
  0
VERTEX
  8
0
 10
3.69814
 20
2.8966
 30
0.0
 40
0.0393701
 41
0.0393701
  0
VERTEX
  8
0
 10
3.69829
 20
2.69564
 30
0.0
 40
0.0393701
 41
0.0393701
  0
VERTEX
  8
0
 10
3.6984
 20
2.49989
 30
0.0
 40
0.0393701
 41
0.0393701
  0
VERTEX
  8
0
 10
3.69846
 20
2.3234
 30
0.0
 40
0.0393701
 41
0.0393701
  0
VERTEX
  8
0
 10
3.69846
 20
2.18007
 30
0.0
 40
0.0393701
 41
0.0393701
  0
VERTEX
  8
0
 10
3.69846
 20
2.08388
 30
0.0
 40
0.0393701
 41
0.0393701
  0
VERTEX
  8
0
 10
3.69851
 20
2.04867
 30
0.0
 40
0.0393701
 41
0.0393701
  0
VERTEX
  8
0
 10
3.6875
 20
2.05322
 30
0.0
 40
0.0393701
 41
0.0393701
  0
VERTEX
  8
0
 10
3.65733
 20
2.06511
 30
0.0
 40
0.0393701
 41
0.0393701
  0
VERTEX
  8
0
 10
3.61193
 20
2.08176
 30
0.0
 40
0.0393701
 41
0.0393701
  0
VERTEX
  8
0
 10
3.55539
 20
2.10075
 30
0.0
 40
0.0393701
 41
0.0393701
  0
VERTEX
  8
0
 10
3.49169
 20
2.11947
 30
0.0
 40
0.0393701
 41
0.0393701
  0
VERTEX
  8
0
 10
3.42503
 20
2.13536
 30
0.0
 40
0.0393701
 41
0.0393701
  0
VERTEX
  8
0
 10
3.35926
 20
2.14594
 30
0.0
 40
0.0393701
 41
0.0393701
  0
VERTEX
  8
0
 10
3.29856
 20
2.14865
 30
0.0
 40
0.0393701
 41
0.0393701
  0
VERTEX
  8
0
 10
3.21132
 20
2.13146
 30
0.0
 40
0.0393701
 41
0.0393701
  0
VERTEX
  8
0
 10
3.13021
 20
2.09776
 30
0.0
 40
0.0393701
 41
0.0393701
  0
VERTEX
  8
0
 10
3.04574
 20
2.06456
 30
0.0
 40
0.0393701
 41
0.0393701
  0
VERTEX
  8
0
 10
2.94851
 20
2.04867
 30
0.0
 40
0.0393701
 41
0.0393701
  0
VERTEX
  8
0
 10
2.90369
 20
2.05257
 30
0.0
 40
0.0393701
 41
0.0393701
  0
VERTEX
  8
0
 10
2.8501
 20
2.06369
 30
0.0
 40
0.0393701
 41
0.0393701
  0
VERTEX
  8
0
 10
2.79221
 20
2.07964
 30
0.0
 40
0.0393701
 41
0.0393701
  0
VERTEX
  8
0
 10
2.73465
 20
2.09808
 30
0.0
 40
0.0393701
 41
0.0393701
  0
VERTEX
  8
0
 10
2.68192
 20
2.11664
 30
0.0
 40
0.0393701
 41
0.0393701
  0
VERTEX
  8
0
 10
2.63861
 20
2.13286
 30
0.0
 40
0.0393701
 41
0.0393701
  0
VERTEX
  8
0
 10
2.60926
 20
2.14432
 30
0.0
 40
0.0393701
 41
0.0393701
  0
VERTEX
  8
0
 10
2.59853
 20
2.14865
 30
0.0
 40
0.0393701
 41
0.0393701
  0
VERTEX
  8
0
 10
2.59853
 20
3.24864
 30
0.0
 40
0.0393701
 41
0.0393701
  0
SEQEND
 8
0
  0
POLYLINE
  8
0
 62
     0
 66
     1
 10
0
 20
0
 30
0.0
 70
     1
 40
4.13745
 41
4.13745
  0
VERTEX
  8
0
 10
3.21365
 20
3.69038
 30
0.0
 40
0.0574646
 41
0.0574646
  0
VERTEX
  8
0
 10
3.20861
 20
3.66553
 30
0.0
 40
0.0574646
 41
0.0574646
  0
VERTEX
  8
0
 10
3.19488
 20
3.64518
 30
0.0
 40
0.0574646
 41
0.0574646
  0
VERTEX
  8
0
 10
3.17458
 20
3.63146
 30
0.0
 40
0.0574646
 41
0.0574646
  0
VERTEX
  8
0
 10
3.14974
 20
3.62642
 30
0.0
 40
0.0574646
 41
0.0574646
  0
VERTEX
  8
0
 10
3.12483
 20
3.63146
 30
0.0
 40
0.0574646
 41
0.0574646
  0
VERTEX
  8
0
 10
3.10449
 20
3.64518
 30
0.0
 40
0.0574646
 41
0.0574646
  0
VERTEX
  8
0
 10
3.09076
 20
3.66553
 30
0.0
 40
0.0574646
 41
0.0574646
  0
VERTEX
  8
0
 10
3.08578
 20
3.69038
 30
0.0
 40
0.0574646
 41
0.0574646
  0
VERTEX
  8
0
 10
3.09076
 20
3.71528
 30
0.0
 40
0.0574646
 41
0.0574646
  0
VERTEX
  8
0
 10
3.10449
 20
3.73562
 30
0.0
 40
0.0574646
 41
0.0574646
  0
VERTEX
  8
0
 10
3.12483
 20
3.74929
 30
0.0
 40
0.0574646
 41
0.0574646
  0
VERTEX
  8
0
 10
3.14974
 20
3.75429
 30
0.0
 40
0.0574646
 41
0.0574646
  0
VERTEX
  8
0
 10
3.17458
 20
3.74929
 30
0.0
 40
0.0574646
 41
0.0574646
  0
VERTEX
  8
0
 10
3.19488
 20
3.73562
 30
0.0
 40
0.0574646
 41
0.0574646
  0
VERTEX
  8
0
 10
3.20861
 20
3.71528
 30
0.0
 40
0.0574646
 41
0.0574646
  0
VERTEX
  8
0
 10
3.21365
 20
3.69038
 30
0.0
 40
0.0574646
 41
0.0574646
  0
SEQEND
 8
0
  0
POLYLINE
  8
0
 62
     0
 66
     1
 10
0
 20
0
 30
0.0
 70
     1
 40
2.83465
 41
2.83465
  0
VERTEX
  8
0
 10
2.89854
 20
3.18197
 30
0.0
 40
0.0393701
 41
0.0393701
  0
VERTEX
  8
0
 10
3.39854
 20
3.18197
 30
0.0
 40
0.0393701
 41
0.0393701
  0
VERTEX
  8
0
 10
3.39806
 20
3.17339
 30
0.0
 40
0.0393701
 41
0.0393701
  0
VERTEX
  8
0
 10
3.39464
 20
3.15076
 30
0.0
 40
0.0393701
 41
0.0393701
  0
VERTEX
  8
0
 10
3.38536
 20
3.11871
 30
0.0
 40
0.0393701
 41
0.0393701
  0
VERTEX
  8
0
 10
3.36729
 20
3.08197
 30
0.0
 40
0.0393701
 41
0.0393701
  0
VERTEX
  8
0
 10
3.33751
 20
3.04531
 30
0.0
 40
0.0393701
 41
0.0393701
  0
VERTEX
  8
0
 10
3.29308
 20
3.01324
 30
0.0
 40
0.0393701
 41
0.0393701
  0
VERTEX
  8
0
 10
3.23107
 20
2.99061
 30
0.0
 40
0.0393701
 41
0.0393701
  0
VERTEX
  8
0
 10
3.14854
 20
2.98199
 30
0.0
 40
0.0393701
 41
0.0393701
  0
VERTEX
  8
0
 10
3.06603
 20
2.99061
 30
0.0
 40
0.0393701
 41
0.0393701
  0
VERTEX
  8
0
 10
3.00401
 20
3.01324
 30
0.0
 40
0.0393701
 41
0.0393701
  0
VERTEX
  8
0
 10
2.95958
 20
3.04531
 30
0.0
 40
0.0393701
 41
0.0393701
  0
VERTEX
  8
0
 10
2.92979
 20
3.08197
 30
0.0
 40
0.0393701
 41
0.0393701
  0
VERTEX
  8
0
 10
2.91174
 20
3.11871
 30
0.0
 40
0.0393701
 41
0.0393701
  0
VERTEX
  8
0
 10
2.90246
 20
3.15076
 30
0.0
 40
0.0393701
 41
0.0393701
  0
VERTEX
  8
0
 10
2.89903
 20
3.17339
 30
0.0
 40
0.0393701
 41
0.0393701
  0
VERTEX
  8
0
 10
2.89854
 20
3.18197
 30
0.0
 40
0.0393701
 41
0.0393701
  0
SEQEND
 8
0
  0
POLYLINE
  8
0
 62
     0
 66
     1
 10
0
 20
0
 30
0.0
 70
     1
 40
1.41837
 41
1.41837
  0
VERTEX
  8
0
 10
2.78358
 20
2.83561
 30
0.0
 40
0.0196996
 41
0.0196996
  0
VERTEX
  8
0
 10
2.77328
 20
2.82536
 30
0.0
 40
0.0196996
 41
0.0196996
  0
VERTEX
  8
0
 10
2.76303
 20
2.83561
 30
0.0
 40
0.0196996
 41
0.0196996
  0
VERTEX
  8
0
 10
2.77328
 20
2.84586
 30
0.0
 40
0.0196996
 41
0.0196996
  0
VERTEX
  8
0
 10
2.78358
 20
2.83561
 30
0.0
 40
0.0196996
 41
0.0196996
  0
SEQEND
 8
0
  0
POLYLINE
  8
0
 62
     0
 66
     1
 10
0
 20
0
 30
0.0
 70
     1
 40
1.41837
 41
1.41837
  0
VERTEX
  8
0
 10
2.78358
 20
3.26867
 30
0.0
 40
0.0196996
 41
0.0196996
  0
VERTEX
  8
0
 10
2.77328
 20
3.2584
 30
0.0
 40
0.0196996
 41
0.0196996
  0
VERTEX
  8
0
 10
2.76303
 20
3.26867
 30
0.0
 40
0.0196996
 41
0.0196996
  0
VERTEX
  8
0
 10
2.77328
 20
3.27897
 30
0.0
 40
0.0196996
 41
0.0196996
  0
VERTEX
  8
0
 10
2.78358
 20
3.26867
 30
0.0
 40
0.0196996
 41
0.0196996
  0
SEQEND
 8
0
  0
POLYLINE
  8
0
 62
     0
 66
     1
 10
0
 20
0
 30
0.0
 70
     1
 40
1.41837
 41
1.41837
  0
VERTEX
  8
0
 10
3.5344
 20
2.84164
 30
0.0
 40
0.0196996
 41
0.0196996
  0
VERTEX
  8
0
 10
3.52414
 20
2.83137
 30
0.0
 40
0.0196996
 41
0.0196996
  0
VERTEX
  8
0
 10
3.51389
 20
2.84164
 30
0.0
 40
0.0196996
 41
0.0196996
  0
VERTEX
  8
0
 10
3.52414
 20
2.85194
 30
0.0
 40
0.0196996
 41
0.0196996
  0
VERTEX
  8
0
 10
3.5344
 20
2.84164
 30
0.0
 40
0.0196996
 41
0.0196996
  0
SEQEND
 8
0
  0
POLYLINE
  8
0
 62
     0
 66
     1
 10
0
 20
0
 30
0.0
 70
     1
 40
1.41837
 41
1.41837
  0
VERTEX
  8
0
 10
3.5344
 20
3.27474
 30
0.0
 40
0.0196996
 41
0.0196996
  0
VERTEX
  8
0
 10
3.52414
 20
3.26443
 30
0.0
 40
0.0196996
 41
0.0196996
  0
VERTEX
  8
0
 10
3.51389
 20
3.27474
 30
0.0
 40
0.0196996
 41
0.0196996
  0
VERTEX
  8
0
 10
3.52414
 20
3.285
 30
0.0
 40
0.0196996
 41
0.0196996
  0
VERTEX
  8
0
 10
3.5344
 20
3.27474
 30
0.0
 40
0.0196996
 41
0.0196996
  0
SEQEND
 8
0
  0
POLYLINE
  8
0
 62
     0
 66
     1
 10
0
 20
0
 30
0.0
 70
     1
 40
1.41732
 41
1.41732
  0
VERTEX
  8
0
 10
2.89546
 20
2.2679
 30
0.0
 40
0.019685
 41
0.019685
  0
VERTEX
  8
0
 10
2.88379
 20
2.2615
 30
0.0
 40
0.019685
 41
0.019685
  0
VERTEX
  8
0
 10
2.87104
 20
2.26514
 30
0.0
 40
0.019685
 41
0.019685
  0
VERTEX
  8
0
 10
2.86453
 20
2.27681
 30
0.0
 40
0.019685
 41
0.019685
  0
VERTEX
  8
0
 10
2.86822
 20
2.28961
 30
0.0
 40
0.019685
 41
0.019685
  0
VERTEX
  8
0
 10
2.87983
 20
2.29606
 30
0.0
 40
0.019685
 41
0.019685
  0
VERTEX
  8
0
 10
2.89268
 20
2.29237
 30
0.0
 40
0.019685
 41
0.019685
  0
VERTEX
  8
0
 10
2.89908
 20
2.28076
 30
0.0
 40
0.019685
 41
0.019685
  0
VERTEX
  8
0
 10
2.89546
 20
2.2679
 30
0.0
 40
0.019685
 41
0.019685
  0
SEQEND
 8
0
  0
POLYLINE
  8
0
 62
     0
 66
     1
 10
0
 20
0
 30
0.0
 70
     1
 40
1.41732
 41
1.41732
  0
VERTEX
  8
0
 10
3.16868
 20
2.61154
 30
0.0
 40
0.019685
 41
0.019685
  0
VERTEX
  8
0
 10
3.15701
 20
2.60508
 30
0.0
 40
0.019685
 41
0.019685
  0
VERTEX
  8
0
 10
3.14421
 20
2.60872
 30
0.0
 40
0.019685
 41
0.019685
  0
VERTEX
  8
0
 10
3.13769
 20
2.62039
 30
0.0
 40
0.019685
 41
0.019685
  0
VERTEX
  8
0
 10
3.14144
 20
2.63319
 30
0.0
 40
0.019685
 41
0.019685
  0
VERTEX
  8
0
 10
3.15306
 20
2.63965
 30
0.0
 40
0.019685
 41
0.019685
  0
VERTEX
  8
0
 10
3.16585
 20
2.63596
 30
0.0
 40
0.019685
 41
0.019685
  0
VERTEX
  8
0
 10
3.17231
 20
2.62435
 30
0.0
 40
0.019685
 41
0.019685
  0
VERTEX
  8
0
 10
3.16868
 20
2.61154
 30
0.0
 40
0.019685
 41
0.019685
  0
SEQEND
 8
0
  0
POLYLINE
  8
0
 62
     0
 66
     1
 10
0
 20
0
 30
0.0
 70
     1
 40
1.24985
 41
1.24985
  0
VERTEX
  8
0
 10
3.03114
 20
2.72086
 30
0.0
 40
0.017359
 41
0.017359
  0
VERTEX
  8
0
 10
3.01058
 20
2.70947
 30
0.0
 40
0.017359
 41
0.017359
  0
VERTEX
  8
0
 10
2.98801
 20
2.71593
 30
0.0
 40
0.017359
 41
0.017359
  0
VERTEX
  8
0
 10
2.97661
 20
2.73649
 30
0.0
 40
0.017359
 41
0.017359
  0
VERTEX
  8
0
 10
2.98313
 20
2.75906
 30
0.0
 40
0.017359
 41
0.017359
  0
VERTEX
  8
0
 10
3.00364
 20
2.77051
 30
0.0
 40
0.017359
 41
0.017359
  0
VERTEX
  8
0
 10
3.02621
 20
2.764
 30
0.0
 40
0.017359
 41
0.017359
  0
VERTEX
  8
0
 10
3.0376
 20
2.74343
 30
0.0
 40
0.017359
 41
0.017359
  0
VERTEX
  8
0
 10
3.03114
 20
2.72086
 30
0.0
 40
0.017359
 41
0.017359
  0
SEQEND
 8
0
  0
POLYLINE
  8
0
 62
     0
 66
     1
 10
0
 20
0
 30
0.0
 70
     1
 40
1.24985
 41
1.24985
  0
VERTEX
  8
0
 10
3.17106
 20
2.40338
 30
0.0
 40
0.017359
 41
0.017359
  0
VERTEX
  8
0
 10
3.1505
 20
2.39204
 30
0.0
 40
0.017359
 41
0.017359
  0
VERTEX
  8
0
 10
3.12793
 20
2.39849
 30
0.0
 40
0.017359
 41
0.017359
  0
VERTEX
  8
0
 10
3.11649
 20
2.41906
 30
0.0
 40
0.017359
 41
0.017359
  0
VERTEX
  8
0
 10
3.12299
 20
2.44162
 30
0.0
 40
0.017359
 41
0.017359
  0
VERTEX
  8
0
 10
3.14356
 20
2.45301
 30
0.0
 40
0.017359
 41
0.017359
  0
VERTEX
  8
0
 10
3.16613
 20
2.4465
 30
0.0
 40
0.017359
 41
0.017359
  0
VERTEX
  8
0
 10
3.17751
 20
2.426
 30
0.0
 40
0.017359
 41
0.017359
  0
VERTEX
  8
0
 10
3.17106
 20
2.40338
 30
0.0
 40
0.017359
 41
0.017359
  0
SEQEND
 8
0
  0
POLYLINE
  8
0
 62
     0
 66
     1
 10
0
 20
0
 30
0.0
 70
     1
 40
1.24985
 41
1.24985
  0
VERTEX
  8
0
 10
3.37196
 20
2.65608
 30
0.0
 40
0.017359
 41
0.017359
  0
VERTEX
  8
0
 10
3.3514
 20
2.64475
 30
0.0
 40
0.017359
 41
0.017359
  0
VERTEX
  8
0
 10
3.32883
 20
2.65115
 30
0.0
 40
0.017359
 41
0.017359
  0
VERTEX
  8
0
 10
3.31743
 20
2.67176
 30
0.0
 40
0.017359
 41
0.017359
  0
VERTEX
  8
0
 10
3.32394
 20
2.69428
 30
0.0
 40
0.017359
 41
0.017359
  0
VERTEX
  8
0
 10
3.34446
 20
2.70574
 30
0.0
 40
0.017359
 41
0.017359
  0
VERTEX
  8
0
 10
3.36703
 20
2.69922
 30
0.0
 40
0.017359
 41
0.017359
  0
VERTEX
  8
0
 10
3.37842
 20
2.67871
 30
0.0
 40
0.017359
 41
0.017359
  0
VERTEX
  8
0
 10
3.37196
 20
2.65608
 30
0.0
 40
0.017359
 41
0.017359
  0
SEQEND
 8
0
  0
POLYLINE
  8
0
 62
     0
 66
     1
 10
0
 20
0
 30
0.0
 70
     1
 40
2.83465
 41
2.83465
  0
VERTEX
  8
0
 10
3.82633
 20
3.24864
 30
0.0
 40
0.0393701
 41
0.0393701
  0
VERTEX
  8
0
 10
3.83968
 20
3.40082
 30
0.0
 40
0.0393701
 41
0.0393701
  0
VERTEX
  8
0
 10
3.87706
 20
3.52815
 30
0.0
 40
0.0393701
 41
0.0393701
  0
VERTEX
  8
0
 10
3.9344
 20
3.63194
 30
0.0
 40
0.0393701
 41
0.0393701
  0
VERTEX
  8
0
 10
4.00754
 20
3.71376
 30
0.0
 40
0.0393701
 41
0.0393701
  0
VERTEX
  8
0
 10
4.09239
 20
3.7749
 30
0.0
 40
0.0393701
 41
0.0393701
  0
VERTEX
  8
0
 10
4.18489
 20
3.81683
 30
0.0
 40
0.0393701
 41
0.0393701
  0
VERTEX
  8
0
 10
4.28087
 20
3.84093
 30
0.0
 40
0.0393701
 41
0.0393701
  0
VERTEX
  8
0
 10
4.37631
 20
3.84864
 30
0.0
 40
0.0393701
 41
0.0393701
  0
VERTEX
  8
0
 10
4.47163
 20
3.84136
 30
0.0
 40
0.0393701
 41
0.0393701
  0
VERTEX
  8
0
 10
4.56743
 20
3.81836
 30
0.0
 40
0.0393701
 41
0.0393701
  0
VERTEX
  8
0
 10
4.65961
 20
3.778
 30
0.0
 40
0.0393701
 41
0.0393701
  0
VERTEX
  8
0
 10
4.74425
 20
3.71864
 30
0.0
 40
0.0393701
 41
0.0393701
  0
VERTEX
  8
0
 10
4.81717
 20
3.63867
 30
0.0
 40
0.0393701
 41
0.0393701
  0
VERTEX
  8
0
 10
4.87435
 20
3.5364
 30
0.0
 40
0.0393701
 41
0.0393701
  0
VERTEX
  8
0
 10
4.91178
 20
3.41026
 30
0.0
 40
0.0393701
 41
0.0393701
  0
VERTEX
  8
0
 10
4.9254
 20
3.25851
 30
0.0
 40
0.0393701
 41
0.0393701
  0
VERTEX
  8
0
 10
4.92567
 20
3.08886
 30
0.0
 40
0.0393701
 41
0.0393701
  0
VERTEX
  8
0
 10
4.92589
 20
2.8966
 30
0.0
 40
0.0393701
 41
0.0393701
  0
VERTEX
  8
0
 10
4.92606
 20
2.69564
 30
0.0
 40
0.0393701
 41
0.0393701
  0
VERTEX
  8
0
 10
4.92617
 20
2.49989
 30
0.0
 40
0.0393701
 41
0.0393701
  0
VERTEX
  8
0
 10
4.92626
 20
2.3234
 30
0.0
 40
0.0393701
 41
0.0393701
  0
VERTEX
  8
0
 10
4.92626
 20
2.18007
 30
0.0
 40
0.0393701
 41
0.0393701
  0
VERTEX
  8
0
 10
4.92626
 20
2.08388
 30
0.0
 40
0.0393701
 41
0.0393701
  0
VERTEX
  8
0
 10
4.92632
 20
2.04867
 30
0.0
 40
0.0393701
 41
0.0393701
  0
VERTEX
  8
0
 10
4.91531
 20
2.05322
 30
0.0
 40
0.0393701
 41
0.0393701
  0
VERTEX
  8
0
 10
4.88514
 20
2.06511
 30
0.0
 40
0.0393701
 41
0.0393701
  0
VERTEX
  8
0
 10
4.83974
 20
2.08176
 30
0.0
 40
0.0393701
 41
0.0393701
  0
VERTEX
  8
0
 10
4.78315
 20
2.10075
 30
0.0
 40
0.0393701
 41
0.0393701
  0
VERTEX
  8
0
 10
4.71951
 20
2.11947
 30
0.0
 40
0.0393701
 41
0.0393701
  0
VERTEX
  8
0
 10
4.65278
 20
2.13536
 30
0.0
 40
0.0393701
 41
0.0393701
  0
VERTEX
  8
0
 10
4.58703
 20
2.14594
 30
0.0
 40
0.0393701
 41
0.0393701
  0
VERTEX
  8
0
 10
4.52632
 20
2.14865
 30
0.0
 40
0.0393701
 41
0.0393701
  0
VERTEX
  8
0
 10
4.43907
 20
2.13146
 30
0.0
 40
0.0393701
 41
0.0393701
  0
VERTEX
  8
0
 10
4.35796
 20
2.09776
 30
0.0
 40
0.0393701
 41
0.0393701
  0
VERTEX
  8
0
 10
4.27354
 20
2.06456
 30
0.0
 40
0.0393701
 41
0.0393701
  0
VERTEX
  8
0
 10
4.17632
 20
2.04867
 30
0.0
 40
0.0393701
 41
0.0393701
  0
VERTEX
  8
0
 10
4.13151
 20
2.05257
 30
0.0
 40
0.0393701
 41
0.0393701
  0
VERTEX
  8
0
 10
4.07785
 20
2.06369
 30
0.0
 40
0.0393701
 41
0.0393701
  0
VERTEX
  8
0
 10
4.02001
 20
2.07964
 30
0.0
 40
0.0393701
 41
0.0393701
  0
VERTEX
  8
0
 10
3.9624
 20
2.09808
 30
0.0
 40
0.0393701
 41
0.0393701
  0
VERTEX
  8
0
 10
3.90972
 20
2.11664
 30
0.0
 40
0.0393701
 41
0.0393701
  0
VERTEX
  8
0
 10
3.86643
 20
2.13286
 30
0.0
 40
0.0393701
 41
0.0393701
  0
VERTEX
  8
0
 10
3.83708
 20
2.14432
 30
0.0
 40
0.0393701
 41
0.0393701
  0
VERTEX
  8
0
 10
3.82633
 20
2.14865
 30
0.0
 40
0.0393701
 41
0.0393701
  0
VERTEX
  8
0
 10
3.82633
 20
3.24864
 30
0.0
 40
0.0393701
 41
0.0393701
  0
SEQEND
 8
0
  0
POLYLINE
  8
0
 62
     0
 66
     1
 10
0
 20
0
 30
0.0
 70
     1
 40
4.13745
 41
4.13745
  0
VERTEX
  8
0
 10
4.4414
 20
3.69038
 30
0.0
 40
0.0574646
 41
0.0574646
  0
VERTEX
  8
0
 10
4.43636
 20
3.66553
 30
0.0
 40
0.0574646
 41
0.0574646
  0
VERTEX
  8
0
 10
4.42269
 20
3.64518
 30
0.0
 40
0.0574646
 41
0.0574646
  0
VERTEX
  8
0
 10
4.40235
 20
3.63146
 30
0.0
 40
0.0574646
 41
0.0574646
  0
VERTEX
  8
0
 10
4.3775
 20
3.62642
 30
0.0
 40
0.0574646
 41
0.0574646
  0
VERTEX
  8
0
 10
4.3526
 20
3.63146
 30
0.0
 40
0.0574646
 41
0.0574646
  0
VERTEX
  8
0
 10
4.33225
 20
3.64518
 30
0.0
 40
0.0574646
 41
0.0574646
  0
VERTEX
  8
0
 10
4.31858
 20
3.66553
 30
0.0
 40
0.0574646
 41
0.0574646
  0
VERTEX
  8
0
 10
4.31358
 20
3.69038
 30
0.0
 40
0.0574646
 41
0.0574646
  0
VERTEX
  8
0
 10
4.31858
 20
3.71528
 30
0.0
 40
0.0574646
 41
0.0574646
  0
VERTEX
  8
0
 10
4.33225
 20
3.73562
 30
0.0
 40
0.0574646
 41
0.0574646
  0
VERTEX
  8
0
 10
4.3526
 20
3.74929
 30
0.0
 40
0.0574646
 41
0.0574646
  0
VERTEX
  8
0
 10
4.3775
 20
3.75429
 30
0.0
 40
0.0574646
 41
0.0574646
  0
VERTEX
  8
0
 10
4.40235
 20
3.74929
 30
0.0
 40
0.0574646
 41
0.0574646
  0
VERTEX
  8
0
 10
4.42269
 20
3.73562
 30
0.0
 40
0.0574646
 41
0.0574646
  0
VERTEX
  8
0
 10
4.43636
 20
3.71528
 30
0.0
 40
0.0574646
 41
0.0574646
  0
VERTEX
  8
0
 10
4.4414
 20
3.69038
 30
0.0
 40
0.0574646
 41
0.0574646
  0
SEQEND
 8
0
  0
POLYLINE
  8
0
 62
     0
 66
     1
 10
0
 20
0
 30
0.0
 70
     1
 40
2.83465
 41
2.83465
  0
VERTEX
  8
0
 10
4.12631
 20
3.18197
 30
0.0
 40
0.0393701
 41
0.0393701
  0
VERTEX
  8
0
 10
4.62631
 20
3.18197
 30
0.0
 40
0.0393701
 41
0.0393701
  0
VERTEX
  8
0
 10
4.62582
 20
3.17339
 30
0.0
 40
0.0393701
 41
0.0393701
  0
VERTEX
  8
0
 10
4.62239
 20
3.15076
 30
0.0
 40
0.0393701
 41
0.0393701
  0
VERTEX
  8
0
 10
4.61312
 20
3.11871
 30
0.0
 40
0.0393701
 41
0.0393701
  0
VERTEX
  8
0
 10
4.59506
 20
3.08197
 30
0.0
 40
0.0393701
 41
0.0393701
  0
VERTEX
  8
0
 10
4.56526
 20
3.04531
 30
0.0
 40
0.0393701
 41
0.0393701
  0
VERTEX
  8
0
 10
4.52083
 20
3.01324
 30
0.0
 40
0.0393701
 41
0.0393701
  0
VERTEX
  8
0
 10
4.45882
 20
2.99061
 30
0.0
 40
0.0393701
 41
0.0393701
  0
VERTEX
  8
0
 10
4.37631
 20
2.98199
 30
0.0
 40
0.0393701
 41
0.0393701
  0
VERTEX
  8
0
 10
4.29378
 20
2.99061
 30
0.0
 40
0.0393701
 41
0.0393701
  0
VERTEX
  8
0
 10
4.23178
 20
3.01324
 30
0.0
 40
0.0393701
 41
0.0393701
  0
VERTEX
  8
0
 10
4.18733
 20
3.04531
 30
0.0
 40
0.0393701
 41
0.0393701
  0
VERTEX
  8
0
 10
4.15756
 20
3.08197
 30
0.0
 40
0.0393701
 41
0.0393701
  0
VERTEX
  8
0
 10
4.13949
 20
3.11871
 30
0.0
 40
0.0393701
 41
0.0393701
  0
VERTEX
  8
0
 10
4.13021
 20
3.15076
 30
0.0
 40
0.0393701
 41
0.0393701
  0
VERTEX
  8
0
 10
4.12679
 20
3.17339
 30
0.0
 40
0.0393701
 41
0.0393701
  0
VERTEX
  8
0
 10
4.12631
 20
3.18197
 30
0.0
 40
0.0393701
 41
0.0393701
  0
SEQEND
 8
0
  0
POLYLINE
  8
0
 62
     0
 66
     1
 10
0
 20
0
 30
0.0
 70
     1
 40
1.41837
 41
1.41837
  0
VERTEX
  8
0
 10
4.01133
 20
2.83561
 30
0.0
 40
0.0196996
 41
0.0196996
  0
VERTEX
  8
0
 10
4.00108
 20
2.82536
 30
0.0
 40
0.0196996
 41
0.0196996
  0
VERTEX
  8
0
 10
3.99078
 20
2.83561
 30
0.0
 40
0.0196996
 41
0.0196996
  0
VERTEX
  8
0
 10
4.00108
 20
2.84586
 30
0.0
 40
0.0196996
 41
0.0196996
  0
VERTEX
  8
0
 10
4.01133
 20
2.83561
 30
0.0
 40
0.0196996
 41
0.0196996
  0
SEQEND
 8
0
  0
POLYLINE
  8
0
 62
     0
 66
     1
 10
0
 20
0
 30
0.0
 70
     1
 40
1.41837
 41
1.41837
  0
VERTEX
  8
0
 10
4.01133
 20
3.26867
 30
0.0
 40
0.0196996
 41
0.0196996
  0
VERTEX
  8
0
 10
4.00108
 20
3.2584
 30
0.0
 40
0.0196996
 41
0.0196996
  0
VERTEX
  8
0
 10
3.99078
 20
3.26867
 30
0.0
 40
0.0196996
 41
0.0196996
  0
VERTEX
  8
0
 10
4.00108
 20
3.27897
 30
0.0
 40
0.0196996
 41
0.0196996
  0
VERTEX
  8
0
 10
4.01133
 20
3.26867
 30
0.0
 40
0.0196996
 41
0.0196996
  0
SEQEND
 8
0
  0
POLYLINE
  8
0
 62
     0
 66
     1
 10
0
 20
0
 30
0.0
 70
     1
 40
1.41837
 41
1.41837
  0
VERTEX
  8
0
 10
4.76221
 20
2.84164
 30
0.0
 40
0.0196996
 41
0.0196996
  0
VERTEX
  8
0
 10
4.7519
 20
2.83137
 30
0.0
 40
0.0196996
 41
0.0196996
  0
VERTEX
  8
0
 10
4.74164
 20
2.84164
 30
0.0
 40
0.0196996
 41
0.0196996
  0
VERTEX
  8
0
 10
4.7519
 20
2.85194
 30
0.0
 40
0.0196996
 41
0.0196996
  0
VERTEX
  8
0
 10
4.76221
 20
2.84164
 30
0.0
 40
0.0196996
 41
0.0196996
  0
SEQEND
 8
0
  0
POLYLINE
  8
0
 62
     0
 66
     1
 10
0
 20
0
 30
0.0
 70
     1
 40
1.41837
 41
1.41837
  0
VERTEX
  8
0
 10
4.76221
 20
3.27474
 30
0.0
 40
0.0196996
 41
0.0196996
  0
VERTEX
  8
0
 10
4.7519
 20
3.26443
 30
0.0
 40
0.0196996
 41
0.0196996
  0
VERTEX
  8
0
 10
4.74164
 20
3.27474
 30
0.0
 40
0.0196996
 41
0.0196996
  0
VERTEX
  8
0
 10
4.7519
 20
3.285
 30
0.0
 40
0.0196996
 41
0.0196996
  0
VERTEX
  8
0
 10
4.76221
 20
3.27474
 30
0.0
 40
0.0196996
 41
0.0196996
  0
SEQEND
 8
0
  0
POLYLINE
  8
0
 62
     0
 66
     1
 10
0
 20
0
 30
0.0
 70
     1
 40
1.41732
 41
1.41732
  0
VERTEX
  8
0
 10
4.12326
 20
2.2679
 30
0.0
 40
0.019685
 41
0.019685
  0
VERTEX
  8
0
 10
4.1116
 20
2.2615
 30
0.0
 40
0.019685
 41
0.019685
  0
VERTEX
  8
0
 10
4.09879
 20
2.26514
 30
0.0
 40
0.019685
 41
0.019685
  0
VERTEX
  8
0
 10
4.09229
 20
2.27681
 30
0.0
 40
0.019685
 41
0.019685
  0
VERTEX
  8
0
 10
4.09597
 20
2.28961
 30
0.0
 40
0.019685
 41
0.019685
  0
VERTEX
  8
0
 10
4.10764
 20
2.29606
 30
0.0
 40
0.019685
 41
0.019685
  0
VERTEX
  8
0
 10
4.12044
 20
2.29237
 30
0.0
 40
0.019685
 41
0.019685
  0
VERTEX
  8
0
 10
4.1269
 20
2.28076
 30
0.0
 40
0.019685
 41
0.019685
  0
VERTEX
  8
0
 10
4.12326
 20
2.2679
 30
0.0
 40
0.019685
 41
0.019685
  0
SEQEND
 8
0
  0
POLYLINE
  8
0
 62
     0
 66
     1
 10
0
 20
0
 30
0.0
 70
     1
 40
1.41732
 41
1.41732
  0
VERTEX
  8
0
 10
4.39643
 20
2.61154
 30
0.0
 40
0.019685
 41
0.019685
  0
VERTEX
  8
0
 10
4.38476
 20
2.60508
 30
0.0
 40
0.019685
 41
0.019685
  0
VERTEX
  8
0
 10
4.37201
 20
2.60872
 30
0.0
 40
0.019685
 41
0.019685
  0
VERTEX
  8
0
 10
4.3655
 20
2.62039
 30
0.0
 40
0.019685
 41
0.019685
  0
VERTEX
  8
0
 10
4.36919
 20
2.63319
 30
0.0
 40
0.019685
 41
0.019685
  0
VERTEX
  8
0
 10
4.38081
 20
2.63965
 30
0.0
 40
0.019685
 41
0.019685
  0
VERTEX
  8
0
 10
4.39367
 20
2.63596
 30
0.0
 40
0.019685
 41
0.019685
  0
VERTEX
  8
0
 10
4.40007
 20
2.62435
 30
0.0
 40
0.019685
 41
0.019685
  0
VERTEX
  8
0
 10
4.39643
 20
2.61154
 30
0.0
 40
0.019685
 41
0.019685
  0
SEQEND
 8
0
  0
POLYLINE
  8
0
 62
     0
 66
     1
 10
0
 20
0
 30
0.0
 70
     1
 40
1.24985
 41
1.24985
  0
VERTEX
  8
0
 10
4.2589
 20
2.72086
 30
0.0
 40
0.017359
 41
0.017359
  0
VERTEX
  8
0
 10
4.23833
 20
2.70947
 30
0.0
 40
0.017359
 41
0.017359
  0
VERTEX
  8
0
 10
4.21582
 20
2.71593
 30
0.0
 40
0.017359
 41
0.017359
  0
VERTEX
  8
0
 10
4.20437
 20
2.73649
 30
0.0
 40
0.017359
 41
0.017359
  0
VERTEX
  8
0
 10
4.21089
 20
2.75906
 30
0.0
 40
0.017359
 41
0.017359
  0
VERTEX
  8
0
 10
4.23139
 20
2.77051
 30
0.0
 40
0.017359
 41
0.017359
  0
VERTEX
  8
0
 10
4.25401
 20
2.764
 30
0.0
 40
0.017359
 41
0.017359
  0
VERTEX
  8
0
 10
4.26536
 20
2.74343
 30
0.0
 40
0.017359
 41
0.017359
  0
VERTEX
  8
0
 10
4.2589
 20
2.72086
 30
0.0
 40
0.017359
 41
0.017359
  0
SEQEND
 8
0
  0
POLYLINE
  8
0
 62
     0
 66
     1
 10
0
 20
0
 30
0.0
 70
     1
 40
1.24985
 41
1.24985
  0
VERTEX
  8
0
 10
4.39882
 20
2.40338
 30
0.0
 40
0.017359
 41
0.017359
  0
VERTEX
  8
0
 10
4.37825
 20
2.39204
 30
0.0
 40
0.017359
 41
0.017359
  0
VERTEX
  8
0
 10
4.35568
 20
2.39849
 30
0.0
 40
0.017359
 41
0.017359
  0
VERTEX
  8
0
 10
4.34429
 20
2.41906
 30
0.0
 40
0.017359
 41
0.017359
  0
VERTEX
  8
0
 10
4.35081
 20
2.44162
 30
0.0
 40
0.017359
 41
0.017359
  0
VERTEX
  8
0
 10
4.37131
 20
2.45301
 30
0.0
 40
0.017359
 41
0.017359
  0
VERTEX
  8
0
 10
4.39393
 20
2.4465
 30
0.0
 40
0.017359
 41
0.017359
  0
VERTEX
  8
0
 10
4.40528
 20
2.426
 30
0.0
 40
0.017359
 41
0.017359
  0
VERTEX
  8
0
 10
4.39882
 20
2.40338
 30
0.0
 40
0.017359
 41
0.017359
  0
SEQEND
 8
0
  0
POLYLINE
  8
0
 62
     0
 66
     1
 10
0
 20
0
 30
0.0
 70
     1
 40
1.24985
 41
1.24985
  0
VERTEX
  8
0
 10
4.59978
 20
2.65608
 30
0.0
 40
0.017359
 41
0.017359
  0
VERTEX
  8
0
 10
4.57915
 20
2.64475
 30
0.0
 40
0.017359
 41
0.017359
  0
VERTEX
  8
0
 10
4.55664
 20
2.65115
 30
0.0
 40
0.017359
 41
0.017359
  0
VERTEX
  8
0
 10
4.54519
 20
2.67176
 30
0.0
 40
0.017359
 41
0.017359
  0
VERTEX
  8
0
 10
4.55171
 20
2.69428
 30
0.0
 40
0.017359
 41
0.017359
  0
VERTEX
  8
0
 10
4.57221
 20
2.70572
 30
0.0
 40
0.017359
 41
0.017359
  0
VERTEX
  8
0
 10
4.59483
 20
2.69922
 30
0.0
 40
0.017359
 41
0.017359
  0
VERTEX
  8
0
 10
4.60618
 20
2.67871
 30
0.0
 40
0.017359
 41
0.017359
  0
VERTEX
  8
0
 10
4.59978
 20
2.65608
 30
0.0
 40
0.017359
 41
0.017359
  0
SEQEND
 8
0
  0
POLYLINE
  8
0
 62
     0
 66
     1
 10
0
 20
0
 30
0.0
 70
     1
 40
2.83465
 41
2.83465
  0
VERTEX
  8
0
 10
5.07633
 20
3.24311
 30
0.0
 40
0.0393701
 41
0.0393701
  0
VERTEX
  8
0
 10
5.08968
 20
3.39529
 30
0.0
 40
0.0393701
 41
0.0393701
  0
VERTEX
  8
0
 10
5.12706
 20
3.52257
 30
0.0
 40
0.0393701
 41
0.0393701
  0
VERTEX
  8
0
 10
5.1844
 20
3.62642
 30
0.0
 40
0.0393701
 41
0.0393701
  0
VERTEX
  8
0
 10
5.25754
 20
3.70817
 30
0.0
 40
0.0393701
 41
0.0393701
  0
VERTEX
  8
0
 10
5.34239
 20
3.76937
 30
0.0
 40
0.0393701
 41
0.0393701
  0
VERTEX
  8
0
 10
5.43489
 20
3.81125
 30
0.0
 40
0.0393701
 41
0.0393701
  0
VERTEX
  8
0
 10
5.53087
 20
3.83539
 30
0.0
 40
0.0393701
 41
0.0393701
  0
VERTEX
  8
0
 10
5.62631
 20
3.8431
 30
0.0
 40
0.0393701
 41
0.0393701
  0
VERTEX
  8
0
 10
5.72163
 20
3.83583
 30
0.0
 40
0.0393701
 41
0.0393701
  0
VERTEX
  8
0
 10
5.81743
 20
3.81282
 30
0.0
 40
0.0393701
 41
0.0393701
  0
VERTEX
  8
0
 10
5.90961
 20
3.77246
 30
0.0
 40
0.0393701
 41
0.0393701
  0
VERTEX
  8
0
 10
5.99425
 20
3.71311
 30
0.0
 40
0.0393701
 41
0.0393701
  0
VERTEX
  8
0
 10
6.06717
 20
3.63314
 30
0.0
 40
0.0393701
 41
0.0393701
  0
VERTEX
  8
0
 10
6.12435
 20
3.53088
 30
0.0
 40
0.0393701
 41
0.0393701
  0
VERTEX
  8
0
 10
6.16178
 20
3.40468
 30
0.0
 40
0.0393701
 41
0.0393701
  0
VERTEX
  8
0
 10
6.1754
 20
3.25293
 30
0.0
 40
0.0393701
 41
0.0393701
  0
VERTEX
  8
0
 10
6.17567
 20
3.08328
 30
0.0
 40
0.0393701
 41
0.0393701
  0
VERTEX
  8
0
 10
6.17589
 20
2.891
 30
0.0
 40
0.0393701
 41
0.0393701
  0
VERTEX
  8
0
 10
6.17606
 20
2.69006
 30
0.0
 40
0.0393701
 41
0.0393701
  0
VERTEX
  8
0
 10
6.17617
 20
2.49436
 30
0.0
 40
0.0393701
 41
0.0393701
  0
VERTEX
  8
0
 10
6.17626
 20
2.31787
 30
0.0
 40
0.0393701
 41
0.0393701
  0
VERTEX
  8
0
 10
6.17626
 20
2.17453
 30
0.0
 40
0.0393701
 41
0.0393701
  0
VERTEX
  8
0
 10
6.17626
 20
2.07829
 30
0.0
 40
0.0393701
 41
0.0393701
  0
VERTEX
  8
0
 10
6.17632
 20
2.04308
 30
0.0
 40
0.0393701
 41
0.0393701
  0
VERTEX
  8
0
 10
6.16531
 20
2.04764
 30
0.0
 40
0.0393701
 41
0.0393701
  0
VERTEX
  8
0
 10
6.13514
 20
2.05951
 30
0.0
 40
0.0393701
 41
0.0393701
  0
VERTEX
  8
0
 10
6.08974
 20
2.07617
 30
0.0
 40
0.0393701
 41
0.0393701
  0
VERTEX
  8
0
 10
6.03315
 20
2.09517
 30
0.0
 40
0.0393701
 41
0.0393701
  0
VERTEX
  8
0
 10
5.96951
 20
2.11388
 30
0.0
 40
0.0393701
 41
0.0393701
  0
VERTEX
  8
0
 10
5.90278
 20
2.12978
 30
0.0
 40
0.0393701
 41
0.0393701
  0
VERTEX
  8
0
 10
5.83703
 20
2.14035
 30
0.0
 40
0.0393701
 41
0.0393701
  0
VERTEX
  8
0
 10
5.77632
 20
2.14307
 30
0.0
 40
0.0393701
 41
0.0393701
  0
VERTEX
  8
0
 10
5.68907
 20
2.12586
 30
0.0
 40
0.0393701
 41
0.0393701
  0
VERTEX
  8
0
 10
5.60796
 20
2.09218
 30
0.0
 40
0.0393701
 41
0.0393701
  0
VERTEX
  8
0
 10
5.52354
 20
2.05897
 30
0.0
 40
0.0393701
 41
0.0393701
  0
VERTEX
  8
0
 10
5.42632
 20
2.04308
 30
0.0
 40
0.0393701
 41
0.0393701
  0
VERTEX
  8
0
 10
5.38151
 20
2.04699
 30
0.0
 40
0.0393701
 41
0.0393701
  0
VERTEX
  8
0
 10
5.32785
 20
2.05811
 30
0.0
 40
0.0393701
 41
0.0393701
  0
VERTEX
  8
0
 10
5.27001
 20
2.07411
 30
0.0
 40
0.0393701
 41
0.0393701
  0
VERTEX
  8
0
 10
5.2124
 20
2.09256
 30
0.0
 40
0.0393701
 41
0.0393701
  0
VERTEX
  8
0
 10
5.15972
 20
2.11106
 30
0.0
 40
0.0393701
 41
0.0393701
  0
VERTEX
  8
0
 10
5.11643
 20
2.12728
 30
0.0
 40
0.0393701
 41
0.0393701
  0
VERTEX
  8
0
 10
5.08708
 20
2.13872
 30
0.0
 40
0.0393701
 41
0.0393701
  0
VERTEX
  8
0
 10
5.07633
 20
2.14307
 30
0.0
 40
0.0393701
 41
0.0393701
  0
VERTEX
  8
0
 10
5.07633
 20
3.24311
 30
0.0
 40
0.0393701
 41
0.0393701
  0
SEQEND
 8
0
  0
POLYLINE
  8
0
 62
     0
 66
     1
 10
0
 20
0
 30
0.0
 70
     1
 40
4.13745
 41
4.13745
  0
VERTEX
  8
0
 10
5.6914
 20
3.68479
 30
0.0
 40
0.0574646
 41
0.0574646
  0
VERTEX
  8
0
 10
5.68636
 20
3.65994
 30
0.0
 40
0.0574646
 41
0.0574646
  0
VERTEX
  8
0
 10
5.67269
 20
3.6396
 30
0.0
 40
0.0574646
 41
0.0574646
  0
VERTEX
  8
0
 10
5.65235
 20
3.62592
 30
0.0
 40
0.0574646
 41
0.0574646
  0
VERTEX
  8
0
 10
5.6275
 20
3.62088
 30
0.0
 40
0.0574646
 41
0.0574646
  0
VERTEX
  8
0
 10
5.6026
 20
3.62592
 30
0.0
 40
0.0574646
 41
0.0574646
  0
VERTEX
  8
0
 10
5.58225
 20
3.6396
 30
0.0
 40
0.0574646
 41
0.0574646
  0
VERTEX
  8
0
 10
5.56858
 20
3.65994
 30
0.0
 40
0.0574646
 41
0.0574646
  0
VERTEX
  8
0
 10
5.56358
 20
3.68479
 30
0.0
 40
0.0574646
 41
0.0574646
  0
VERTEX
  8
0
 10
5.56858
 20
3.70969
 30
0.0
 40
0.0574646
 41
0.0574646
  0
VERTEX
  8
0
 10
5.58225
 20
3.73003
 30
0.0
 40
0.0574646
 41
0.0574646
  0
VERTEX
  8
0
 10
5.6026
 20
3.74376
 30
0.0
 40
0.0574646
 41
0.0574646
  0
VERTEX
  8
0
 10
5.6275
 20
3.74875
 30
0.0
 40
0.0574646
 41
0.0574646
  0
VERTEX
  8
0
 10
5.65235
 20
3.74376
 30
0.0
 40
0.0574646
 41
0.0574646
  0
VERTEX
  8
0
 10
5.67269
 20
3.73003
 30
0.0
 40
0.0574646
 41
0.0574646
  0
VERTEX
  8
0
 10
5.68636
 20
3.70969
 30
0.0
 40
0.0574646
 41
0.0574646
  0
VERTEX
  8
0
 10
5.6914
 20
3.68479
 30
0.0
 40
0.0574646
 41
0.0574646
  0
SEQEND
 8
0
  0
POLYLINE
  8
0
 62
     0
 66
     1
 10
0
 20
0
 30
0.0
 70
     1
 40
2.83465
 41
2.83465
  0
VERTEX
  8
0
 10
5.37631
 20
3.17643
 30
0.0
 40
0.0393701
 41
0.0393701
  0
VERTEX
  8
0
 10
5.87631
 20
3.17643
 30
0.0
 40
0.0393701
 41
0.0393701
  0
VERTEX
  8
0
 10
5.87582
 20
3.16786
 30
0.0
 40
0.0393701
 41
0.0393701
  0
VERTEX
  8
0
 10
5.87239
 20
3.14518
 30
0.0
 40
0.0393701
 41
0.0393701
  0
VERTEX
  8
0
 10
5.86312
 20
3.11317
 30
0.0
 40
0.0393701
 41
0.0393701
  0
VERTEX
  8
0
 10
5.84506
 20
3.07644
 30
0.0
 40
0.0393701
 41
0.0393701
  0
VERTEX
  8
0
 10
5.81526
 20
3.03971
 30
0.0
 40
0.0393701
 41
0.0393701
  0
VERTEX
  8
0
 10
5.77083
 20
3.00771
 30
0.0
 40
0.0393701
 41
0.0393701
  0
VERTEX
  8
0
 10
5.70882
 20
2.98503
 30
0.0
 40
0.0393701
 41
0.0393701
  0
VERTEX
  8
0
 10
5.62631
 20
2.9764
 30
0.0
 40
0.0393701
 41
0.0393701
  0
VERTEX
  8
0
 10
5.54378
 20
2.98503
 30
0.0
 40
0.0393701
 41
0.0393701
  0
VERTEX
  8
0
 10
5.48178
 20
3.00771
 30
0.0
 40
0.0393701
 41
0.0393701
  0
VERTEX
  8
0
 10
5.43733
 20
3.03971
 30
0.0
 40
0.0393701
 41
0.0393701
  0
VERTEX
  8
0
 10
5.40756
 20
3.07644
 30
0.0
 40
0.0393701
 41
0.0393701
  0
VERTEX
  8
0
 10
5.38949
 20
3.11317
 30
0.0
 40
0.0393701
 41
0.0393701
  0
VERTEX
  8
0
 10
5.38021
 20
3.14518
 30
0.0
 40
0.0393701
 41
0.0393701
  0
VERTEX
  8
0
 10
5.37679
 20
3.16786
 30
0.0
 40
0.0393701
 41
0.0393701
  0
VERTEX
  8
0
 10
5.37631
 20
3.17643
 30
0.0
 40
0.0393701
 41
0.0393701
  0
SEQEND
 8
0
  0
POLYLINE
  8
0
 62
     0
 66
     1
 10
0
 20
0
 30
0.0
 70
     1
 40
1.41837
 41
1.41837
  0
VERTEX
  8
0
 10
5.26133
 20
2.83003
 30
0.0
 40
0.0196996
 41
0.0196996
  0
VERTEX
  8
0
 10
5.25108
 20
2.81976
 30
0.0
 40
0.0196996
 41
0.0196996
  0
VERTEX
  8
0
 10
5.24078
 20
2.83003
 30
0.0
 40
0.0196996
 41
0.0196996
  0
VERTEX
  8
0
 10
5.25108
 20
2.84033
 30
0.0
 40
0.0196996
 41
0.0196996
  0
VERTEX
  8
0
 10
5.26133
 20
2.83003
 30
0.0
 40
0.0196996
 41
0.0196996
  0
SEQEND
 8
0
  0
POLYLINE
  8
0
 62
     0
 66
     1
 10
0
 20
0
 30
0.0
 70
     1
 40
1.41837
 41
1.41837
  0
VERTEX
  8
0
 10
5.26133
 20
3.26313
 30
0.0
 40
0.0196996
 41
0.0196996
  0
VERTEX
  8
0
 10
5.25108
 20
3.25282
 30
0.0
 40
0.0196996
 41
0.0196996
  0
VERTEX
  8
0
 10
5.24078
 20
3.26313
 30
0.0
 40
0.0196996
 41
0.0196996
  0
VERTEX
  8
0
 10
5.25108
 20
3.27339
 30
0.0
 40
0.0196996
 41
0.0196996
  0
VERTEX
  8
0
 10
5.26133
 20
3.26313
 30
0.0
 40
0.0196996
 41
0.0196996
  0
SEQEND
 8
0
  0
POLYLINE
  8
0
 62
     0
 66
     1
 10
0
 20
0
 30
0.0
 70
     1
 40
1.41837
 41
1.41837
  0
VERTEX
  8
0
 10
6.01221
 20
2.8361
 30
0.0
 40
0.0196996
 41
0.0196996
  0
VERTEX
  8
0
 10
6.0019
 20
2.82579
 30
0.0
 40
0.0196996
 41
0.0196996
  0
VERTEX
  8
0
 10
5.99164
 20
2.8361
 30
0.0
 40
0.0196996
 41
0.0196996
  0
VERTEX
  8
0
 10
6.0019
 20
2.84636
 30
0.0
 40
0.0196996
 41
0.0196996
  0
VERTEX
  8
0
 10
6.01221
 20
2.8361
 30
0.0
 40
0.0196996
 41
0.0196996
  0
SEQEND
 8
0
  0
POLYLINE
  8
0
 62
     0
 66
     1
 10
0
 20
0
 30
0.0
 70
     1
 40
1.41837
 41
1.41837
  0
VERTEX
  8
0
 10
6.01221
 20
3.26915
 30
0.0
 40
0.0196996
 41
0.0196996
  0
VERTEX
  8
0
 10
6.0019
 20
3.2589
 30
0.0
 40
0.0196996
 41
0.0196996
  0
VERTEX
  8
0
 10
5.99164
 20
3.26915
 30
0.0
 40
0.0196996
 41
0.0196996
  0
VERTEX
  8
0
 10
6.0019
 20
3.2794
 30
0.0
 40
0.0196996
 41
0.0196996
  0
VERTEX
  8
0
 10
6.01221
 20
3.26915
 30
0.0
 40
0.0196996
 41
0.0196996
  0
SEQEND
 8
0
  0
POLYLINE
  8
0
 62
     0
 66
     1
 10
0
 20
0
 30
0.0
 70
     1
 40
1.41732
 41
1.41732
  0
VERTEX
  8
0
 10
5.37326
 20
2.26238
 30
0.0
 40
0.019685
 41
0.019685
  0
VERTEX
  8
0
 10
5.3616
 20
2.25592
 30
0.0
 40
0.019685
 41
0.019685
  0
VERTEX
  8
0
 10
5.34879
 20
2.25956
 30
0.0
 40
0.019685
 41
0.019685
  0
VERTEX
  8
0
 10
5.34229
 20
2.27121
 30
0.0
 40
0.019685
 41
0.019685
  0
VERTEX
  8
0
 10
5.34597
 20
2.28401
 30
0.0
 40
0.019685
 41
0.019685
  0
VERTEX
  8
0
 10
5.35764
 20
2.29053
 30
0.0
 40
0.019685
 41
0.019685
  0
VERTEX
  8
0
 10
5.37044
 20
2.28683
 30
0.0
 40
0.019685
 41
0.019685
  0
VERTEX
  8
0
 10
5.3769
 20
2.27518
 30
0.0
 40
0.019685
 41
0.019685
  0
VERTEX
  8
0
 10
5.37326
 20
2.26238
 30
0.0
 40
0.019685
 41
0.019685
  0
SEQEND
 8
0
  0
POLYLINE
  8
0
 62
     0
 66
     1
 10
0
 20
0
 30
0.0
 70
     1
 40
1.41732
 41
1.41732
  0
VERTEX
  8
0
 10
5.64643
 20
2.60596
 30
0.0
 40
0.019685
 41
0.019685
  0
VERTEX
  8
0
 10
5.63476
 20
2.59956
 30
0.0
 40
0.019685
 41
0.019685
  0
VERTEX
  8
0
 10
5.62201
 20
2.60319
 30
0.0
 40
0.019685
 41
0.019685
  0
VERTEX
  8
0
 10
5.6155
 20
2.61486
 30
0.0
 40
0.019685
 41
0.019685
  0
VERTEX
  8
0
 10
5.61919
 20
2.62761
 30
0.0
 40
0.019685
 41
0.019685
  0
VERTEX
  8
0
 10
5.63081
 20
2.63411
 30
0.0
 40
0.019685
 41
0.019685
  0
VERTEX
  8
0
 10
5.64367
 20
2.63043
 30
0.0
 40
0.019685
 41
0.019685
  0
VERTEX
  8
0
 10
5.65007
 20
2.61882
 30
0.0
 40
0.019685
 41
0.019685
  0
VERTEX
  8
0
 10
5.64643
 20
2.60596
 30
0.0
 40
0.019685
 41
0.019685
  0
SEQEND
 8
0
  0
POLYLINE
  8
0
 62
     0
 66
     1
 10
0
 20
0
 30
0.0
 70
     1
 40
1.24985
 41
1.24985
  0
VERTEX
  8
0
 10
5.5089
 20
2.71533
 30
0.0
 40
0.017359
 41
0.017359
  0
VERTEX
  8
0
 10
5.48833
 20
2.70394
 30
0.0
 40
0.017359
 41
0.017359
  0
VERTEX
  8
0
 10
5.46582
 20
2.71039
 30
0.0
 40
0.017359
 41
0.017359
  0
VERTEX
  8
0
 10
5.45437
 20
2.73096
 30
0.0
 40
0.017359
 41
0.017359
  0
VERTEX
  8
0
 10
5.46089
 20
2.75353
 30
0.0
 40
0.017359
 41
0.017359
  0
VERTEX
  8
0
 10
5.48139
 20
2.76492
 30
0.0
 40
0.017359
 41
0.017359
  0
VERTEX
  8
0
 10
5.50401
 20
2.75842
 30
0.0
 40
0.017359
 41
0.017359
  0
VERTEX
  8
0
 10
5.51536
 20
2.7379
 30
0.0
 40
0.017359
 41
0.017359
  0
VERTEX
  8
0
 10
5.5089
 20
2.71533
 30
0.0
 40
0.017359
 41
0.017359
  0
SEQEND
 8
0
  0
POLYLINE
  8
0
 62
     0
 66
     1
 10
0
 20
0
 30
0.0
 70
     1
 40
1.24985
 41
1.24985
  0
VERTEX
  8
0
 10
5.64882
 20
2.39785
 30
0.0
 40
0.017359
 41
0.017359
  0
VERTEX
  8
0
 10
5.62825
 20
2.38644
 30
0.0
 40
0.017359
 41
0.017359
  0
VERTEX
  8
0
 10
5.60568
 20
2.3929
 30
0.0
 40
0.017359
 41
0.017359
  0
VERTEX
  8
0
 10
5.59429
 20
2.41351
 30
0.0
 40
0.017359
 41
0.017359
  0
VERTEX
  8
0
 10
5.60081
 20
2.43604
 30
0.0
 40
0.017359
 41
0.017359
  0
VERTEX
  8
0
 10
5.62131
 20
2.44749
 30
0.0
 40
0.017359
 41
0.017359
  0
VERTEX
  8
0
 10
5.64393
 20
2.44097
 30
0.0
 40
0.017359
 41
0.017359
  0
VERTEX
  8
0
 10
5.65528
 20
2.42046
 30
0.0
 40
0.017359
 41
0.017359
  0
VERTEX
  8
0
 10
5.64882
 20
2.39785
 30
0.0
 40
0.017359
 41
0.017359
  0
SEQEND
 8
0
  0
POLYLINE
  8
0
 62
     0
 66
     1
 10
0
 20
0
 30
0.0
 70
     1
 40
1.24985
 41
1.24985
  0
VERTEX
  8
0
 10
5.84978
 20
2.65056
 30
0.0
 40
0.017359
 41
0.017359
  0
VERTEX
  8
0
 10
5.82915
 20
2.63917
 30
0.0
 40
0.017359
 41
0.017359
  0
VERTEX
  8
0
 10
5.80664
 20
2.64561
 30
0.0
 40
0.017359
 41
0.017359
  0
VERTEX
  8
0
 10
5.79519
 20
2.66618
 30
0.0
 40
0.017359
 41
0.017359
  0
VERTEX
  8
0
 10
5.80171
 20
2.68875
 30
0.0
 40
0.017359
 41
0.017359
  0
VERTEX
  8
0
 10
5.82221
 20
2.70014
 30
0.0
 40
0.017359
 41
0.017359
  0
VERTEX
  8
0
 10
5.84483
 20
2.69368
 30
0.0
 40
0.017359
 41
0.017359
  0
VERTEX
  8
0
 10
5.85618
 20
2.67312
 30
0.0
 40
0.017359
 41
0.017359
  0
VERTEX
  8
0
 10
5.84978
 20
2.65056
 30
0.0
 40
0.017359
 41
0.017359
  0
SEQEND
 8
0
  0
POLYLINE
  8
0
 62
     0
 66
     1
 10
0
 20
0
 30
0.0
 70
     1
 40
1.40525
 41
1.40525
  0
VERTEX
  8
0
 10
0.00981988
 20
3.9274
 30
0.0
 40
0.0195174
 41
0.0195174
  0
VERTEX
  8
0
 10
6.2895
 20
3.9274
 30
0.0
 40
0.0195174
 41
0.0195174
  0
VERTEX
  8
0
 10
6.2895
 20
0.00992839
 30
0.0
 40
0.0195174
 41
0.0195174
  0
VERTEX
  8
0
 10
0.00981988
 20
0.00992839
 30
0.0
 40
0.0195174
 41
0.0195174
  0
VERTEX
  8
0
 10
0.00981988
 20
3.9274
 30
0.0
 40
0.0195174
 41
0.0195174
  0
SEQEND
 8
0
  0
ENDSEC
  0
EOF
